<?xml version="1.0" encoding="UTF-8"?>
<svg id="Layer_2" data-name="Layer 2" xmlns="http://www.w3.org/2000/svg" viewBox="0 0 841.07 259.35">
  <defs>
    <style>
      .cls-1 {
        fill: #fff;
      }
    </style>
  </defs>
  <g id="Investment_Visa" data-name="Investment Visa">
    <path class="cls-1" d="M122.65,74.53l53.79,1.73c.81.03,1.3.91.89,1.61l-7.66,13.28c-5.67,9.83-16.3,15.74-27.64,15.37l-21.6-.69,11.4,18.36c5.99,9.64,6.18,21.8.51,31.62l-7.66,13.28c-.41.7-1.41.72-1.84.03l-28.39-45.72c-3.42-5.51-3.53-12.45-.29-18.07l12.51-21.67h0l.19-.33c3.24-5.62,9.31-8.99,15.79-8.78ZM144.08,52.2c-1.29,2.22.31,5,2.87,5l19.11.05c2.56,0,4.16-2.76,2.89-4.97l-9.52-16.59c-1.27-2.22-4.47-2.22-5.75-.01l-9.6,16.53ZM152.43,134.53c4.24,2.46,9.68,1.02,12.14-3.22,2.46-4.24,1.02-9.68-3.22-12.14-4.24-2.46-9.68-1.02-12.14,3.22-2.46,4.24-1.02,9.68,3.22,12.14ZM83.04,123.46c3.42-5.51,3.53-12.45.29-18.07l-.19-.33h0l-12.51-21.67c-3.24-5.62-9.31-8.99-15.8-8.78l-53.79,1.73c-.81.03-1.3.91-.89,1.61l7.67,13.28c5.67,9.83,16.3,15.74,27.64,15.37l21.6-.69-11.4,18.36c-5.99,9.64-6.18,21.8-.51,31.62l7.67,13.28c.41.7,1.41.72,1.84.03l28.39-45.72ZM101.18,169.76l-9.51-16.58c-1.28-2.22-4.48-2.23-5.77-.01l-9.6,16.53c-1.28,2.21.31,4.98,2.86,4.99l19.13.05c2.56,0,4.16-2.76,2.89-4.97ZM28.32,122.53c-2.44-4.26-7.87-5.72-12.13-3.28-4.26,2.44-5.72,7.87-3.28,12.13,2.44,4.26,7.87,5.73,12.13,3.28,4.26-2.44,5.72-7.87,3.28-12.13ZM35.08,17.25l25.4,47.45c3.06,5.72,9.02,9.29,15.51,9.29h.39s10.92,0,10.92,0h13.72s.39,0,.39,0c6.49,0,12.44-3.57,15.5-9.29l25.4-47.45c.38-.71-.14-1.58-.95-1.58h-15.33c-11.35,0-21.78,6.25-27.13,16.25l-10.2,19.05-10.2-19.05c-5.36-10.01-15.78-16.25-27.13-16.25h-15.33c-.81,0-1.33.86-.95,1.58ZM33.32,52.32l-9.51-16.58c-1.27-2.22-4.47-2.22-5.75-.01l-9.61,16.54c-1.28,2.21.31,4.98,2.86,4.99l19.11.05c2.56,0,4.17-2.76,2.9-4.99ZM79.78,8.86c-.01,4.91,3.95,8.89,8.86,8.91,4.91.01,8.89-3.95,8.91-8.86C97.56,4,93.59.01,88.69,0c-4.91-.01-8.89,3.95-8.91,8.86ZM225.19,4.78c5.01,0,9.53,4.17,9.53,9.65s-4.53,9.53-9.53,9.53-9.53-4.17-9.53-9.53,4.53-9.65,9.53-9.65ZM216.49,31.24h10.01c4.08,0,7.39,3.31,7.39,7.39v54.58h-17.4V31.24ZM276.68,44.47c-7.27,0-12.99,4.17-12.99,13.59v35.16h-17.4V31.24h10.01c4.08,0,7.39,3.31,7.39,7.39v5.6h.72c1.07-5.84,7.03-14.18,19.78-14.18,12.04,0,21.33,7.75,21.33,23.84v39.33h-17.4v-35.16c0-9.42-4.17-13.59-11.44-13.59ZM311.36,31.24h12.48c3.16,0,5.97,2.01,6.99,5l13.78,40.29h.6l13.78-40.29c1.02-2.99,3.83-5,6.99-5h12.36l-22.53,61.98h-21.93l-22.53-61.98ZM379.41,62.11c0-23.12,14.66-32.06,31.11-32.06s29.44,8.34,29.44,31.82c0,2.26-.12,3.46-.36,4.77h-43.62c.95,10.37,6.32,14.54,14.9,14.54,6.08,0,9.53-1.87,11.47-4.97,1.27-2.04,3.53-3.26,5.94-3.26h10.84c-3.1,14.18-14.06,21.45-28.48,21.45-15.73,0-31.23-8.7-31.23-32.3ZM423.51,56.39c-.24-7.15-3.93-13.11-13.47-13.11-8.1,0-12.87,4.53-14.06,13.11h27.53ZM445.8,72.84h10.16c2.82,0,5.28,1.64,6.68,4.09,1.73,3.04,5.16,4.49,10.1,4.49,5.84,0,9.77-2.03,9.77-6.44,0-2.86-1.91-4.65-5.96-5.48l-11.44-2.38c-12.99-2.98-17.64-9.89-17.64-18.12,0-12.04,10.37-18.95,25.39-18.95,16.57,0,25.27,8.1,25.51,21.45h-9.64c-2.61,0-4.82-1.63-6.04-3.94-1.72-3.25-5.12-4.53-9.59-4.53-5.96,0-8.7,2.15-8.7,5.48,0,3.1,2.26,5.12,6.44,5.96l11.68,2.5c9.77,2.15,17.88,6.67,17.88,17.64,0,13.83-12.75,19.78-27.77,19.78-16.57,0-26.7-7.27-26.82-21.57ZM515.52,74.62v-29.92h-6.79c-2.04,0-3.7-1.65-3.7-3.7v-9.77h10.49v-8.9c0-3.9,3.16-7.07,7.07-7.07h10.33v15.97h8.58c2.04,0,3.7,1.65,3.7,3.7v9.77h-12.28v27.41c0,4.77,1.43,7.99,7.87,7.99h4.89s0,12.75,0,12.75c-2.74.72-6.08,1.19-9.53,1.19-12.4,0-20.62-5.6-20.62-19.43ZM627.14,44.43c-6.2,0-11.2,4.17-11.2,13.59v35.16h-17.4v-35.16c0-9.42-3.93-13.59-10.25-13.59s-11.2,4.17-11.2,13.59v35.16h-17.4V31.2h10.01c4.08,0,7.39,3.31,7.39,7.39v5.6h.71c.95-5.84,7.27-14.18,18.12-14.18,8.58,0,15.85,4.65,18.71,14.18,1.19-5.72,7.99-14.18,19.67-14.18s20.5,7.75,20.5,23.84v39.33h-17.4v-35.16c0-9.42-3.93-13.59-10.25-13.59ZM664.2,62.07c0-23.12,14.66-32.06,31.11-32.06s29.44,8.34,29.44,31.82c0,2.26-.12,3.46-.36,4.77h-43.62c.95,10.37,6.32,14.54,14.9,14.54,6.08,0,9.53-1.87,11.47-4.97,1.27-2.04,3.53-3.26,5.94-3.26h10.84c-3.1,14.18-14.06,21.45-28.48,21.45-15.73,0-31.23-8.7-31.23-32.3ZM708.3,56.35c-.24-7.15-3.93-13.11-13.47-13.11-8.1,0-12.87,4.53-14.06,13.11h27.53ZM764.55,44.43c-7.27,0-12.99,4.17-12.99,13.59v35.16h-17.4V31.2h10.01c4.08,0,7.39,3.31,7.39,7.39v5.6h.72c1.07-5.84,7.03-14.18,19.78-14.18,12.04,0,21.33,7.75,21.33,23.84v39.33h-17.4v-35.16c0-9.42-4.17-13.59-11.44-13.59ZM810.91,74.58v-29.92h-6.79c-2.04,0-3.7-1.65-3.7-3.7v-9.77h10.49v-8.9c0-3.9,3.16-7.07,7.07-7.07h10.33v15.97h8.58c2.04,0,3.7,1.65,3.7,3.7v9.77h-12.28v27.41c0,4.77,1.43,7.99,7.87,7.99,1.31,0,2.38,0,4.89-.24v12.99c-2.74.72-6.08,1.19-9.53,1.19-12.4,0-20.62-5.6-20.62-19.43ZM217.1,106.78h12.48c3.16,0,5.97,2.01,6.99,5l13.78,40.29h.6l13.78-40.29c1.02-2.99,3.83-5,6.99-5h12.36l-22.53,61.98h-21.93l-22.53-61.98ZM287.99,106.78h10.01c4.08,0,7.39,3.31,7.39,7.39v54.58h-17.4v-61.98ZM314.21,148.37h10.16c2.7,0,5.28,1.41,6.52,3.8,1.68,3.23,5.16,4.78,10.26,4.78,5.84,0,9.77-2.03,9.77-6.44,0-2.86-1.91-4.65-5.96-5.48l-11.44-2.38c-12.99-2.98-17.64-9.89-17.64-18.12,0-12.04,10.37-18.95,25.39-18.95,16.57,0,25.27,8.1,25.51,21.45h-9.37c-2.68,0-5.06-1.56-6.31-3.94-1.72-3.25-5.12-4.53-9.59-4.53-5.96,0-8.7,2.15-8.7,5.48,0,3.1,2.26,5.12,6.44,5.96l11.68,2.5c9.77,2.15,17.88,6.67,17.88,17.64,0,13.83-12.75,19.78-27.77,19.78-16.57,0-26.7-7.27-26.82-21.57ZM375.35,152.31c0-13.71,11.2-16.69,21.93-18.24l10.49-1.55c5.72-.83,7.51-1.79,7.51-5.24v-.83c0-6.56-4.29-8.34-9.65-8.34s-10.61,1.05-10.61,9.3l-16.33.12v-2.86c0-12.16,8.1-19.07,27.41-19.07s26.22,6.67,26.22,20.14v43.03h-9.18c-4.08,0-7.39-3.31-7.39-7.39v-3.57h-.72c-1.19,3.34-6.2,12.16-19.78,12.16-10.13,0-19.9-4.89-19.9-17.64ZM401.21,157.55c8.22,0,14.06-5.48,14.06-10.37v-6.91c-.95,1.43-3.93,1.91-6.67,2.38l-8.7,1.55c-5.36.83-7.15,3.46-7.15,6.67,0,3.81,2.5,6.67,8.46,6.67ZM291.41,249.6v-34.68h6.28v14.68h16.07v-14.68h6.3v34.68h-6.3v-14.73h-16.07v14.73h-6.28ZM334.09,250.12c-1.65,0-3.13-.3-4.44-.89-1.31-.59-2.35-1.47-3.12-2.63-.76-1.16-1.14-2.6-1.14-4.3,0-1.47.27-2.68.81-3.64.54-.96,1.28-1.73,2.22-2.3s2-1.01,3.17-1.31c1.18-.3,2.4-.52,3.67-.65,1.52-.16,2.76-.3,3.71-.43s1.64-.33,2.07-.61c.43-.28.65-.71.65-1.3v-.1c0-1.28-.38-2.26-1.13-2.96-.76-.7-1.85-1.05-3.27-1.05-1.5,0-2.69.33-3.56.98-.88.65-1.46,1.43-1.77,2.32l-5.72-.81c.45-1.58,1.2-2.9,2.23-3.97,1.04-1.07,2.31-1.87,3.81-2.4,1.5-.54,3.16-.8,4.98-.8,1.25,0,2.5.15,3.74.44,1.24.29,2.38.78,3.4,1.45,1.03.67,1.85,1.58,2.48,2.73s.94,2.59.94,4.32v17.41h-5.89v-3.57h-.2c-.37.72-.9,1.4-1.57,2.02-.67.63-1.51,1.13-2.52,1.51-1.01.38-2.19.57-3.55.57ZM335.69,245.62c1.23,0,2.3-.25,3.2-.74.9-.49,1.6-1.14,2.09-1.96.49-.81.74-1.7.74-2.66v-3.06c-.19.16-.52.31-.97.44s-.97.25-1.53.36c-.56.1-1.12.19-1.68.27-.55.08-1.03.15-1.44.2-.91.12-1.73.33-2.46.61-.72.28-1.29.67-1.71,1.18-.42.5-.63,1.15-.63,1.94,0,1.13.41,1.98,1.24,2.56.82.58,1.87.86,3.15.86ZM354.01,249.6v-26.01h5.94v4.33h.27c.47-1.5,1.29-2.66,2.45-3.48,1.16-.82,2.48-1.23,3.97-1.23.34,0,.72.01,1.14.04s.78.07,1.06.13v5.64c-.26-.09-.67-.17-1.23-.25-.56-.07-1.1-.11-1.62-.11-1.12,0-2.12.24-3.01.72s-1.58,1.14-2.09,1.99c-.51.85-.76,1.82-.76,2.93v15.29h-6.13ZM379.05,214.92v34.68h-6.13v-34.68h6.13ZM392.83,250.12c-1.65,0-3.13-.3-4.44-.89-1.31-.59-2.35-1.47-3.12-2.63-.76-1.16-1.14-2.6-1.14-4.3,0-1.47.27-2.68.81-3.64.54-.96,1.28-1.73,2.22-2.3s2-1.01,3.17-1.31c1.18-.3,2.4-.52,3.67-.65,1.52-.16,2.76-.3,3.71-.43s1.64-.33,2.07-.61c.43-.28.65-.71.65-1.3v-.1c0-1.28-.38-2.26-1.13-2.96-.76-.7-1.85-1.05-3.27-1.05-1.5,0-2.69.33-3.56.98-.88.65-1.46,1.43-1.77,2.32l-5.72-.81c.45-1.58,1.2-2.9,2.23-3.97,1.04-1.07,2.31-1.87,3.81-2.4,1.5-.54,3.16-.8,4.98-.8,1.25,0,2.5.15,3.74.44,1.24.29,2.38.78,3.4,1.45,1.03.67,1.85,1.58,2.48,2.73s.94,2.59.94,4.32v17.41h-5.89v-3.57h-.2c-.37.72-.9,1.4-1.57,2.02-.67.63-1.51,1.13-2.52,1.51-1.01.38-2.19.57-3.55.57ZM394.42,245.62c1.23,0,2.3-.25,3.2-.74.9-.49,1.6-1.14,2.09-1.96.49-.81.74-1.7.74-2.66v-3.06c-.19.16-.52.31-.97.44s-.97.25-1.53.36c-.56.1-1.12.19-1.68.27-.55.08-1.03.15-1.44.2-.91.12-1.73.33-2.46.61-.72.28-1.29.67-1.71,1.18-.42.5-.63,1.15-.63,1.94,0,1.13.41,1.98,1.24,2.56.82.58,1.87.86,3.15.86ZM418.87,234.36v15.24h-6.13v-26.01h5.86v4.42h.3c.6-1.46,1.56-2.61,2.87-3.47s2.94-1.29,4.89-1.29c1.79,0,3.36.38,4.7,1.15,1.34.77,2.38,1.88,3.12,3.34s1.1,3.22,1.09,5.3v16.56h-6.13v-15.61c0-1.74-.45-3.1-1.35-4.08-.9-.98-2.14-1.47-3.72-1.47-1.07,0-2.02.23-2.85.7s-1.48,1.14-1.95,2.02c-.47.88-.7,1.95-.7,3.2ZM451.47,250.06c-2.04,0-3.87-.52-5.49-1.57-1.61-1.05-2.89-2.57-3.83-4.57-.94-2-1.41-4.42-1.41-7.28s.48-5.33,1.43-7.32c.95-1.99,2.24-3.5,3.87-4.52s3.44-1.53,5.44-1.53c1.52,0,2.78.26,3.76.77s1.76,1.13,2.34,1.85,1.02,1.39,1.34,2.02h.25v-12.97h6.15v34.68h-6.03v-4.1h-.37c-.32.63-.77,1.3-1.37,2.01-.6.71-1.39,1.31-2.37,1.8-.98.5-2.22.75-3.71.75ZM453.18,245.03c1.3,0,2.4-.35,3.32-1.06s1.61-1.69,2.08-2.95.71-2.74.71-4.42-.23-3.14-.7-4.39c-.47-1.24-1.16-2.21-2.07-2.9s-2.02-1.03-3.34-1.03-2.51.36-3.42,1.07c-.91.71-1.6,1.69-2.07,2.95s-.69,2.69-.69,4.3.23,3.07.7,4.34c.47,1.27,1.16,2.27,2.08,3,.92.73,2.05,1.09,3.39,1.09ZM494.07,250.11c-2.37,0-4.41-.43-6.11-1.29-1.7-.86-3.02-2.02-3.94-3.48s-1.38-3.11-1.38-4.95c0-1.39.29-2.62.85-3.69.57-1.07,1.36-2.07,2.37-2.98,1.01-.91,2.18-1.82,3.51-2.73l6.15-4.18c.9-.59,1.59-1.21,2.06-1.86.47-.65.7-1.42.7-2.3,0-.75-.31-1.45-.94-2.12-.63-.67-1.49-1-2.58-1-.73,0-1.38.17-1.94.52-.56.34-.99.79-1.3,1.35s-.47,1.14-.47,1.76c0,.76.21,1.52.63,2.3.42.78.98,1.59,1.66,2.42.68.84,1.41,1.72,2.19,2.66l16.27,19.07h-6.64l-13.51-15.48c-1-1.17-1.97-2.33-2.9-3.47-.93-1.14-1.69-2.33-2.29-3.56-.59-1.24-.89-2.58-.89-4.02,0-1.64.38-3.1,1.13-4.39.76-1.29,1.81-2.31,3.17-3.06s2.96-1.12,4.78-1.12,3.4.36,4.71,1.08c1.31.72,2.32,1.68,3.03,2.88.71,1.2,1.07,2.5,1.07,3.91,0,1.64-.41,3.1-1.22,4.39-.81,1.29-1.94,2.46-3.39,3.51l-7.01,5.13c-1.15.84-1.98,1.68-2.47,2.53-.5.85-.74,1.58-.74,2.18,0,.91.23,1.74.69,2.49.46.75,1.11,1.34,1.96,1.79.84.45,1.83.67,2.95.67,1.24,0,2.47-.28,3.67-.84,1.21-.56,2.31-1.36,3.3-2.4.99-1.04,1.78-2.28,2.37-3.73.59-1.45.88-3.06.88-4.83h5.27c0,2.19-.24,4.09-.73,5.71-.49,1.62-1.11,2.99-1.88,4.1s-1.58,2-2.44,2.67c-.27.19-.53.38-.78.58-.25.19-.51.38-.78.58-1.22,1.11-2.64,1.92-4.28,2.44s-3.23.78-4.8.78ZM527.41,249.6v-34.68h13c2.66,0,4.9.5,6.71,1.49,1.81.99,3.18,2.36,4.11,4.09.93,1.73,1.4,3.7,1.4,5.9s-.47,4.2-1.41,5.93c-.94,1.73-2.32,3.08-4.15,4.07-1.83.99-4.08,1.48-6.76,1.48h-8.62v-5.16h7.77c1.56,0,2.83-.27,3.83-.81.99-.54,1.73-1.29,2.21-2.23.48-.95.72-2.04.72-3.27s-.24-2.31-.72-3.25c-.48-.94-1.22-1.67-2.22-2.19s-2.28-.79-3.85-.79h-5.76v29.43h-6.28ZM568.79,250.11c-2.54,0-4.74-.56-6.6-1.68-1.86-1.12-3.3-2.68-4.33-4.69-1.02-2.01-1.53-4.36-1.53-7.04s.51-5.04,1.53-7.06c1.02-2.02,2.46-3.59,4.33-4.71,1.86-1.12,4.06-1.68,6.6-1.68s4.74.56,6.6,1.68c1.86,1.12,3.3,2.69,4.33,4.71,1.02,2.02,1.53,4.37,1.53,7.06s-.51,5.03-1.53,7.04c-1.02,2.01-2.46,3.57-4.33,4.69-1.86,1.12-4.06,1.68-6.6,1.68ZM568.82,245.2c1.38,0,2.53-.38,3.45-1.14.93-.76,1.62-1.79,2.07-3.07.46-1.29.69-2.72.69-4.3s-.23-3.03-.69-4.33c-.46-1.29-1.15-2.32-2.07-3.09-.93-.77-2.08-1.15-3.45-1.15s-2.58.38-3.51,1.15c-.93.77-1.63,1.8-2.08,3.09-.46,1.29-.69,2.73-.69,4.33s.23,3.01.69,4.3c.46,1.29,1.15,2.31,2.08,3.07.93.76,2.1,1.14,3.51,1.14ZM606.99,230.47l-5.59.61c-.16-.56-.43-1.09-.82-1.59-.39-.5-.91-.9-1.57-1.2-.65-.3-1.46-.46-2.4-.46-1.28,0-2.35.28-3.21.83-.86.55-1.29,1.27-1.28,2.15-.01.76.27,1.37.84,1.85.57.47,1.52.86,2.84,1.17l4.44.95c2.46.53,4.29,1.37,5.49,2.52,1.2,1.15,1.81,2.66,1.82,4.52-.01,1.64-.49,3.08-1.43,4.33-.94,1.25-2.25,2.22-3.92,2.92s-3.59,1.05-5.76,1.05c-3.18,0-5.75-.67-7.69-2.01-1.94-1.34-3.1-3.2-3.47-5.6l5.98-.58c.27,1.17.85,2.06,1.73,2.66.88.6,2.03.9,3.44.9s2.63-.3,3.51-.9c.89-.6,1.33-1.34,1.33-2.22,0-.75-.29-1.36-.85-1.85-.57-.49-1.45-.86-2.65-1.12l-4.44-.93c-2.5-.52-4.34-1.4-5.54-2.63-1.2-1.24-1.79-2.8-1.78-4.7-.01-1.6.43-2.99,1.31-4.17.89-1.18,2.12-2.09,3.71-2.74,1.59-.65,3.42-.97,5.49-.97,3.05,0,5.45.65,7.2,1.95,1.75,1.3,2.84,3.05,3.26,5.27ZM625.59,223.59v4.74h-14.95v-4.74h14.95ZM614.33,217.36h6.13v24.42c0,.82.13,1.45.38,1.89.25.43.59.73,1.01.89.42.16.88.24,1.39.24.38,0,.74-.03,1.06-.08.32-.06.57-.11.74-.15l1.03,4.79c-.33.11-.79.24-1.4.37-.6.14-1.34.21-2.21.24-1.54.04-2.92-.19-4.15-.7s-2.2-1.31-2.92-2.4c-.72-1.08-1.07-2.44-1.06-4.06v-25.43ZM641.8,250.11c-2.54,0-4.74-.56-6.6-1.68-1.86-1.12-3.3-2.68-4.33-4.69-1.02-2.01-1.53-4.36-1.53-7.04s.51-5.04,1.53-7.06c1.02-2.02,2.46-3.59,4.33-4.71,1.86-1.12,4.06-1.68,6.6-1.68s4.74.56,6.6,1.68c1.86,1.12,3.3,2.69,4.33,4.71,1.02,2.02,1.53,4.37,1.53,7.06s-.51,5.03-1.53,7.04c-1.02,2.01-2.46,3.57-4.33,4.69-1.86,1.12-4.06,1.68-6.6,1.68ZM641.83,245.2c1.38,0,2.53-.38,3.45-1.14.93-.76,1.62-1.79,2.07-3.07.46-1.29.69-2.72.69-4.3s-.23-3.03-.69-4.33c-.46-1.29-1.15-2.32-2.07-3.09-.93-.77-2.08-1.15-3.45-1.15s-2.58.38-3.51,1.15c-.93.77-1.63,1.8-2.08,3.09-.46,1.29-.69,2.73-.69,4.33s.23,3.01.69,4.3c.46,1.29,1.15,2.31,2.08,3.07.93.76,2.1,1.14,3.51,1.14ZM665.57,234.36v15.24h-6.13v-26.01h5.86v4.42h.3c.6-1.46,1.56-2.61,2.87-3.47s2.94-1.29,4.89-1.29c1.79,0,3.36.38,4.7,1.15,1.34.77,2.38,1.88,3.12,3.34s1.1,3.22,1.09,5.3v16.56h-6.13v-15.61c0-1.74-.45-3.1-1.35-4.08-.9-.98-2.14-1.47-3.72-1.47-1.07,0-2.02.23-2.85.7s-1.48,1.14-1.95,2.02c-.47.88-.7,1.95-.7,3.2ZM723.85,226c-.28-.91-.67-1.74-1.16-2.46-.49-.73-1.08-1.35-1.76-1.87-.68-.52-1.46-.91-2.35-1.18s-1.84-.4-2.88-.4c-1.86,0-3.52.47-4.98,1.41s-2.6,2.31-3.43,4.12c-.83,1.81-1.24,4.02-1.24,6.61s.41,4.84,1.24,6.65c.82,1.82,1.97,3.2,3.44,4.14s3.17,1.41,5.11,1.41c1.76,0,3.29-.34,4.58-1.02,1.29-.68,2.29-1.64,2.99-2.89.7-1.25,1.05-2.71,1.05-4.39l1.42.22h-9.41v-4.91h14.07v4.17c0,2.97-.63,5.54-1.9,7.7-1.26,2.17-3,3.83-5.21,5s-4.75,1.75-7.62,1.75c-3.19,0-6-.72-8.41-2.16-2.41-1.44-4.29-3.49-5.64-6.15-1.35-2.66-2.02-5.82-2.02-9.47,0-2.8.4-5.3,1.19-7.5s1.91-4.07,3.34-5.61c1.43-1.54,3.12-2.71,5.05-3.52s4.03-1.21,6.3-1.21c1.92,0,3.71.28,5.37.84,1.66.56,3.14,1.35,4.43,2.38,1.29,1.03,2.36,2.25,3.19,3.66.84,1.41,1.38,2.97,1.64,4.67h-6.4ZM736.35,249.6v-26.01h5.94v4.33h.27c.47-1.5,1.29-2.66,2.45-3.48,1.16-.82,2.48-1.23,3.97-1.23.34,0,.72.01,1.14.04s.78.07,1.06.13v5.64c-.26-.09-.67-.17-1.23-.25-.56-.07-1.1-.11-1.62-.11-1.12,0-2.12.24-3.01.72s-1.58,1.14-2.09,1.99c-.51.85-.76,1.82-.76,2.93v15.29h-6.13ZM765.52,250.11c-2.54,0-4.74-.56-6.6-1.68-1.86-1.12-3.3-2.68-4.33-4.69-1.02-2.01-1.53-4.36-1.53-7.04s.51-5.04,1.53-7.06c1.02-2.02,2.46-3.59,4.33-4.71,1.86-1.12,4.06-1.68,6.6-1.68s4.74.56,6.6,1.68c1.86,1.12,3.3,2.69,4.33,4.71,1.02,2.02,1.53,4.37,1.53,7.06s-.51,5.03-1.53,7.04c-1.02,2.01-2.46,3.57-4.33,4.69-1.86,1.12-4.06,1.68-6.6,1.68ZM765.55,245.2c1.38,0,2.53-.38,3.45-1.14.93-.76,1.62-1.79,2.07-3.07.46-1.29.69-2.72.69-4.3s-.23-3.03-.69-4.33c-.46-1.29-1.15-2.32-2.07-3.09-.93-.77-2.08-1.15-3.45-1.15s-2.58.38-3.51,1.15c-.93.77-1.63,1.8-2.08,3.09-.46,1.29-.69,2.73-.69,4.33s.23,3.01.69,4.3c.46,1.29,1.15,2.31,2.08,3.07.93.76,2.1,1.14,3.51,1.14ZM799.74,238.66v-15.07h6.13v26.01h-5.94v-4.62h-.27c-.59,1.46-1.55,2.65-2.89,3.57-1.34.93-2.98,1.39-4.94,1.39-1.7,0-3.21-.38-4.51-1.14-1.3-.76-2.32-1.87-3.06-3.34-.73-1.46-1.1-3.23-1.1-5.31v-16.56h6.13v15.61c0,1.65.45,2.96,1.35,3.93.9.97,2.09,1.46,3.56,1.46.9,0,1.78-.22,2.62-.66.85-.44,1.54-1.1,2.09-1.97.55-.87.82-1.97.82-3.29ZM812.17,259.35v-35.76h6.03v4.3h.36c.32-.63.76-1.31,1.34-2.02s1.35-1.33,2.34-1.85,2.24-.77,3.76-.77c2.01,0,3.82.51,5.44,1.53s2.91,2.53,3.86,4.52c.95,1.99,1.43,4.43,1.43,7.32s-.47,5.28-1.41,7.28c-.94,2-2.21,3.52-3.83,4.57-1.61,1.05-3.44,1.57-5.49,1.57-1.49,0-2.73-.25-3.71-.75-.98-.5-1.77-1.1-2.36-1.8-.59-.71-1.05-1.37-1.38-2.01h-.25v13.85h-6.13ZM818.18,236.6c0,1.68.24,3.16.72,4.42.48,1.26,1.17,2.25,2.08,2.95s2.01,1.06,3.31,1.06,2.49-.36,3.4-1.09c.91-.73,1.61-1.73,2.07-3,.47-1.27.7-2.72.7-4.34s-.23-3.05-.69-4.3-1.15-2.23-2.07-2.95c-.91-.71-2.05-1.07-3.42-1.07s-2.42.34-3.34,1.03c-.91.69-1.61,1.65-2.07,2.9s-.7,2.7-.7,4.39Z"/>
  </g>
</svg>