<svg width="194" height="39" viewBox="0 0 194 39" fill="none" xmlns="http://www.w3.org/2000/svg">
<g id="Union">
<path d="M40.6985 17.0209L28.2905 16.6363V16.6307C26.7957 16.5861 25.3959 17.3386 24.6471 18.5928L24.6039 18.6681L21.7179 23.5037C20.9691 24.7579 20.995 26.3075 21.7842 27.5366L28.3337 37.743C28.4317 37.8991 28.665 37.8935 28.7571 37.7374L30.5256 34.7747C31.8332 32.5785 31.7871 29.8667 30.4075 27.715L27.7779 23.618L32.7606 23.774C35.3787 23.8549 37.8298 22.5366 39.1374 20.3431L40.9059 17.3804C40.998 17.2243 40.8857 17.0264 40.6985 17.0209Z" fill="white"/>
<path d="M33.8954 12.7705C33.305 12.7677 32.9363 12.149 33.233 11.6529L33.2301 11.6557L35.445 7.96556C35.7416 7.47224 36.479 7.47224 36.7728 7.96835L38.9704 11.6724C39.2641 12.1657 38.8955 12.7817 38.305 12.7817L33.8954 12.7705Z" fill="white"/>
<path d="M37.9594 29.3092C37.392 30.2568 36.1391 30.5774 35.1598 30.0283C34.1806 29.4792 33.8493 28.2668 34.4167 27.3192C34.9841 26.3716 36.237 26.0511 37.2163 26.6002C38.1956 27.1492 38.5268 28.3616 37.9594 29.3092Z" fill="white"/>
<path d="M19.2208 23.5232C19.9696 24.7774 19.9437 26.327 19.1545 27.5561V27.5533L12.6049 37.7597C12.507 37.9158 12.2737 37.9102 12.1815 37.7542L10.4131 34.7915C9.10548 32.598 9.15156 29.8834 10.5312 27.7317L13.1608 23.6347L8.17805 23.7908C5.55994 23.8716 3.10889 22.5533 1.80127 20.3598L0.0328244 17.3971C-0.0593422 17.2411 0.0529859 17.0432 0.240199 17.0376L12.6481 16.653C14.143 16.6056 15.5427 17.3581 16.2916 18.6123L19.1776 23.4479L19.2208 23.5232Z" fill="white"/>
<path d="M21.1447 34.1895L23.3395 37.8907H23.3366C23.6304 38.384 23.2617 39 22.6713 39L18.2588 38.9889C17.6712 38.9889 17.3025 38.3701 17.5992 37.8768L19.8141 34.1867C20.1108 33.6906 20.851 33.6933 21.1447 34.1895Z" fill="white"/>
<path d="M3.73677 26.6169C4.71892 26.0734 5.96893 26.3995 6.53345 27.3499C7.09509 28.3003 6.75811 29.5099 5.77596 30.0562C4.79381 30.5997 3.5438 30.2736 2.97928 29.3232C2.41764 28.3728 2.75462 27.1632 3.73677 26.6169Z" fill="white"/>
<path d="M13.95 14.44L8.09165 3.849L8.08876 3.85179C8.00236 3.69292 8.12045 3.50061 8.30766 3.50061H11.8446C14.4627 3.49783 16.8676 4.89417 18.1032 7.12664L20.4564 11.3798L22.8095 7.12664C24.0451 4.89138 26.4501 3.49783 29.0682 3.49783H32.6051C32.7923 3.49783 32.9133 3.69014 32.824 3.849L26.9656 14.44C26.26 15.7165 24.8833 16.5136 23.3884 16.5136H17.5272C16.0295 16.5136 14.6556 15.7165 13.95 14.44Z" fill="white"/>
<path d="M5.4937 7.97671L7.68842 11.678C7.9822 12.1741 7.61065 12.79 7.02021 12.79L2.61061 12.7789C2.02305 12.7789 1.65438 12.1602 1.95104 11.6668L4.16592 7.97392C4.46258 7.4806 5.19992 7.4806 5.4937 7.97671Z" fill="white"/>
<path d="M20.4477 3.96606C19.3158 3.96327 18.3999 3.07419 18.4028 1.97885H18.4057C18.4086 0.883519 19.3273 -0.00278055 20.4593 6.55538e-06C21.5883 0.00279366 22.5042 0.891881 22.5013 1.98721C22.4984 3.08255 21.5797 3.96885 20.4477 3.96606Z" fill="white"/>
<path d="M54.1458 3.2219C54.1458 1.99836 53.1003 1.06747 51.9453 1.06747C50.7903 1.06747 49.7448 2.02344 49.7448 3.2219C49.7448 4.42036 50.7903 5.35125 51.9453 5.35125C53.1003 5.35125 54.1458 4.44544 54.1458 3.2219Z" fill="white"/>
<path d="M52.2477 6.97335H49.9378V20.8058H53.9528V8.62332C53.9528 7.71193 53.1896 6.97335 52.2477 6.97335Z" fill="white"/>
<path d="M60.825 12.9573C60.825 10.8558 62.1441 9.92489 63.8204 9.92489C65.4967 9.92489 66.4587 10.8558 66.4587 12.9573V20.8058H70.4737V12.0264C70.4737 8.43379 68.3279 6.70579 65.5514 6.70579C62.6107 6.70579 61.2369 8.56757 60.9892 9.87194H60.825V8.62332C60.825 7.71193 60.0617 6.97335 59.1199 6.97335H56.81V20.8058H60.825V12.9573Z" fill="white"/>
<path d="M74.6961 6.97335H71.8216L77.0175 20.8058H82.0752L87.271 6.97335H84.4196C83.691 6.97335 83.0429 7.42207 82.8067 8.08819L79.627 17.0822H79.4887L76.309 8.08819C76.0728 7.42207 75.4248 6.97335 74.6961 6.97335Z" fill="white"/>
<path fill-rule="evenodd" clip-rule="evenodd" d="M94.6905 6.70579C90.8979 6.70579 87.5171 8.70063 87.5159 13.8603C87.5171 19.1258 91.0908 21.0677 94.7193 21.0677C98.0459 21.0677 100.575 19.4457 101.289 16.2795H98.789C98.2331 16.2795 97.7118 16.5499 97.418 17.0069C96.9745 17.7009 96.1766 18.1162 94.774 18.1162C92.7953 18.1162 91.5568 17.1853 91.3379 14.872H101.398C101.453 14.5794 101.482 14.3118 101.482 13.8073C101.482 8.56757 98.4837 6.70579 94.6905 6.70579ZM94.581 9.66012C96.7815 9.66012 97.634 10.9896 97.6888 12.5866H91.3379C91.6115 10.6718 92.7118 9.66012 94.581 9.66012Z" fill="white"/>
<path d="M105.169 16.2572H102.824C102.853 19.4512 105.189 21.0733 109.011 21.0733C112.476 21.0733 115.416 19.7439 115.416 16.6585C115.416 14.2115 113.547 13.1997 111.292 12.7204L108.599 12.1629C107.637 11.9762 107.116 11.5247 107.116 10.8335C107.116 10.0893 107.749 9.60995 109.123 9.60995C110.154 9.60995 110.938 9.89424 111.335 10.6189C111.617 11.1345 112.127 11.4968 112.729 11.4968H114.953C114.895 8.5174 112.89 6.70857 109.068 6.70857C105.604 6.70857 103.213 8.25263 103.213 10.9394C103.213 12.7761 104.287 14.3174 107.283 14.9835L109.921 15.5158C110.854 15.7026 111.295 16.1011 111.295 16.7394C111.295 17.7232 110.388 18.1747 109.04 18.1747C107.899 18.1747 107.11 17.8486 106.71 17.1714C106.387 16.6251 105.82 16.2572 105.169 16.2572Z" fill="white"/>
<path d="M118.91 9.97785V16.6558L118.907 16.653C118.907 19.7383 120.802 20.9897 123.662 20.9897C124.46 20.9897 125.229 20.8838 125.863 20.7249V17.8793H124.737C123.253 17.8793 122.922 17.1602 122.922 16.0956V9.97785H125.753V7.79554C125.753 7.33846 125.37 6.97056 124.901 6.97056H122.922V3.40585H120.54C119.639 3.40585 118.91 4.11099 118.91 4.98335V6.97056H116.491V9.15287C116.491 9.60995 116.874 9.97785 117.343 9.97785H118.91Z" fill="white"/>
<path d="M142.073 12.9489C142.073 10.8474 143.228 9.91653 144.656 9.91653C146.114 9.91653 147.021 10.8474 147.021 12.9489V20.7974H151.036V12.018C151.036 8.42543 149 6.69742 146.307 6.69742C143.614 6.69742 142.044 8.58708 141.77 9.86358C141.108 7.73423 139.432 6.69742 137.453 6.69742C134.95 6.69742 133.493 8.55921 133.274 9.86358H133.11V8.61495C133.11 7.70357 132.346 6.96499 131.404 6.96499H129.095V20.7974H133.11V12.9489C133.11 10.8474 134.236 9.91653 135.693 9.91653C137.15 9.91653 138.058 10.8474 138.058 12.9489V20.7974H142.073V12.9489Z" fill="white"/>
<path fill-rule="evenodd" clip-rule="evenodd" d="M160.382 6.69742C156.59 6.69742 153.209 8.69227 153.208 13.8519C153.209 19.1175 156.783 21.0594 160.411 21.0594C163.738 21.0594 166.266 19.4373 166.981 16.2711H164.481C163.925 16.2711 163.404 16.5415 163.11 16.9986C162.666 17.6926 161.868 18.1078 160.466 18.1078C158.487 18.1078 157.249 17.1769 157.03 14.8636H167.09C167.145 14.571 167.174 14.3034 167.174 13.799C167.174 8.55921 164.175 6.69742 160.382 6.69742ZM160.27 9.65176C162.47 9.65176 163.323 10.9812 163.378 12.5782H157.027C157.3 10.6635 158.401 9.65176 160.27 9.65176Z" fill="white"/>
<path d="M173.358 12.9489C173.358 10.8474 174.677 9.91653 176.353 9.91653C178.029 9.91653 178.991 10.8474 178.991 12.9489V20.7974H183.006V12.018C183.006 8.42543 180.861 6.69742 178.084 6.69742C175.143 6.69742 173.769 8.55921 173.522 9.86358H173.358V8.61495C173.358 7.70357 172.594 6.96499 171.652 6.96499H169.343V20.7974H173.358V12.9489Z" fill="white"/>
<path d="M187.047 9.96949V16.6474L187.044 16.6446C187.044 19.7299 188.939 20.9814 191.8 20.9814C192.597 20.9814 193.366 20.8754 194 20.7166V17.818C193.424 17.8709 193.176 17.8709 192.874 17.8709C191.391 17.8709 191.059 17.1519 191.059 16.0872V9.96949H193.891V7.78718C193.891 7.3301 193.507 6.9622 193.038 6.9622H191.059V3.39749H188.677C187.776 3.39749 187.047 4.10263 187.047 4.97499V6.9622H184.628V9.1445C184.628 9.60159 185.011 9.96949 185.48 9.96949H187.047Z" fill="white"/>
<path d="M50.0818 23.8326H52.9563C53.685 23.8326 54.333 24.2813 54.5692 24.9474L57.7489 33.9414H57.8872L61.0669 24.9474C61.3031 24.2813 61.9511 23.8326 62.6798 23.8326H65.5312L60.3354 37.665H55.2777L50.0818 23.8326Z" fill="white"/>
<path d="M68.7369 23.8326H66.427V37.665H70.442V25.4825C70.442 24.5711 69.6787 23.8326 68.7369 23.8326Z" fill="white"/>
<path d="M74.817 33.1192C75.4392 33.1192 76.0354 33.4341 76.3205 33.9693C76.7065 34.6911 77.51 35.0367 78.6852 35.0367C80.0331 35.0367 80.9404 34.5852 80.9404 33.6014C80.9404 32.9631 80.4997 32.5646 79.5665 32.3778L76.9282 31.8455C73.9328 31.1794 72.8585 29.6381 72.8585 27.8014C72.8585 25.1146 75.2491 23.5706 78.714 23.5706C82.536 23.5706 84.5406 25.3794 84.5982 28.3588H82.4381C81.8188 28.3588 81.2716 28.0104 80.9807 27.4809C80.5832 26.7562 79.7998 26.472 78.7687 26.472C77.3948 26.472 76.7612 26.9513 76.7612 27.6955C76.7612 28.3867 77.2825 28.8382 78.2445 29.0249L80.9375 29.5824C83.1927 30.0617 85.0619 31.0735 85.0619 33.5205C85.0619 36.6059 82.1212 37.9353 78.6564 37.9353C74.8343 37.9353 72.4985 36.3132 72.4697 33.1192H74.817Z" fill="white"/>
<path fill-rule="evenodd" clip-rule="evenodd" d="M91.6374 29.928C89.1633 30.2736 86.5798 30.9369 86.5798 33.9971V33.9999C86.5798 36.8484 88.835 37.9381 91.1708 37.9381C94.3045 37.9381 95.4595 35.9676 95.7331 35.2235H95.8973V36.0206C95.8973 36.932 96.6605 37.6705 97.6024 37.6705H99.7193V28.0662C99.7193 25.0617 98.1237 23.5706 93.6709 23.5706C89.2181 23.5706 87.3488 25.1118 87.3488 27.8265V28.4647L91.1161 28.4397C91.1161 26.5974 92.3258 26.3633 93.5614 26.3633C94.797 26.3633 95.7878 26.7618 95.7878 28.225V28.4118C95.7878 29.1838 95.376 29.3956 94.0568 29.5824L91.6374 29.928ZM95.7878 32.8516C95.7878 33.9414 94.4428 35.1649 92.5447 35.1649L92.5418 35.1677C91.1651 35.1677 90.589 34.5267 90.589 33.6766C90.589 32.9575 91.0009 32.3723 92.2394 32.1855L94.2469 31.8399L94.3045 31.8303C94.9217 31.7274 95.5755 31.6184 95.7878 31.3076V32.8516Z" fill="white"/>
</g>
</svg>
