<svg xmlns="http://www.w3.org/2000/svg" xmlns:xlink="http://www.w3.org/1999/xlink" width="56.116" height="68" viewBox="0 0 56.116 68"><defs><clipPath id="a"><rect width="56.116" height="68" fill="none"/></clipPath></defs><g clip-path="url(#a)"><path d="M7.877,52.577,14.562,45.5a9.56,9.56,0,0,1,6.95-3h5.012c1.286,0,14.635.738,14.635.738,1.5.136,1.5,1.217,1.5,1.861v0A2.364,2.364,0,0,1,40.5,47.419l-10.593.773c-1.5-.051-1.578,1.6-.127,1.654l9.594.611c2.449.258,4.955-1.238,6.7-2.977.016-.017.032-.033.047-.05l6.709-7.618a1.88,1.88,0,0,1,2.327-.4A1.857,1.857,0,0,1,55.843,42l-4.811,7.873a16.386,16.386,0,0,1-10.354,7.435l-.07.013L25.837,59.644c-2.287.564-6.625-.474-13.322,5.752L10.3,67.353a2.583,2.583,0,0,1-3.558-.131L.67,61a.623.623,0,0,0-.086-.074,1.734,1.734,0,0,1-.011-2.586L4.8,55.33a24.707,24.707,0,0,0,3.076-2.753M45.55,40.056h1.926a.692.692,0,0,0,.691-.692V37.175a.7.7,0,0,1,.554-.675c3.53-.813,5.456-3.275,5.456-6.135,0-3.038-1.62-4.9-5.639-6.314-2.87-1.08-4.051-1.789-4.051-2.9,0-.945.709-1.891,2.9-1.891a10.467,10.467,0,0,1,4.129.834.691.691,0,0,0,.934-.467l.633-2.468a.69.69,0,0,0-.4-.812,12.212,12.212,0,0,0-3.7-.828.7.7,0,0,1-.649-.689V13.2a.691.691,0,0,0-.691-.691H45.718a.691.691,0,0,0-.691.691v1.966a.7.7,0,0,1-.539.671c-3.281.827-5.168,3.07-5.168,5.89,0,3.275,2.465,4.963,6.078,6.179,2.5.844,3.579,1.654,3.579,2.937,0,1.351-1.317,2.093-3.241,2.093a11.748,11.748,0,0,1-4.858-1.109.689.689,0,0,0-.959.453l-.664,2.587a.69.69,0,0,0,.372.8,14.1,14.1,0,0,0,4.586,1.145.7.7,0,0,1,.645.689v1.869a.692.692,0,0,0,.691.692M36.091,16.24h1.136a.408.408,0,0,0,.407-.407V14.542a.411.411,0,0,1,.326-.4,3.741,3.741,0,0,0,3.216-3.616c0-1.791-.956-2.885-3.324-3.721C36.161,6.17,35.465,5.752,35.465,5.1c0-.557.418-1.115,1.712-1.115a6.175,6.175,0,0,1,2.433.491A.407.407,0,0,0,40.16,4.2l.374-1.455a.406.406,0,0,0-.238-.478,7.2,7.2,0,0,0-2.18-.489.41.41,0,0,1-.383-.407V.407A.407.407,0,0,0,37.326,0H36.191a.407.407,0,0,0-.407.407V1.566a.412.412,0,0,1-.318.4,3.6,3.6,0,0,0-3.046,3.471c0,1.931,1.453,2.926,3.583,3.643,1.474.5,2.11.975,2.11,1.731,0,.8-.776,1.235-1.91,1.235a6.931,6.931,0,0,1-2.864-.654.406.406,0,0,0-.566.267l-.391,1.525a.407.407,0,0,0,.219.471,8.333,8.333,0,0,0,2.7.674.41.41,0,0,1,.38.406v1.1a.408.408,0,0,0,.408.407M28.047,38.765h1.522a.547.547,0,0,0,.547-.546V36.488a.552.552,0,0,1,.438-.533c2.791-.644,4.312-2.589,4.312-4.849,0-2.4-1.281-3.869-4.457-4.99-2.268-.854-3.2-1.414-3.2-2.3,0-.747.56-1.494,2.3-1.494a8.288,8.288,0,0,1,3.263.659.546.546,0,0,0,.739-.369l.5-1.951a.545.545,0,0,0-.318-.642,9.651,9.651,0,0,0-2.924-.654.552.552,0,0,1-.513-.545V17.536a.546.546,0,0,0-.546-.547H28.18a.546.546,0,0,0-.546.547v1.553a.552.552,0,0,1-.426.53c-2.593.654-4.085,2.426-4.085,4.656,0,2.588,1.948,3.923,4.8,4.884,1.976.666,2.83,1.307,2.83,2.321,0,1.068-1.041,1.655-2.562,1.655a9.286,9.286,0,0,1-3.84-.877.544.544,0,0,0-.758.358l-.524,2.045a.545.545,0,0,0,.293.631,11.141,11.141,0,0,0,3.625.9.55.55,0,0,1,.51.545v1.478a.547.547,0,0,0,.546.546" transform="translate(0 0)" fill="#6a257a"/></g></svg>