<svg xmlns="http://www.w3.org/2000/svg" xmlns:xlink="http://www.w3.org/1999/xlink" width="83.745" height="69" viewBox="0 0 83.745 69"><defs><clipPath id="a"><rect width="83.745" height="69" fill="none"/></clipPath></defs><g clip-path="url(#a)"><path d="M82.925,42.379l-13.508.6a.948.948,0,0,1-1-.914c-.013-.465-.033-1-.062-1.359a.873.873,0,0,1,.928-.947l13.641.888a.866.866,0,0,1,0,1.73M64.206,27.7q.48.687.917,1.4a.879.879,0,0,0,1.237.285l11.426-7.564a.869.869,0,0,0-.876-1.5L64.526,26.42a.864.864,0,0,0-.32,1.279m4.58,7.544,2.683-.913a.867.867,0,0,0-.461-1.669l-2.793.569a.869.869,0,0,0-.648,1.134c.035.1.068.206.1.309a.878.878,0,0,0,1.118.569M60.036,21.71a.862.862,0,0,0,.009,1.3q.154.137.3.275a.88.88,0,0,0,1.259-.056l2.3-2.613A.871.871,0,0,0,62.665,19.4ZM41.869,19.245A23.64,23.64,0,0,0,18.4,42.459a1.334,1.334,0,0,0,1.335,1.351s16.6,1.012,22.134,1.014c5.671,0,22.661-1.014,22.661-1.014a1.311,1.311,0,0,0,1.317-1.318A23.646,23.646,0,0,0,41.869,19.245m12.082-.329q.79.386,1.55.823a.879.879,0,0,0,1.23-.358L63.063,6.655a.873.873,0,0,0-1.514-.862L53.6,17.657a.863.863,0,0,0,.355,1.259M16.561,34.708a.869.869,0,0,0-.66-1.124l-3.3-.638a.867.867,0,0,0-.444,1.674l3.174,1.044a.877.877,0,0,0,1.114-.585c.037-.125.075-.248.115-.371M.821,42.379l13.508.6a.948.948,0,0,0,1-.914c.013-.465.033-1,.062-1.359a.872.872,0,0,0-.927-.947L.818,40.649a.866.866,0,0,0,0,1.73m26.2-22.707a.879.879,0,0,0,1.244.345q.764-.459,1.56-.868A.862.862,0,0,0,30.16,17.9L22.033,5.855a.873.873,0,0,0-1.511.867Zm21.13-2.813q.227.053.452.109A.875.875,0,0,0,49.68,16.3l.753-3.818a.875.875,0,0,0-1.689-.439l-1.242,3.7a.867.867,0,0,0,.645,1.116m-42.3,5.077,11.839,7.785a.879.879,0,0,0,1.241-.3q.44-.749.926-1.466a.863.863,0,0,0-.329-1.269l-12.8-6.251a.869.869,0,0,0-.872,1.5m16.3,1.758a.881.881,0,0,0,1.27.035q.164-.159.331-.313a.863.863,0,0,0-.013-1.292L20.812,19.6a.871.871,0,0,0-1.229,1.229ZM40.9,16.212q.467-.025.939-.03.452,0,.9.01a.865.865,0,0,0,.882-.923L42.656.81a.876.876,0,0,0-1.747,0L40,15.291a.865.865,0,0,0,.9.921m-7.1.3a.874.874,0,0,0,1.1.653q.231-.064.465-.124a.866.866,0,0,0,.62-1.119L34.66,12.111a.875.875,0,0,0-1.685.456ZM64.175,50.745s-16.7-1-22.279-1-22.28,1-22.28,1c-1.653.076-1.657,1.87,0,1.949,0,0,16.7,1.051,22.284,1.051s22.283-1.051,22.283-1.051c1.653-.08,1.649-1.873,0-1.949m-5.492,7.747S46.1,57.5,41.9,57.5s-16.788.992-16.788.992a.963.963,0,0,0,0,1.925S37.689,61.456,41.9,61.456s16.79-1.038,16.79-1.038a.963.963,0,0,0,0-1.925M53.19,66.321s-8.466-.9-11.3-.9-11.294.9-11.294.9c-.838.068-.84,1.669,0,1.741,0,0,8.468.939,11.3.939s11.3-.939,11.3-.939c.838-.071.837-1.672,0-1.741" transform="translate(0 0)" fill="#6a257a"/></g></svg>