<svg xmlns="http://www.w3.org/2000/svg" xmlns:xlink="http://www.w3.org/1999/xlink" width="109.304" height="60" viewBox="0 0 109.304 60"><defs><clipPath id="a"><rect width="109.304" height="60" fill="none"/></clipPath></defs><g clip-path="url(#a)"><path d="M66.334,1.712a29.539,29.539,0,0,0-30.122,8.669,33.808,33.808,0,0,1-.347,39.053A29.539,29.539,0,1,0,66.334,1.712m3.405,39.209A9.435,9.435,0,0,1,65.795,44.2a12.2,12.2,0,0,1-3.141.94,1.238,1.238,0,0,1,.019.189l-.006,2.14a1.384,1.384,0,0,1-1.388,1.378l-2.8-.008A1.384,1.384,0,0,1,57.1,47.451l.006-2.14a1.353,1.353,0,0,1,.022-.215,12.036,12.036,0,0,1-2.861-.921,10.454,10.454,0,0,1-4.057-3.346A10.744,10.744,0,0,1,48.522,37.2a1.378,1.378,0,0,1,1.14-1.692l2.909-.443a1.389,1.389,0,0,1,1.5.9A6.883,6.883,0,0,0,64.112,39.1a3.2,3.2,0,0,0,1.532-2.672,2.5,2.5,0,0,0-.66-1.791,4.835,4.835,0,0,0-2.072-1.162l-7.27-2.27q-6.292-1.962-6.274-7.707a8.442,8.442,0,0,1,1.292-4.678,8.3,8.3,0,0,1,3.628-3.045,11.353,11.353,0,0,1,2.931-.842c0-.051-.014-.1-.014-.154l.006-2.14A1.382,1.382,0,0,1,58.6,11.263l2.794.008a1.385,1.385,0,0,1,1.38,1.386L62.766,14.8a1.421,1.421,0,0,1-.027.275,11.554,11.554,0,0,1,2.273.736,9.939,9.939,0,0,1,3.783,2.935,11.327,11.327,0,0,1,1.724,3.1,1.382,1.382,0,0,1-1.069,1.827l-2.983.524a1.356,1.356,0,0,1-1.5-.788,5.438,5.438,0,0,0-2.678-2.866,6.221,6.221,0,0,0-2.563-.612,6.153,6.153,0,0,0-2.445.381,4.252,4.252,0,0,0-1.742,1.191,2.614,2.614,0,0,0-.648,1.726,2.327,2.327,0,0,0,.893,1.833,7.73,7.73,0,0,0,2.858,1.327L63.83,27.88a11.849,11.849,0,0,1,5.622,3.064,7.324,7.324,0,0,1,1.713,5.1,8.577,8.577,0,0,1-1.426,4.881" transform="translate(21.553 0.338)" fill="#6a257a"/><path d="M51.156,8.73A29.945,29.945,0,0,0,9.37,8.261H9.338l0,.027c-.2.191-.413.36-.61.557A29.978,29.978,0,0,0,29.843,59.992V60c.027,0,.059,0,.088,0L30,60l.038,0v0l.038,0A30,30,0,0,0,51.156,8.73m-2.288,4.5a25,25,0,0,1,6.3,14.754l-12.595.034a74.261,74.261,0,0,0-.807-9.167,19.865,19.865,0,0,0,2.377-1.165,12.9,12.9,0,0,0,4.721-4.455m-22.922-5c1.207-2.1,2.512-3.173,3.882-3.21,2.84.131,4.788,4.892,5.494,6.959A36.874,36.874,0,0,1,36.335,15.6a31.958,31.958,0,0,1-13.036.032,27.446,27.446,0,0,1,2.648-7.408M10.869,13.522a13.077,13.077,0,0,0,4.641,4.239A19.767,19.767,0,0,0,17.9,18.9a74.692,74.692,0,0,0-.759,9.185l-12.319.034a25.031,25.031,0,0,1,6.052-14.6m0,32.954A25.156,25.156,0,0,1,4.9,32.847l12.265-.034a74.779,74.779,0,0,0,.712,8.125,14.462,14.462,0,0,0-7,5.538m3.581,3.413A7.715,7.715,0,0,1,18.541,45.8c.074-.038.158-.072.235-.109a33.541,33.541,0,0,0,2.893,8.138,25.252,25.252,0,0,1-7.214-3.943M18.8,14.141c-.322-.154-.642-.309-.94-.48a7.374,7.374,0,0,1-3.4-3.565A24.98,24.98,0,0,1,21.715,6.14a32.112,32.112,0,0,0-2.914,8m3.669,6.116a36.233,36.233,0,0,0,14.713-.032,72.316,72.316,0,0,1,.639,7.8l-15.949.043a71.188,71.188,0,0,1,.6-7.816m12.95,28.015c-.7,2.076-2.619,6.86-5.491,6.98-1.361-.05-2.658-1.106-3.865-3.181a28.367,28.367,0,0,1-2.8-7.917,30.46,30.46,0,0,1,6.634-.735,30.966,30.966,0,0,1,6.633.684,38.54,38.54,0,0,1-1.109,4.169M37.3,39.439a35.927,35.927,0,0,0-14.865.059c-.283-2.156-.458-4.414-.541-6.7l15.926-.043c-.074,2.305-.253,4.55-.52,6.682m7.95-29.592A7.3,7.3,0,0,1,41.772,13.6c-.3.173-.615.33-.935.485a31.967,31.967,0,0,0-3-8.066,25.01,25.01,0,0,1,7.414,3.831M38.118,53.92a33.3,33.3,0,0,0,2.919-8.307c2.208,1.076,3.81,2.544,4.377,4.388a24.979,24.979,0,0,1-7.3,3.919m10.92-7.339a13.291,13.291,0,0,0-5.621-5.049c-.467-.239-1.007-.423-1.513-.634a74.619,74.619,0,0,0,.674-8.154l12.539-.034a25.011,25.011,0,0,1-6.079,13.871" transform="translate(0 0)" fill="#6a257a"/></g></svg>