<svg xmlns="http://www.w3.org/2000/svg" xmlns:xlink="http://www.w3.org/1999/xlink" width="88" height="68" viewBox="0 0 88 68"><defs><clipPath id="a"><rect width="88" height="68" transform="translate(0 -10.73)" fill="none"/></clipPath></defs><g transform="translate(0 10.73)" clip-path="url(#a)"><path d="M23.737-.779,17.72.579,14,5.719a1.54,1.54,0,0,1-.906.6l-1.816.41a.429.429,0,0,1-.469-.6l1.844-4.412-4.109.928A3.366,3.366,0,0,1,4.648.418L3.03-4.15A.491.491,0,0,1,3.368-4.8l1.9-.43a.462.462,0,0,1,.5.232l1.7,3.064a.46.46,0,0,0,.5.232l3.9-.88L9.51-4.806a.441.441,0,0,1,.19-.747l1.816-.41a1.486,1.486,0,0,1,1.065.16l3.867,2.2L20.4-4.5a4.322,4.322,0,0,1,3.867,1.036l.107.1a1.517,1.517,0,0,1-.635,2.589m20.848,29.6c2.456,1.73,11.32-1.146,19.3-4.665a1.332,1.332,0,0,0,.163-2.313,39.407,39.407,0,0,0-13.364-5.446,1.237,1.237,0,0,0-1.334.667c-1.093,2.11-2.074,4.073-2.607,5.317a8.332,8.332,0,0,1-2.848,3.7,1.328,1.328,0,0,0-.174,2.006,5.991,5.991,0,0,0,.86.738M30.926,44.25c-2.869-1.495-7.647-.057-11.377,1.279a.725.725,0,0,0-.4.356c-.8,1.569-1.485,2.976-1.9,3.944-1.183,2.757-3.118,4.433-5.308,4.6l-.085.007-.127.009-.128,0-.593-.023c-.109.008-.219.011-.327.011-2.282,0-4.269-1.535-5.327-4.108l-.729-1.64a.751.751,0,0,0-1.431.169,44.607,44.607,0,0,0-.917,7.673.716.716,0,0,0,.7.75H30.771a.689.689,0,0,0,.585-.33c1.8-2.9,2.9-6.247,1.9-9.573a4.837,4.837,0,0,0-2.331-3.117m29.708,10c-5.418-2.377-10.71-1.611-13.533-3.891a3.639,3.639,0,0,1-1.532-3.625c.354-1.809,2.074-4.242,12.316-7.029,2.366-.644,5.162-1.449,8.008-2.288a1.362,1.362,0,0,0,.818-1.863l-.773-1.735-.016-.039-.017-.039a2.989,2.989,0,0,1,.185-2.616,2.561,2.561,0,0,1,2-1.285l3.58-.27c.127-.009.253-.014.378-.014a5.023,5.023,0,0,1,.969.1,42.219,42.219,0,0,0-3.221-3.34,1.251,1.251,0,0,0-1.4-.213c-5.567,2.655-15.275,6.806-21.551,6.807a7.312,7.312,0,0,1-4.224-1.05,11.351,11.351,0,0,1-3.664-4.6,1.387,1.387,0,0,0-.73-.692,6.568,6.568,0,0,1-3.374-3.7l-2.12-4.759a1.276,1.276,0,0,0-1.531-.732A40.817,40.817,0,0,0,9.19,34.323a1.419,1.419,0,0,0,.387,1.929A6.685,6.685,0,0,1,11.6,38.417a1.257,1.257,0,0,0,2.13.016l2.956-4.361.034-.048.035-.048a8.486,8.486,0,0,1,6.069-3.61l.1-.007H23A2.515,2.515,0,0,1,25.083,31.5a2.968,2.968,0,0,1,.323,2.616l-.07.2-.1.187c-.024.043-.912,1.649-2.1,3.848a1.318,1.318,0,0,0,1.331,1.964c2.828-.538,5.691-.567,8.03.653a8.381,8.381,0,0,1,4.111,5.3,13.819,13.819,0,0,1-.527,9.131,1.343,1.343,0,0,0,1.179,1.874H63.433a.033.033,0,0,0,.024-.055l-2-2.338a2.337,2.337,0,0,0-.826-.624m16.656-5.619-.084.007-.128.009-.127,0-.593-.023c-.11.008-.219.011-.328.011-2.28,0-4.268-1.535-5.325-4.108l-.783-1.759A2.948,2.948,0,0,0,66.4,41.08c-2.715.8-5.368,1.56-7.633,2.177-7.35,2-9.22,3.585-9.654,4.09.035.033.078.071.131.114.772.624,2.693.942,4.552,1.249,3.473.573,7.794,1.288,10.847,4.477A44.589,44.589,0,0,1,67.7,56.772c.135.174.264.337.391.5H82.365a1.035,1.035,0,0,0,1.011-1.091,44.1,44.1,0,0,0-1.2-8.543.988.988,0,0,0-1.645-.529,5.275,5.275,0,0,1-3.243,1.527M23,32.8H22.99a6.209,6.209,0,0,0-4.4,2.684l-6.918,10.2L10.336,41.58C9.833,39.307,8.366,37.8,6.7,37.8c-.069,0-.14,0-.209.007l-3.581.271c-.177.013-.286.292-.2.509L7.5,49.323c.669,1.653,1.85,2.66,3.189,2.66.067,0,.134,0,.2-.008l.085-.007.717.028.085-.006c1.42-.108,2.592-1.409,3.343-3.161,1.77-4.126,8.089-15.548,8.089-15.548.078-.224-.033-.478-.2-.478M52.5,5.351h-.013a6.211,6.211,0,0,0-4.4,2.684l-6.917,10.2-1.338-4.109c-.5-2.273-1.97-3.785-3.637-3.785-.069,0-.139,0-.209.008l-3.58.271c-.178.013-.286.292-.2.509l4.783,10.739c.67,1.653,1.851,2.66,3.189,2.66.067,0,.135,0,.2-.008l.084-.007.718.028.085-.006c1.42-.108,2.592-1.409,3.343-3.161C46.382,17.252,52.7,5.83,52.7,5.83c.078-.224-.033-.478-.2-.478M88.351,27.009h-.013a6.211,6.211,0,0,0-4.4,2.684L77.021,39.9l-1.338-4.109C75.18,33.514,73.713,32,72.048,32c-.069,0-.14,0-.209.008l-3.581.27c-.177.013-.286.292-.2.509L72.843,43.53c.67,1.655,1.851,2.66,3.189,2.66.067,0,.135,0,.2-.008l.085-.006.717.026.085-.006c1.42-.108,2.592-1.409,3.343-3.161,1.77-4.126,8.089-15.548,8.089-15.548.077-.224-.033-.478-.2-.478" transform="translate(0 0)" fill="#6a257a"/></g></svg>