<svg xmlns="http://www.w3.org/2000/svg" xmlns:xlink="http://www.w3.org/1999/xlink" width="77.184" height="68" viewBox="0 0 77.184 68"><defs><clipPath id="a"><rect width="77.183" height="68" transform="translate(0 -3)" fill="none"/></clipPath></defs><g transform="translate(0 3)" clip-path="url(#a)"><path d="M77.182,31.047a1.089,1.089,0,0,1-1.115,1.076H73.809a1.089,1.089,0,0,1-1.115-1.076c.075-4.172.584-7.692,1.292-9.389a1.351,1.351,0,0,1,.174-2.292V13.415c-.046.015-.079.043-.127.055L59.984,16.995V28.024c0,3.117-10.1,5.642-22.551,5.642S14.882,31.14,14.882,28.024V16.782l-13.2-3.312a2.13,2.13,0,0,1-.031-4.16L35.667.285a8.55,8.55,0,0,1,4.383,0L74.063,9.309a2.1,2.1,0,0,1,1.613,1.816h.041v8.24a1.351,1.351,0,0,1,.174,2.292c.708,1.7,1.217,5.217,1.292,9.389M55.328,50.852a4.3,4.3,0,0,0,.823-3.35,4.443,4.443,0,0,0-1.9-2.924,4.747,4.747,0,0,0-1.846-.743,2.491,2.491,0,0,0-.816.007L9.651,50.489a4.3,4.3,0,1,0,1.206,8.493l42.55-6.744a1.534,1.534,0,0,0,.518-.172,4.521,4.521,0,0,0,1.4-1.214M67.053,41.5l-8.918,1.316a.389.389,0,0,0-.178.705,4.685,4.685,0,0,1,2.087,3.365,5.053,5.053,0,0,1-1.127,4.23.149.149,0,0,0,.148.236l7.988-1.171a5.384,5.384,0,0,0,4.494-5.045A3.7,3.7,0,0,0,67.053,41.5M58.5,51.482l-2.135.321-2.059.315a.432.432,0,0,0-.375.419v7.3c.005.263.126.267.307.138l1.793-1.543a.471.471,0,0,1,.5-.068l2.038.931a.275.275,0,0,0,.4-.237V51.861a.4.4,0,0,0-.465-.379" transform="translate(0 0.972)" fill="#6a257a"/></g></svg>