<svg xmlns="http://www.w3.org/2000/svg" xmlns:xlink="http://www.w3.org/1999/xlink" width="44.13" height="68" viewBox="0 0 44.13 68"><defs><clipPath id="a"><rect width="44.13" height="68" fill="none"/></clipPath></defs><g clip-path="url(#a)"><path d="M44.024,35.314s-9.511-1.138-14.674,4.025a13.541,13.541,0,0,0-3.31,6.027v-13.7a16.019,16.019,0,1,0-6.831,0V50.485a13.779,13.779,0,0,0-3.031-4.8C10.527,40.034.117,41.28.117,41.28S-1.129,51.69,4.523,57.342c4.407,4.407,11.685,4.619,14.687,4.5v4.614A1.547,1.547,0,0,0,20.756,68a5.284,5.284,0,0,0,5.284-5.284V54.072c2.282.145,9.634.24,13.956-4.084,5.166-5.163,4.027-14.674,4.027-14.674" transform="translate(0 0)" fill="#6a257a"/><path d="M22.115,24.819a8.719,8.719,0,0,1-4.724-1.237,8.234,8.234,0,0,1-3.054-3.423,10.283,10.283,0,0,1-.617-1.63H11.171V16.092h2.1c-.027-.31-.056-.618-.062-.941s.038-.613.062-.915h-2.1V11.8h2.535a10.045,10.045,0,0,1,.65-1.733A8.1,8.1,0,0,1,17.409,6.69a8.865,8.865,0,0,1,4.706-1.2,9.915,9.915,0,0,1,2.557.328,8.409,8.409,0,0,1,2.288.987L25.313,9.365a5.045,5.045,0,0,0-1.5-.722A5.949,5.949,0,0,0,22.115,8.4,5.347,5.347,0,0,0,19,9.248a5.192,5.192,0,0,0-1.857,2.379c-.022.053-.029.119-.05.173h6.268v2.436H16.587c-.025.305-.078.591-.08.915s.056.627.082.941h6.775v2.436H17.1c.022.057.03.125.052.181a5.13,5.13,0,0,0,1.876,2.36,5.338,5.338,0,0,0,3.087.824,5.284,5.284,0,0,0,3.223-.954l1.623,2.539a8.308,8.308,0,0,1-2.3,1.006,9.762,9.762,0,0,1-2.545.335" transform="translate(2.368 1.162)" fill="#fff"/></g></svg>