<svg xmlns="http://www.w3.org/2000/svg" xmlns:xlink="http://www.w3.org/1999/xlink" width="60.001" height="68" viewBox="0 0 60.001 68"><defs><clipPath id="a"><rect width="60.001" height="68" fill="none"/></clipPath></defs><g clip-path="url(#a)"><path d="M37.673,37.812c0,5.716-3.53,12.5-7.885,12.5S21.9,43.528,21.9,37.812s3.531-8.195,7.886-8.195,7.885,2.479,7.885,8.195m-1.626-20.08A1.171,1.171,0,0,0,37.218,18.9h3.46v3.459a1.172,1.172,0,0,0,1.172,1.172H43.3a1.171,1.171,0,0,0,1.171-1.172V18.9h3.46A1.171,1.171,0,0,0,49.1,17.732V16.281a1.171,1.171,0,0,0-1.171-1.172h-3.46V11.651A1.171,1.171,0,0,0,43.3,10.479H41.85a1.172,1.172,0,0,0-1.172,1.172v3.459h-3.46a1.171,1.171,0,0,0-1.171,1.172ZM58.7,29.978l.168-.069-.537-1.989a7.508,7.508,0,0,1-.155-3.6l1.611-6.863c.251-1.07-1.352-1.32-1.878-.293-1,1.951-2.041,4.009-2.891,5.735l-.836-1.272c-.253-.43-1.043-.153-1.056.37l-.194,6.989.031-.031a6.557,6.557,0,0,0,.9,2.983l.72-.292-.627.3c2.282,5.9-1.692,12.015-6.354,15.466a29.23,29.23,0,0,1-15.362,5.14c-.711-.031-1.441-.053-2.224-.053-.893,0-1.726.022-2.535.053a33.577,33.577,0,0,1-6.551-1.13C12.6,49.357,2.828,41.39,6.038,31.949l-.627-.3.72.292a6.557,6.557,0,0,0,.9-2.983l.031.031L6.872,22c-.012-.523-.8-.8-1.056-.37L4.98,22.9c-.849-1.727-1.892-3.784-2.891-5.735-.526-1.027-2.129-.777-1.878.293l1.611,6.863a7.508,7.508,0,0,1-.155,3.6L1.13,29.909l.168.069C-1.99,38.051,1.287,47.392,7.569,53.06A37.55,37.55,0,0,0,17.5,59.627l1.584,6.794A1.579,1.579,0,0,0,20.664,68H38.3a1.579,1.579,0,0,0,1.579-1.58l2.128-6.6a36.972,36.972,0,0,0,10.427-6.766c6.284-5.667,9.558-15.005,6.271-23.081M29.458,11.5a1.017,1.017,0,0,0,1.394,0c1.882-1.769,6.818-6.816,5.2-9.726C34.422-1.172,31.671.276,30.6,1a.789.789,0,0,1-.888,0c-1.07-.727-3.82-2.175-5.455.773-1.613,2.91,3.318,7.957,5.2,9.725m-16.6,8.1,1.167.037a6.736,6.736,0,0,0,.373,1.007,5.571,5.571,0,0,0,2,2.334,5.9,5.9,0,0,0,3.129.918,6.5,6.5,0,0,0,1.752-.18,5.692,5.692,0,0,0,1.046-.363.577.577,0,0,0,.245-.821l-.552-.925a.589.589,0,0,0-.766-.218,3.384,3.384,0,0,1-1.656.311,3.288,3.288,0,0,1-1.922-.572,3.2,3.2,0,0,1-1.08-1.412l3.339.106a.582.582,0,0,0,.6-.562l.02-.64a.58.58,0,0,0-.562-.6L16.2,17.9c-.01-.179-.015-.361-.011-.55s.025-.358.045-.531l3.782.119a.581.581,0,0,0,.6-.562l.02-.64a.58.58,0,0,0-.562-.6l-3.349-.106a3.221,3.221,0,0,1,1.156-1.35,3.375,3.375,0,0,1,1.977-.474,3.778,3.778,0,0,1,1.105.2,3.2,3.2,0,0,1,.512.225.591.591,0,0,0,.781-.166l.62-.9a.577.577,0,0,0-.194-.836,5.7,5.7,0,0,0-1-.414,6.607,6.607,0,0,0-1.755-.287,6,6,0,0,0-3.181.7,5.463,5.463,0,0,0-2.137,2.182,6.454,6.454,0,0,0-.455,1.036L13,14.918a.58.58,0,0,0-.6.562l-.02.64a.579.579,0,0,0,.561.6l.819.026c-.019.174-.034.35-.044.531s0,.369.012.55l-.822-.026a.58.58,0,0,0-.6.562l-.021.64a.581.581,0,0,0,.562.6" transform="translate(0 0)" fill="#6a257a"/></g></svg>