<svg xmlns="http://www.w3.org/2000/svg" xmlns:xlink="http://www.w3.org/1999/xlink" width="74.365" height="68" viewBox="0 0 74.365 68"><defs><clipPath id="a"><rect width="74.366" height="68" fill="none"/></clipPath></defs><g clip-path="url(#a)"><path d="M74.332,30.175C70.851,16.556,56.819,6.189,39.691,5.257V2.518a2.518,2.518,0,1,0-5.037,0V5.257C17.554,6.191,3.542,16.526.033,30.111a1,1,0,0,0,1.578,1.051,16.574,16.574,0,0,1,9.8-2.911c6.033,0,11.106,2.677,12.573,6.305a1,1,0,0,0,1.688.311,13.779,13.779,0,0,1,8.978-4.588V57.893a10.515,10.515,0,0,0,2.6,7.281A9.6,9.6,0,0,0,44.555,68,9.629,9.629,0,0,0,51.8,65.2a11.148,11.148,0,0,0,2.8-7.64,2.518,2.518,0,0,0-5.034.171,6.233,6.233,0,0,1-1.417,3.994,4.767,4.767,0,0,1-3.6,1.236,4.767,4.767,0,0,1-3.618-1.223,5.609,5.609,0,0,1-1.25-3.642c0-.049.005-.1.005-.147V30.3A14.141,14.141,0,0,1,48.6,34.924a1,1,0,0,0,1.684-.325c1.444-3.651,6.534-6.348,12.591-6.348a16.5,16.5,0,0,1,9.868,2.965,1.007,1.007,0,0,0,1.591-1.041" transform="translate(0 0)" fill="#6a257a"/></g></svg>