<svg xmlns="http://www.w3.org/2000/svg" width="235" height="48.828" viewBox="0 0 235 48.828">
  <g id="Logo_IV" data-name="Logo IV" transform="translate(60.256 1.34)">
    <path id="Path_94020" data-name="Path 94020" d="M84.515,1.82A2.68,2.68,0,1,1,81.85,4.514,2.7,2.7,0,0,1,84.515,1.82ZM82.086,9.211h2.8a2.07,2.07,0,0,1,2.069,2.069V26.532H82.093V9.211Zm16.813,3.7c-2.032,0-3.629,1.163-3.629,3.8v9.82H90.411V9.211h2.8a2.07,2.07,0,0,1,2.069,2.069v1.568h.2c.3-1.634,1.965-3.96,5.528-3.96,3.364,0,5.963,2.164,5.963,6.662V26.54h-4.859v-9.82c0-2.628-1.163-3.8-3.195-3.8Zm9.688-3.7h3.482a2.052,2.052,0,0,1,1.951,1.4l3.85,11.256h.169l3.85-11.256a2.068,2.068,0,0,1,1.951-1.4h3.452L121,26.525h-6.125L108.579,9.211ZM127.6,17.838c0-6.463,4.093-8.959,8.694-8.959s8.223,2.334,8.223,8.893a6.753,6.753,0,0,1-.1,1.332h-12.19c.265,2.9,1.767,4.063,4.159,4.063,1.671,0,2.635-.508,3.18-1.347a2.009,2.009,0,0,1,1.686-.95h3.026c-.869,3.96-3.931,5.992-7.958,5.992-4.395,0-8.723-2.429-8.723-9.025Zm12.323-1.6a3.436,3.436,0,0,0-3.762-3.666c-2.267,0-3.6,1.266-3.931,3.666Zm6.228,4.593h2.834a2.045,2.045,0,0,1,1.826,1.06c.471.905,1.443,1.332,2.864,1.332,1.634,0,2.731-.567,2.731-1.8,0-.8-.53-1.3-1.664-1.531l-3.195-.663c-3.629-.832-4.925-2.761-4.925-5.065,0-3.364,2.9-5.293,7.1-5.293,4.63,0,7.06,2.267,7.126,5.992h-2.613a2.011,2.011,0,0,1-1.767-1.1,2.75,2.75,0,0,0-2.68-1.266c-1.664,0-2.429.6-2.429,1.531,0,.869.633,1.435,1.8,1.664l3.261.7c2.731.6,5,1.862,5,4.925,0,3.865-3.563,5.528-7.759,5.528-4.63,0-7.457-2.032-7.494-6.029Zm19.478.5V12.98h-1.9a1.034,1.034,0,0,1-1.031-1.031V9.218h2.93v-2.4A2.07,2.07,0,0,1,167.7,4.75h2.8V9.211h2.4a1.034,1.034,0,0,1,1.031,1.031v2.731H170.5v7.656c0,1.332.4,2.23,2.2,2.23h1.362v3.563a10.856,10.856,0,0,1-2.665.331c-3.46,0-5.764-1.568-5.764-5.425ZM196.82,12.9c-1.73,0-3.129,1.163-3.129,3.8v9.82h-4.859V16.7c0-2.628-1.1-3.8-2.864-3.8s-3.129,1.163-3.129,3.8v9.82h-4.859V9.2h2.8a2.07,2.07,0,0,1,2.069,2.069v1.568h.2a5.1,5.1,0,0,1,5.065-3.96,5.209,5.209,0,0,1,5.227,3.96,5.539,5.539,0,0,1,5.492-3.96c3.261,0,5.727,2.164,5.727,6.662V26.525H199.7V16.7c0-2.628-1.1-3.8-2.864-3.8Zm10.357,4.925c0-6.463,4.093-8.959,8.694-8.959s8.223,2.334,8.223,8.893a6.753,6.753,0,0,1-.1,1.332H211.8c.265,2.9,1.767,4.063,4.159,4.063,1.671,0,2.635-.508,3.18-1.347a2.009,2.009,0,0,1,1.686-.95h3.026c-.869,3.96-3.931,5.992-7.958,5.992-4.395,0-8.723-2.429-8.723-9.025Zm12.323-1.6a3.436,3.436,0,0,0-3.762-3.666c-2.267,0-3.6,1.266-3.931,3.666H219.5ZM235.217,12.9c-2.032,0-3.629,1.163-3.629,3.8v9.82h-4.859V9.2h2.8a2.07,2.07,0,0,1,2.069,2.069v1.568h.2c.3-1.634,1.966-3.96,5.528-3.96,3.364,0,5.963,2.164,5.963,6.662V26.525h-4.858V16.7c0-2.628-1.163-3.8-3.195-3.8Zm12.956,8.421V12.965h-1.9a1.034,1.034,0,0,1-1.031-1.031V9.2h2.93V4.742h4.859V9.2h2.4a1.034,1.034,0,0,1,1.031,1.031v2.731h-3.43v7.656c0,1.332.4,2.23,2.2,2.23a11.966,11.966,0,0,0,1.362-.066v3.629a10.856,10.856,0,0,1-2.665.331c-3.46,0-5.764-1.568-5.764-5.425Z" transform="translate(-81.85 -1.82)" fill="#b08bb9"/>
    <g id="Group_66094" data-name="Group 66094" transform="translate(0.398 28.15)">
      <path id="Path_94021" data-name="Path 94021" d="M82.4,40.53h3.482a2.052,2.052,0,0,1,1.951,1.4l3.85,11.256h.169L95.7,41.929a2.068,2.068,0,0,1,1.951-1.4H101.1L94.809,57.844H88.684L82.39,40.53Z" transform="translate(-82.39 -40.184)" fill="#6a257a"/>
      <path id="Path_94022" data-name="Path 94022" d="M109.3,40.53h2.8a2.07,2.07,0,0,1,2.069,2.069V57.851h-4.859V40.537Z" transform="translate(-89.491 -40.184)" fill="#6a257a"/>
      <path id="Path_94023" data-name="Path 94023" d="M119.25,52.025h2.834a2.045,2.045,0,0,1,1.826,1.06c.471.905,1.443,1.332,2.864,1.332,1.634,0,2.731-.567,2.731-1.8,0-.8-.53-1.3-1.664-1.531l-3.195-.663c-3.629-.832-4.925-2.761-4.925-5.065,0-3.364,2.9-5.293,7.1-5.293,4.63,0,7.06,2.267,7.126,5.992H131.33a2.011,2.011,0,0,1-1.767-1.1,2.75,2.75,0,0,0-2.68-1.266c-1.664,0-2.429.6-2.429,1.531,0,.869.633,1.435,1.8,1.664l3.261.7c2.731.6,5,1.862,5,4.925,0,3.865-3.563,5.528-7.759,5.528-4.63,0-7.457-2.032-7.494-6.029Z" transform="translate(-92.116 -40.063)" fill="#6a257a"/>
      <path id="Path_94024" data-name="Path 94024" d="M142.457,53.126c0-3.828,3.129-4.66,6.125-5.094l2.93-.434c1.6-.236,2.1-.5,2.1-1.465V45.9c0-1.833-1.2-2.334-2.694-2.334s-2.967.294-2.967,2.6l-4.564.029v-.8c0-3.394,2.267-5.33,7.656-5.33s7.325,1.862,7.325,5.624V57.705H155.8a2.07,2.07,0,0,1-2.069-2.069v-1h-.2c-.331.935-1.73,3.394-5.528,3.394-2.827,0-5.558-1.362-5.558-4.925Zm7.229,1.465c2.3,0,3.931-1.531,3.931-2.9V49.762c-.265.4-1.1.53-1.862.663l-2.429.434c-1.5.236-1.995.964-1.995,1.862,0,1.067.7,1.862,2.363,1.862Z" transform="translate(-98.238 -40.06)" fill="#6a257a"/>
    </g>
    <path id="Path_94019" data-name="Path 94019" d="M34.266,20.825l15.032.486a.3.3,0,0,1,.25.449l-2.142,3.71a8.594,8.594,0,0,1-7.722,4.292l-6.036-.191L36.835,34.7a8.589,8.589,0,0,1,.14,8.834l-2.142,3.71a.3.3,0,0,1-.515.007L26.382,34.481a4.914,4.914,0,0,1-.081-5.05l3.5-6.051h0l.052-.1a4.906,4.906,0,0,1,4.409-2.451Zm5.985-6.235a.931.931,0,0,0,.8,1.4L46.39,16a.932.932,0,0,0,.81-1.391L44.543,9.975a.926.926,0,0,0-1.6,0l-2.68,4.616Zm2.334,23a2.482,2.482,0,1,0-.9-3.394A2.48,2.48,0,0,0,42.585,37.595ZM23.195,34.5a4.914,4.914,0,0,0,.081-5.05l-.052-.1h0l-3.5-6.051a4.906,4.906,0,0,0-4.409-2.451L.286,21.326a.3.3,0,0,0-.25.449l2.142,3.71A8.594,8.594,0,0,0,9.9,29.777l6.036-.191-3.187,5.131a8.589,8.589,0,0,0-.14,8.834l2.142,3.71a.3.3,0,0,0,.515.007L23.2,34.5Zm5.065,12.934L25.6,42.806a.93.93,0,0,0-1.612,0l-2.68,4.616a.926.926,0,0,0,.8,1.391l5.344.015a.932.932,0,0,0,.81-1.391ZM7.905,34.245a2.481,2.481,0,1,0-.92,3.386A2.49,2.49,0,0,0,7.905,34.245ZM9.8,4.822l7.1,13.258a4.9,4.9,0,0,0,4.328,2.591h7.1a4.9,4.9,0,0,0,4.328-2.591l7.1-13.258a.3.3,0,0,0-.265-.442H35.2a8.594,8.594,0,0,0-7.582,4.542L24.77,14.244,21.921,8.922A8.594,8.594,0,0,0,14.339,4.38H10.055a.3.3,0,0,0-.265.442ZM9.3,14.62,6.646,9.989a.926.926,0,0,0-1.6,0L2.355,14.612A.926.926,0,0,0,3.157,16l5.337.015a.932.932,0,0,0,.81-1.391ZM22.289,2.473A2.481,2.481,0,1,0,24.777,0a2.482,2.482,0,0,0-2.488,2.473Z" transform="translate(-60.252 -1.34)" fill="#6a257a"/>
  </g>
</svg>
