<svg xmlns="http://www.w3.org/2000/svg" width="96.198" height="109.998" viewBox="0 0 96.198 109.998"><g transform="translate(-0.001 -0.002)"><path d="M96.2,76.454a1.39,1.39,0,0,1-1.389,1.406H91.992A1.39,1.39,0,0,1,90.6,76.454C90.7,71,91.332,66.4,92.213,64.178a1.814,1.814,0,0,1,.217-3V53.4c-.059.018-.1.055-.158.07L74.763,58.082V72.5c0,4.074-12.585,7.376-28.109,7.376s-28.107-3.3-28.107-7.376V57.8L2.1,53.471a2.817,2.817,0,0,1-.039-5.439l42.392-11.8a10.162,10.162,0,0,1,5.463,0l42.394,11.8a2.714,2.714,0,0,1,2.009,2.375h.052V61.18a1.813,1.813,0,0,1,.215,3C95.47,66.4,96.1,71,96.2,76.454" transform="translate(0 30.121)" fill="#c3922e"/><path d="M69.73,8.861C61.574-5.849,47.851,1.378,42.517,5a3.94,3.94,0,0,1-4.431,0C32.753,1.378,19.031-5.849,10.876,8.861,2.827,23.376,27.428,48.557,36.81,57.38a5.072,5.072,0,0,0,6.955,0c9.387-8.822,34.013-34,25.965-48.521M53.535,29.6a2.375,2.375,0,0,1-2.375,2.375H44.148v7.012a2.375,2.375,0,0,1-2.375,2.375h-2.94a2.375,2.375,0,0,1-2.375-2.375V31.972H29.443A2.375,2.375,0,0,1,27.069,29.6v-2.94a2.375,2.375,0,0,1,2.374-2.375h7.014V17.269a2.375,2.375,0,0,1,2.375-2.375h2.94a2.375,2.375,0,0,1,2.375,2.375v7.012H51.16a2.375,2.375,0,0,1,2.375,2.375Z" transform="translate(7.797 0.001)" fill="#c3922e"/></g></svg>