<svg xmlns="http://www.w3.org/2000/svg" width="87.415" height="90.162" viewBox="0 0 87.415 90.162"><g transform="translate(0 0)"><path d="M33.437,30.017a8.207,8.207,0,0,0-3.273.51,5.682,5.682,0,0,0-2.332,1.595,3.5,3.5,0,0,0-.869,2.312,3.121,3.121,0,0,0,1.2,2.453,10.319,10.319,0,0,0,3.828,1.778l3.431.984,2.1-8.4c-.011-.026-.018-.046-.03-.073a8.153,8.153,0,0,0-4.05-1.156" transform="translate(6.242 6.948)" fill="#c3922e"/><path d="M48.878,46.949h0a12.16,12.16,0,0,1,3.829,2.685A9.812,9.812,0,0,1,55,56.458,11.471,11.471,0,0,1,53.09,63a12.63,12.63,0,0,1-5.283,4.393,16.408,16.408,0,0,1-4.2,1.257,1.9,1.9,0,0,1,.025.252l-.01,2.867a1.851,1.851,0,0,1-1.857,1.846L38.016,73.6a1.853,1.853,0,0,1-1.846-1.858l.009-2.866a1.858,1.858,0,0,1,.031-.289,16.032,16.032,0,0,1-3.831-1.233,14.017,14.017,0,0,1-5.435-4.479,14.423,14.423,0,0,1-2.261-4.841,1.856,1.856,0,0,1,1.52-2.292l3.9-.594a1.836,1.836,0,0,1,2,1.167A8.657,8.657,0,0,0,40.417,62a8.644,8.644,0,0,0,5.139-1.436,4.289,4.289,0,0,0,2.05-3.58,3.359,3.359,0,0,0-.883-2.4,6.472,6.472,0,0,0-2.773-1.555l-9.737-3.042q-8.427-2.627-8.4-10.32a11.318,11.318,0,0,1,1.73-6.265A11.116,11.116,0,0,1,32.4,29.324,15.2,15.2,0,0,1,36.326,28.2a1.9,1.9,0,0,1-.021-.207l.01-2.866a1.852,1.852,0,0,1,1.857-1.847l3.743.012a1.852,1.852,0,0,1,1.847,1.857l-.009,2.867a1.917,1.917,0,0,1-.039.369,16.713,16.713,0,0,1,1.848.527l3.949-15.8a2.756,2.756,0,0,0-2.117-3.367A39.556,39.556,0,1,0,77.789,38.339a3.194,3.194,0,0,0-4.363-2.058Z" transform="translate(0 2.074)" fill="#c3922e"/><path d="M57.108,1.4l-14,34.508a1.485,1.485,0,0,0,2.13,1.837L76.284,19.454a2.42,2.42,0,0,0,.856-3.291A39.447,39.447,0,0,0,60.222.238,2.269,2.269,0,0,0,57.108,1.4" transform="translate(9.952 0)" fill="#c3922e"/></g></svg>