<svg xmlns="http://www.w3.org/2000/svg" width="82.201" height="112.212" viewBox="0 0 82.201 112.212"><path d="M44.164,9.314h0ZM61.781,32.159A10.574,10.574,0,1,0,57.911,46.6a10.574,10.574,0,0,0,3.87-14.444M18.072,71.939a14.462,14.462,0,0,1,7.165-1.349,12.969,12.969,0,0,1,5.407,1.735,5.794,5.794,0,0,0,3.068.954h.006a4.737,4.737,0,0,0,2.815-.93,10.72,10.72,0,0,1,11.8,0,4.751,4.751,0,0,0,2.821.93h13.54c.218-.319.445-.641.649-.956a33.918,33.918,0,0,0,3.237-6.067,1.628,1.628,0,0,0-1.531-2.232l-17.52.216c-2.269.026-3.767-1.668-5.274-3.367-1.727-1.945-1.763-5.747-5.7-5.747-5.1,0-5.961,6.307-8.552,6.307-2.7,0-3.976-10.885-10.022-10.885-1.565,0-3.177,1.294-4.631,3.274a8.958,8.958,0,0,0-1.68,5.3l-.006,2.144c0,1.462.566,4.793,4.344,10.578.02.032.047.067.067.1m33.081,7.407a10.657,10.657,0,0,1-5.893-1.767,4.756,4.756,0,0,0-5.656,0,10.641,10.641,0,0,1-5.889,1.767h-.008a11.646,11.646,0,0,1-5.891-1.652,7.181,7.181,0,0,0-3.074-1.058,7.732,7.732,0,0,0-2.954.374,108.789,108.789,0,0,0,8.665,9.446c1.61,1.573,5.033,4.538,9.644,8.358a2.946,2.946,0,0,0,3.753-.006c4.433-3.695,7.731-6.568,9.294-8.1q3.861-3.8,6.888-7.357ZM41.1,0a3.817,3.817,0,0,0-1.864.485l-1.9,1.058A97.08,97.08,0,0,1,2.368,12.594,2.522,2.522,0,0,0,.123,15.087L0,61.227c0,5.727,2.592,11.844,6.481,17.8a104.476,104.476,0,0,0,14.26,16.822c3.923,3.838,13.781,11.848,18.349,15.522a3.8,3.8,0,0,0,4.782-.008c4.5-3.642,14.131-11.514,17.969-15.29a103.267,103.267,0,0,0,14-16.578C79.655,73.633,82.2,67.617,82.2,62l-.218-47.5A2.5,2.5,0,0,0,79.75,12.03,95.029,95.029,0,0,1,43.826.967L42.965.485A3.829,3.829,0,0,0,41.1,0m.544,11A102.745,102.745,0,0,0,70.6,20.808,2.227,2.227,0,0,1,72.43,22.98L72.608,62c0,2.156-.819,5.986-4.724,11.983A92.193,92.193,0,0,1,55.272,88.864c-1.6,1.573-4.845,4.406-9.177,8.022a6.444,6.444,0,0,1-8.224.02c-4.507-3.737-7.884-6.665-9.539-8.285A93.366,93.366,0,0,1,15.466,73.5c-4-6.121-4.837-10.052-4.837-12.244l.1-37.79a2.228,2.228,0,0,1,1.8-2.174A105.656,105.656,0,0,0,41.645,11" fill="#c3922e"/></svg>