<svg xmlns="http://www.w3.org/2000/svg" width="30.805" height="27.168" viewBox="0 0 30.805 27.168"><g transform="translate(18033.465 23183.839)"><path d="M1.859.118l31.6,2.011A2.193,2.193,0,0,1,35.44,4.148,1.619,1.619,0,0,1,33.7,5.93L2.1,3.92A2.193,2.193,0,0,1,.118,1.9,1.619,1.619,0,0,1,1.859.118Z" transform="translate(-18029.738 -23184) rotate(40)" fill="#fff"/><path d="M1.859-.118l31.6-2.011A1.619,1.619,0,0,1,35.2-.346a2.193,2.193,0,0,1-1.977,2.019L1.623,3.683A1.619,1.619,0,0,1-.118,1.9,2.193,2.193,0,0,1,1.859-.118Z" transform="translate(-18032 -23159.574) rotate(-40)" fill="#fff"/></g></svg>