<svg xmlns="http://www.w3.org/2000/svg" xmlns:xlink="http://www.w3.org/1999/xlink" width="390.204" height="727.43" viewBox="0 0 390.204 727.43"><defs><clipPath id="a"><path d="M0-96.827c237-30.725,390.2-33.029,390.2-33.029v608.3C189,511.112,0,502.622,0,502.622Z" transform="translate(0 129.855)" fill="#6a257a" opacity="0.8"/></clipPath></defs><g transform="translate(0.204 -2091.737)"><path d="M0-198.663c237-30.725,390.2-24.667,390.2-24.667V478.448C189,511.112,0,502.622,0,502.622Z" transform="translate(-0.204 2315.552)" fill="#6a257a" opacity="0.8"/><g transform="translate(-0.204 2185.697)" clip-path="url(#a)"><path d="M123.236,183.217,81.1,251.071a1.592,1.592,0,0,1-2.732-.044L67,231.325a45.672,45.672,0,0,1,.752-46.933l16.918-27.245-32.054,1.029A45.677,45.677,0,0,1,11.59,135.366L.216,115.663a1.591,1.591,0,0,1,1.327-2.387l79.83-2.565a26.1,26.1,0,0,1,23.441,13.036L123.381,155.9h0l.285.494A26.1,26.1,0,0,1,123.236,183.217Zm12.8,44.107a4.942,4.942,0,0,0-8.559-.023L113.231,251.83a4.926,4.926,0,0,0,4.247,7.4l28.39.074a4.927,4.927,0,0,0,4.286-7.38ZM24.03,176.97a13.183,13.183,0,1,0,17.995,4.873A13.183,13.183,0,0,0,24.03,176.97ZM89.749,96.01a26.1,26.1,0,0,0,23.01,13.781h37.7a26.1,26.1,0,0,0,23.01-13.781l37.694-70.418a1.593,1.593,0,0,0-1.4-2.344h-22.75a45.678,45.678,0,0,0-40.267,24.12L131.611,75.641,116.475,47.367A45.673,45.673,0,0,0,76.206,23.25H53.456a1.593,1.593,0,0,0-1.4,2.344ZM16.786,84.968l28.366.074a4.941,4.941,0,0,0,4.3-7.4l-14.119-24.6a4.926,4.926,0,0,0-8.533-.022L12.539,77.566A4.927,4.927,0,0,0,16.786,84.968Zm114.759-58.6A13.183,13.183,0,1,0,118.4,13.148,13.183,13.183,0,0,0,131.545,26.366Zm130.3,86.809-79.83-2.563a26.1,26.1,0,0,0-23.44,13.036l-.287.5h0l-8.1,14.029L140.01,155.807h0l-.287.5a26.1,26.1,0,0,0,.431,26.818l42.136,67.852a1.592,1.592,0,0,0,2.732-.044l11.374-19.7a45.676,45.676,0,0,0-.754-46.931l-16.92-27.245,32.055,1.029A45.675,45.675,0,0,0,251.8,135.265l11.374-19.7A1.592,1.592,0,0,0,261.846,113.175ZM218.074,84.9l28.366.074a4.927,4.927,0,0,0,4.286-7.38L236.593,52.969a4.926,4.926,0,0,0-8.533-.023L213.813,77.475A4.942,4.942,0,0,0,218.074,84.9Zm21.378,91.955a13.183,13.183,0,1,0,4.779,18.021A13.184,13.184,0,0,0,239.452,176.853Z" transform="translate(52.611 374.166)" fill="#fff" opacity="0.28" style="mix-blend-mode:overlay;isolation:isolate"/></g></g></svg>