<svg xmlns="http://www.w3.org/2000/svg" xmlns:xlink="http://www.w3.org/1999/xlink" width="1920" height="665.72" viewBox="0 0 1920 665.72"><defs><clipPath id="a"><path d="M1920-72.077S1457.92-100.6,977.92-116.845,0-137.06,0-137.06V461.158s82.906,8.61,241.25,19.163C398.3,490.787,629,503.15,926.72,511.016,1525.76,526.844,1920,528.661,1920,528.661Z" transform="translate(0 1801.06)" fill="#6a257a" opacity="0.8"/></clipPath></defs><g transform="translate(0 -1664)"><path d="M1920-72.077S1457.92-100.6,977.92-116.845,0-137.06,0-137.06V461.158s82.906,8.61,241.25,19.163C398.3,490.787,629,503.15,926.72,511.016,1525.76,526.844,1920,528.661,1920,528.661Z" transform="translate(0 1801.06)" fill="#6a257a" opacity="0.8"/><g clip-path="url(#a)"><path d="M352.474,524.029,231.965,718.1a4.555,4.555,0,0,1-7.814-.125l-32.533-56.349a130.629,130.629,0,0,1,2.152-134.235l48.387-77.924-91.678,2.944A130.642,130.642,0,0,1,33.15,387.166L.617,330.813a4.551,4.551,0,0,1,3.8-6.826l228.326-7.338a74.651,74.651,0,0,1,67.045,37.285l53.1,91.975h0l.816,1.414A74.646,74.646,0,0,1,352.474,524.029Zm36.609,126.151a14.134,14.134,0,0,0-24.481-.066l-40.745,70.157a14.09,14.09,0,0,0,12.148,21.169l81.2.211a14.092,14.092,0,0,0,12.258-21.107ZM68.728,506.16A37.7,37.7,0,1,0,120.2,520.1,37.7,37.7,0,0,0,68.728,506.16ZM256.7,274.6a74.653,74.653,0,0,0,65.811,39.417h1.636l106.2,0A74.654,74.654,0,0,0,496.159,274.6L603.969,73.2a4.555,4.555,0,0,0-4.014-6.7H534.885a130.645,130.645,0,0,0-115.171,68.986l-43.287,80.869-43.291-80.869A130.633,130.633,0,0,0,217.962,66.5H152.893a4.555,4.555,0,0,0-4.014,6.7ZM48.012,243.021l81.131.211a14.133,14.133,0,0,0,12.293-21.169L101.054,151.7a14.088,14.088,0,0,0-24.406-.062L35.863,221.852A14.092,14.092,0,0,0,48.012,243.021ZM376.24,75.41a37.7,37.7,0,1,0-37.605-37.8A37.705,37.705,0,0,0,376.24,75.41ZM748.919,323.7l-228.326-7.33a74.641,74.641,0,0,0-67.041,37.285l-.82,1.418h0L429.571,395.2l-29.12,50.437h0l-.82,1.418a74.648,74.648,0,0,0,1.234,76.7L521.382,717.819a4.555,4.555,0,0,0,7.814-.125l32.533-56.353a130.64,130.64,0,0,0-2.156-134.231l-48.395-77.924,91.682,2.944a130.639,130.639,0,0,0,117.326-65.253l32.533-56.353A4.553,4.553,0,0,0,748.919,323.7ZM623.724,242.822l81.13.211a14.092,14.092,0,0,0,12.258-21.107L676.692,151.5a14.09,14.09,0,0,0-24.406-.066L611.536,221.59A14.135,14.135,0,0,0,623.724,242.822Zm61.145,263.006a37.705,37.705,0,1,0,13.668,51.542A37.708,37.708,0,0,0,684.869,505.828Z" transform="translate(1073 1759.348)" fill="#fff" opacity="0.28" style="mix-blend-mode:overlay;isolation:isolate"/></g></g></svg>