<svg xmlns="http://www.w3.org/2000/svg" xmlns:xlink="http://www.w3.org/1999/xlink" width="196.234" height="86.66" viewBox="0 0 196.234 86.66"><defs><clipPath id="a"><rect width="196.234" height="86.66" fill="none"/></clipPath></defs><g transform="translate(306 -16.743)"><g transform="translate(-306 16.743)" clip-path="url(#a)"><path d="M72.246,61.522c.375,0,.561-.174.561-.521v-.65H70.111v.059l.039,2.48c0,.118-.018.187-.05.206a.3.3,0,0,1-.2.041H68.438c-.112,0-.177-.017-.2-.05a.419.419,0,0,1-.029-.2l.039-2.48v-.059H65.713v.729l.039,2.075a.175.175,0,0,1-.2.2H64.079a.33.33,0,0,1-.206-.039c-.021-.02-.03-.073-.03-.159l.039-2.016V57.2l-.039-2.057c0-.1.014-.166.039-.186a.393.393,0,0,1,.2-.03l2.666.039h1.505v-.825H66.942l-2.715.039c-.112,0-.177-.014-.2-.039A.363.363,0,0,1,64,53.967v-.4a10.941,10.941,0,0,1-.827.836c-.21.19-.357.286-.441.286s-.215-.128-.405-.384a4.341,4.341,0,0,0-.865-.945,9.364,9.364,0,0,0,3.1-3.779,4.693,4.693,0,0,0,.325-.973,14.34,14.34,0,0,1,1.593.443c.231.085.346.174.346.266a.362.362,0,0,1-.207.3l-.139.118h9.555l2.754-.038c.2,0,.305.1.305.284q-.029.442-.079,1.968-.127,6.375-.384,8.52a4.215,4.215,0,0,1-.877,2.382,2.254,2.254,0,0,1-1.682.6c-.079,0-.36-.014-.846-.039-.209-.02-.337-.062-.382-.128a2.3,2.3,0,0,1-.119-.531c-.059-.3-.107-.518-.147-.67a1.557,1.557,0,0,1-.384.65,3.492,3.492,0,0,1-1.988.4c-.281,0-.443-.027-.482-.08a1.534,1.534,0,0,1-.128-.443,3.423,3.423,0,0,0-.443-1.131c.485.026.851.039,1.093.039M69.265,45.445a.5.5,0,0,1-.109.295,2.217,2.217,0,0,0-.118.866h3.6a13.449,13.449,0,0,0-.119-1.525c.6.014,1.276.059,2.018.139.189.026.286.1.286.206a.546.546,0,0,1-.128.3,2.5,2.5,0,0,0-.1.884h2.42l2.539-.039c.132,0,.2.073.2.216v1.3c0,.144-.065.216-.2.216l-2.539-.039H74.6l.039.807c0,.1-.014.163-.039.177a.516.516,0,0,1-.187.02H72.827c-.113,0-.175-.009-.187-.03a.275.275,0,0,1-.03-.166c0-.033,0-.131.011-.3.006-.183.014-.354.02-.511h-3.6l.039.807c0,.1-.017.166-.048.187a.331.331,0,0,1-.177.029H67.258c-.1,0-.168-.014-.187-.039a.3.3,0,0,1-.03-.177c0-.02,0-.112.011-.277.014-.183.023-.36.03-.531H64.642l-2.52.039c-.106,0-.168-.014-.186-.039a.319.319,0,0,1-.03-.177v-1.3c0-.1.012-.166.038-.186a.315.315,0,0,1,.178-.03l2.52.039h2.439a13.231,13.231,0,0,0-.118-1.505c.786.02,1.46.06,2.016.119.19.018.286.1.286.225m1.063,6.425a.621.621,0,0,1-.118.305,1.609,1.609,0,0,0-.1.58h2.007l-.561-.659a.227.227,0,0,1-.07-.138c0-.047.056-.1.166-.148l.827-.345a.672.672,0,0,1,.227-.059.432.432,0,0,1,.255.157,7.89,7.89,0,0,1,.916,1.014.344.344,0,0,1,.079.177l1.388-.039c.1,0,.171.017.195.048a.354.354,0,0,1,.03.187v1.014c0,.1-.017.166-.048.186a.3.3,0,0,1-.177.03l-2.716-.039H70.111v.825h1.672l2.657-.039a.317.317,0,0,1,.2.039.33.33,0,0,1,.029.177l-.048,2.195v1.595l.059,2.263v.2q.6.059.954.059a.78.78,0,0,0,.748-.511,4.9,4.9,0,0,0,.277-1.239q.265-2.637.3-8.373H65.615a12.786,12.786,0,0,1-.945,1.407q.4.02,2.272.02h1.291a8.873,8.873,0,0,0-.1-1.25c.538.02,1.173.07,1.909.148.19.02.286.091.286.216M65.713,57.2h2.539v-.925H65.713Zm0,2.037h2.539v-.925H65.713Zm7.093-2.961H70.111V57.2h2.695ZM70.111,59.24h2.695v-.925H70.111Z" transform="translate(31.434 23.056)" fill="#fff"/><path d="M74.866,53.647A10.964,10.964,0,0,0,77.925,50a4.871,4.871,0,0,0,.366-.963q.764.177,1.554.422c.228.086.343.181.343.286a.36.36,0,0,1-.206.305,2,2,0,0,0-.216.2h9.475L92,50.2a.252.252,0,0,1,.286.286q-.07.846-.07,1.672-.136,5.638-.5,8.4-.422,2.94-2.893,2.941c-.367,0-.716-.012-1.052-.039-.277-.02-.44-.065-.491-.138a1.2,1.2,0,0,1-.128-.531l-.107-.63h-.561c-.106,0-.169-.014-.187-.039a.394.394,0,0,1-.03-.2v-.4h-6.9v.729q0,.156-.05.186c-.018.02-.077.03-.177.03H77.827c-.1,0-.166-.014-.186-.039a.326.326,0,0,1-.03-.177l.039-.975V60.072a11.957,11.957,0,0,0-.109-1.691,16.036,16.036,0,0,1,1.761.147c.19.021.287.086.287.2a1.225,1.225,0,0,1-.109.323,1.3,1.3,0,0,0-.1.561v.364h2.479V57.78H79.323l-2.745.039c-.106,0-.169-.014-.187-.039a.341.341,0,0,1-.03-.177V56.3c0-.1.014-.168.041-.186a.319.319,0,0,1,.177-.03l2.745.039h2.538V54.838H79.943a6.018,6.018,0,0,1-.846.905c-.224.2-.363.305-.423.305s-.2-.121-.443-.364a3.545,3.545,0,0,0-.825-.58,7.028,7.028,0,0,0,1.977-2.145,4.61,4.61,0,0,0,.423-1,11.1,11.1,0,0,1,1.406.384c.19.059.287.124.287.2,0,.092-.063.18-.187.266a1.945,1.945,0,0,0-.384.521h4.546l2.272-.02c.112,0,.178.009.2.029a.366.366,0,0,1,.03.187v1.141c0,.106-.017.168-.048.187a.319.319,0,0,1-.178.029l-2.272-.039H83.779v1.289h2.175l2.755-.039c.118,0,.186.014.207.039a.431.431,0,0,1,.02.177v1.3a.329.329,0,0,1-.03.186.362.362,0,0,1-.2.03l-2.755-.039H83.779v2.193h2.48v-.364a6.03,6.03,0,0,0-.107-1.248c.827.045,1.412.1,1.761.147.19.014.284.073.284.177a.929.929,0,0,1-.127.345,1.748,1.748,0,0,0-.079.659v1.841h.541q.993,0,1.229-1.693.286-2.086.4-7.94H78.83a13.712,13.712,0,0,1-2.252,2.754c-.224.2-.37.305-.443.305s-.221-.141-.443-.423a5.123,5.123,0,0,0-.827-.886m5.411-8.54q.934.029,2,.138c.2.027.305.1.305.207a.542.542,0,0,1-.128.295,2.979,2.979,0,0,0-.1,1.034h3.541a8.973,8.973,0,0,0-.118-1.673q1.249.041,2.018.138c.19.027.284.1.284.207a.56.56,0,0,1-.118.295,2.656,2.656,0,0,0-.107,1.034h2.42l2.538-.039c.131,0,.2.071.2.216v1.338c0,.145-.067.216-.2.216l-2.538-.038h-2.42l.048,1.091c0,.106-.017.168-.048.187s-.079.029-.177.029H86.082c-.106,0-.168-.014-.187-.039a.334.334,0,0,1-.03-.177c0-.033,0-.16.011-.384s.02-.466.02-.707H82.354l.048,1.091c0,.106-.015.168-.048.187a.411.411,0,0,1-.2.029H80.582c-.1,0-.168-.014-.187-.039a.338.338,0,0,1-.029-.177c0-.02,0-.141.009-.364s.014-.478.02-.727H77.9l-2.518.038c-.107,0-.169-.012-.187-.038a.344.344,0,0,1-.03-.178V46.957c0-.1.014-.168.041-.187a.331.331,0,0,1,.177-.029l2.518.039h2.5a13.4,13.4,0,0,0-.118-1.673" transform="translate(38.289 23.07)" fill="#fff"/><path d="M88.14,60.234a24.641,24.641,0,0,0,5.775-2.893,16.416,16.416,0,0,0,3.777-3.434H92.429c-.1.336-.28.813-.521,1.437a.249.249,0,0,1-.225.177,1.585,1.585,0,0,1-.2-.02l-1.536-.207c-.2-.026-.3-.073-.3-.138a.325.325,0,0,1,.048-.138,23.546,23.546,0,0,0,1.614-4.438A11.73,11.73,0,0,0,91.6,48.85a20,20,0,0,1,2.077.227c.19.02.286.106.286.255a.605.605,0,0,1-.178.364,2.977,2.977,0,0,0-.325.866c-.2.729-.329,1.183-.382,1.368H99.71l-.018-4.084H92.578l-2.746.039c-.1,0-.166-.012-.186-.039a.323.323,0,0,1-.029-.177V46.085c0-.106.012-.168.038-.187a.316.316,0,0,1,.177-.029l2.746.039h9.888l2.725-.039c.106,0,.168.012.187.039a.334.334,0,0,1,.03.177v1.584c0,.1-.014.168-.041.187a.338.338,0,0,1-.177.029l-2.725-.039h-.621l.041,4.084H103.7l2.518-.041c.1,0,.159.018.177.05a.37.37,0,0,1,.03.187v1.6c0,.144-.07.216-.207.216l-2.518-.039h-1.811l.039,3.345.039,3.364a2.183,2.183,0,0,1-.648,1.771q-.71.621-3.2.62a1.09,1.09,0,0,1-.611-.1,1.286,1.286,0,0,1-.177-.523,5.188,5.188,0,0,0-.521-1.495,19.939,19.939,0,0,0,2.006.1,1.047,1.047,0,0,0,.75-.207.892.892,0,0,0,.206-.648l-.018-3.247q0-1.555.018-2.332a23.3,23.3,0,0,1-9.651,7.231,1.343,1.343,0,0,1-.464.139c-.118,0-.264-.154-.441-.464a4.691,4.691,0,0,0-1.073-1.229" transform="translate(45.078 23.459)" fill="#fff"/><path d="M103.523,52.9a18.385,18.385,0,0,0,3.809-6.424,6.673,6.673,0,0,0,.323-1.407,15.339,15.339,0,0,1,2,.6c.2.092.3.193.3.305a.448.448,0,0,1-.207.363,1.929,1.929,0,0,0-.422.807A27.881,27.881,0,0,1,108,50.066V60.279l.039,3.059c0,.151-.07.227-.206.227H106.1c-.132,0-.2-.076-.2-.227l.041-3.059v-7q-.483.639-1.171,1.428c-.157.175-.278.265-.364.265s-.145-.115-.218-.345a5.7,5.7,0,0,0-.668-1.732m8.345,9.82-2.805.039c-.1,0-.166-.017-.187-.048a.371.371,0,0,1-.03-.187V60.958q0-.147.036-.181c.023-.024.083-.035.181-.035l2.805.039h2.458V56.609h-1.347l-2.647.039a.339.339,0,0,1-.207-.039.346.346,0,0,1-.029-.177V54.917c0-.106.012-.168.038-.187a.431.431,0,0,1,.2-.029l2.647.039h1.347V51.256h-1.9l-2.737.039a.307.307,0,0,1-.2-.039.364.364,0,0,1-.029-.186V49.534c0-.112.012-.177.039-.2a.562.562,0,0,1,.186-.02l2.737.02h6.3l2.746-.02c.118,0,.187.009.207.03a.382.382,0,0,1,.029.186V51.07c0,.112-.014.177-.039.2a.4.4,0,0,1-.2.029l-2.746-.039h-2.252V54.74h1.595l2.657-.039c.1,0,.166.012.186.039a.338.338,0,0,1,.029.177v1.516a.3.3,0,0,1-.033.181.3.3,0,0,1-.181.035l-2.657-.039h-1.595v4.172h2.834l2.784-.039a.314.314,0,0,1,.2.039.323.323,0,0,1,.029.177v1.564c0,.112-.015.18-.048.207-.018.02-.079.029-.177.029l-2.784-.039Zm2.173-17.454a17.052,17.052,0,0,1,3.5,2.037q.168.127.168.177a.6.6,0,0,1-.148.225l-.945,1.073c-.11.132-.2.2-.275.2a.289.289,0,0,1-.168-.079,15.413,15.413,0,0,0-3.511-2.154c-.094-.06-.139-.116-.139-.168s.045-.125.139-.216l.954-1.014a.325.325,0,0,1,.225-.128.652.652,0,0,1,.2.05" transform="translate(52.946 23.05)" fill="#fff"/><path d="M134.545,54.566h.1c.085,0,.136.068.147.206l.159,1.505a.686.686,0,0,1,.011.1c0,.1-.07.154-.207.166q-2.48.245-2.6.266l-5.727.639V60.37a1.207,1.207,0,0,0,.139.67.62.62,0,0,0,.422.236,11.383,11.383,0,0,0,2.166.138q2.351,0,2.893-.482a3.389,3.389,0,0,0,.55-2.232,6.458,6.458,0,0,0,1.584.57,1.383,1.383,0,0,1,.432.148.308.308,0,0,1,.089.255c0,.039-.006.131-.02.277a3.646,3.646,0,0,1-1.161,2.616q-.936.748-4.25.748a13.646,13.646,0,0,1-3.847-.345A1.864,1.864,0,0,1,124.293,61V57.675l-4.014.443q-1.732.215-2.518.345h-.089c-.1,0-.154-.076-.166-.227l-.169-1.534v-.089c0-.086.076-.135.228-.148q1.358-.109,2.538-.246l4.191-.461V53.524q-2.018.392-3.927.639a3.223,3.223,0,0,1-.343.039.259.259,0,0,1-.236-.128,2.068,2.068,0,0,1-.168-.413,4.2,4.2,0,0,0-.729-1.348,48.573,48.573,0,0,0,9.632-1.809,6.235,6.235,0,0,0,1.5-.65,7.691,7.691,0,0,1,1.318,1.268.683.683,0,0,1,.207.4c0,.145-.115.227-.346.246-.26.047-.531.106-.806.177a40.415,40.415,0,0,1-3.966,1.112V55.54l5.58-.629q1.081-.129,1.918-.246c.394-.059.6-.092.62-.1M131.79,47.2l2.657-.039c.15,0,.225.067.225.2l-.038,1.073v.884l.038,2.254c0,.106-.012.168-.038.187a.341.341,0,0,1-.177.03h-1.673c-.118,0-.19-.014-.216-.041s-.03-.077-.03-.177v-2.5H119.757v2.539c0,.118-.014.186-.039.206a.269.269,0,0,1-.177.039h-1.7c-.106,0-.168-.017-.187-.05a.392.392,0,0,1-.029-.195l.038-2.254v-.729l-.038-1.27c0-.13.071-.2.216-.2l2.666.039h4.438V47.04a8.713,8.713,0,0,0-.148-1.92q1.093.032,2.155.119c.2,0,.3.068.3.206,0,.02-.032.148-.1.384a4.16,4.16,0,0,0-.1,1.211V47.2Z" transform="translate(60.01 23.076)" fill="#fff"/><path d="M74.236,76.556a10.2,10.2,0,0,1-10.113,10.1H42.146V74.647h16.24a2.8,2.8,0,0,0,2.81-2.8V29.863a2.841,2.841,0,0,0-2.766-2.894H42.139V14.953H52.4V0L66.346,5.075v9.882a7.844,7.844,0,0,1,7.89,7.817V76.556ZM30.257,74.644H13.582V26.967H30.257V14.953H0V86.658H30.257Z" transform="translate(0 0)" fill="#c99622"/><path d="M62.762,10h7.373c4.847,0,6.957,2.527,6.957,6.1,0,3.543-2.11,6.07-6.957,6.07H66.669v4.354a1.716,1.716,0,0,1-1.715,1.717H62.762ZM70,18.783c2.137,0,3.074-1.069,3.074-2.683,0-1.643-.937-2.71-3.074-2.71H66.669v5.393Z" transform="translate(32.099 5.116)" fill="#fff"/><path d="M72.829,19.967c0-4.924,3.387-7.034,6.8-7.034s6.8,2.11,6.8,7.034S83.042,27,79.629,27s-6.8-2.11-6.8-7.036m6.8,3.883c1.824,0,3.231-1.2,3.231-3.883s-1.407-3.881-3.231-3.881-3.231,1.2-3.231,3.881S77.8,23.85,79.629,23.85" transform="translate(37.247 6.615)" fill="#fff"/><path d="M83.189,13.158h2.089a1.715,1.715,0,0,1,1.715,1.715v1.567h.1C87.566,14.461,88.843,13,91,13a3.928,3.928,0,0,1,1.043.13v3.2a8.372,8.372,0,0,0-1.069-.077c-2.031,0-3.986,1.171-3.986,4.454v5.993h-3.8Z" transform="translate(42.546 6.65)" fill="#fff"/><path d="M92.187,23.771v-6.54H90.752a.858.858,0,0,1-.858-.858V14.286h2.293V12.51A1.715,1.715,0,0,1,93.9,10.8h2.089v3.491h1.824a.858.858,0,0,1,.858.858v2.086H95.991v5.993c0,1.041.313,1.746,1.72,1.746a9.22,9.22,0,0,0,1.067-.053v2.84a8.393,8.393,0,0,1-2.084.261c-2.71,0-4.507-1.226-4.507-4.247" transform="translate(45.975 5.521)" fill="#fff"/><path d="M103.353,23.762a2.664,2.664,0,0,0,2.84-2.97V13.1H110v13.55h-2.087a1.716,1.716,0,0,1-1.715-1.717V23.815h-.157a4.11,4.11,0,0,1-4.324,3.1c-2.631,0-4.664-1.694-4.664-5.211V13.1h3.8v7.687c0,2.059.911,2.97,2.5,2.97" transform="translate(49.633 6.703)" fill="#fff"/><path d="M107.263,27.523h2.127a1.725,1.725,0,0,1,1.465.721,3.11,3.11,0,0,0,2.583,1c1.8,0,3.257-.886,3.257-3V24.553h-.053a4.623,4.623,0,0,1-3.934,1.85c-2.736,0-5.731-1.8-5.731-6.749,0-4.9,3.021-6.721,5.731-6.721a4.623,4.623,0,0,1,3.934,1.85h.053v-1.59h3.8V26.246c0,5.03-4.221,5.941-6.957,5.941-2.37,0-6.253-.677-6.279-4.664m6.487-4.3c1.667,0,3.126-1.12,3.126-3.57,0-2.423-1.459-3.57-3.126-3.57-1.72,0-3.179,1.147-3.179,3.57,0,2.45,1.459,3.57,3.179,3.57" transform="translate(54.711 6.615)" fill="#fff"/><path d="M117.284,23.147c0-3,2.449-3.649,4.794-3.987l2.293-.339c1.251-.183,1.641-.391,1.641-1.146v-.183c0-1.433-.937-1.824-2.11-1.824-1.224,0-2.319.391-2.319,1.8v.26h-3.57V17.1c0-2.657,1.771-4.169,5.993-4.169,4.09,0,5.731,1.459,5.731,4.4v9.407h-1.224a2.4,2.4,0,0,1-2.4-2.4h-.156A4.316,4.316,0,0,1,121.635,27c-2.214,0-4.351-1.069-4.351-3.856m5.654,1.146c1.8,0,3.074-1.2,3.074-2.267V20.514c-.209.313-.86.417-1.459.521l-1.9.339c-1.171.183-1.563.756-1.563,1.46,0,.833.547,1.459,1.85,1.459" transform="translate(59.983 6.615)" fill="#fff"/><path d="M127.316,10H129.4a1.715,1.715,0,0,1,1.715,1.715V26.524a1.715,1.715,0,0,1-1.715,1.717h-2.089Z" transform="translate(65.114 5.116)" fill="#fff"/><path d="M73.809,35.561h-7.14v7.5H62.762V24.827h3.907v7.5h7.14v-7.5H76a1.716,1.716,0,0,1,1.717,1.715V43.066H73.809Z" transform="translate(32.099 12.698)" fill="#fff"/><path d="M74.018,34.791c0-4.924,3.387-7.034,6.8-7.034s6.8,2.11,6.8,7.034-3.387,7.036-6.8,7.036-6.8-2.11-6.8-7.036m6.8,3.883c1.824,0,3.231-1.2,3.231-3.883s-1.407-3.881-3.231-3.881-3.231,1.2-3.231,3.881,1.407,3.883,3.231,3.883" transform="translate(37.856 14.196)" fill="#fff"/><path d="M99.125,30.91c-1.354,0-2.45.911-2.45,2.97v7.687h-3.8V33.88c0-2.059-.859-2.97-2.24-2.97-1.354,0-2.449.911-2.449,2.97v7.687h-3.8V28.018h2.089a1.715,1.715,0,0,1,1.715,1.715v1.125h.156a3.993,3.993,0,0,1,3.96-3.1,4.084,4.084,0,0,1,4.091,3.1,4.336,4.336,0,0,1,4.3-3.1c2.579,0,4.48,1.694,4.48,5.211v8.6h-3.8V33.88c0-2.059-.858-2.97-2.24-2.97" transform="translate(43.154 14.196)" fill="#fff"/><path d="M99.5,34.766c0-5.054,3.2-7.009,6.8-7.009,3.491,0,6.436,1.824,6.436,6.957a5.209,5.209,0,0,1-.079,1.041h-9.536c.209,2.267,1.381,3.18,3.257,3.18a2.709,2.709,0,0,0,2.458-1.011,1.749,1.749,0,0,1,1.437-.787h2.281c-.679,3.1-3.076,4.69-6.229,4.69-3.439,0-6.826-1.9-6.826-7.061m9.64-1.25a2.687,2.687,0,0,0-2.944-2.866c-1.771,0-2.814.99-3.074,2.866Z" transform="translate(50.885 14.196)" fill="#fff"/><path d="M109.1,37.111h2.18a1.794,1.794,0,0,1,1.52.93,2.348,2.348,0,0,0,2.189.946c1.277,0,2.137-.443,2.137-1.407,0-.624-.419-1.016-1.3-1.2l-2.5-.52c-2.84-.651-3.857-2.163-3.857-3.961,0-2.631,2.267-4.143,5.55-4.143,3.621,0,5.524,1.771,5.576,4.69h-1.947a1.761,1.761,0,0,1-1.513-.917,2.179,2.179,0,0,0-2.063-.933c-1.3,0-1.9.47-1.9,1.2,0,.679.5,1.121,1.407,1.3l2.554.547c2.136.469,3.907,1.459,3.907,3.857,0,3.021-2.787,4.324-6.07,4.324-3.623,0-5.837-1.59-5.863-4.716" transform="translate(55.796 14.196)" fill="#fff"/></g></g></svg>