<svg id="logo" class="logo" data-name="Group 66224" xmlns="http://www.w3.org/2000/svg" viewBox="0 0 182.033 58.252">
    <path id="Path_93906" data-name="Path 93906" d="M49.608,51.159A6.819,6.819,0,0,1,42.85,57.91H28.164V49.883H39.017a1.869,1.869,0,0,0,1.878-1.872V19.956a1.9,1.9,0,0,0-1.848-1.935H28.159V9.992h6.858V0l9.319,3.392V10a5.242,5.242,0,0,1,5.272,5.224s0,1.417,0,1.419ZM20.22,49.881H9.076V18.021H20.22V9.992H0V57.91H20.22Z" fill="#c3922e"></path>
    <path id="Path_93907" data-name="Path 93907" d="M293.2,46.383h8.679c5.7,0,8.189,2.975,8.189,7.177,0,4.171-2.484,7.146-8.189,7.146h-4.079v5.126a2.02,2.02,0,0,1-2.02,2.02H293.2Zm8.526,10.336c2.515,0,3.619-1.258,3.619-3.159,0-1.932-1.1-3.19-3.619-3.19h-3.926v6.349Z" transform="translate(-229.787 -36.281)" fill="#1e2931"></path>
    <path id="Path_93908" data-name="Path 93908" d="M375.435,78.6c0-5.8,3.987-8.28,8-8.28s8,2.484,8,8.28-3.987,8.281-8,8.281-8-2.484-8-8.281m8,4.57c2.147,0,3.8-1.411,3.8-4.57s-1.656-4.57-3.8-4.57-3.8,1.411-3.8,4.57,1.656,4.57,3.8,4.57" transform="translate(-294.228 -55.005)" fill="#1e2931"></path>
    <path id="Path_93909" data-name="Path 93909" d="M460.056,71.066h2.458a2.02,2.02,0,0,1,2.02,2.02v1.844h.122c.552-2.331,2.055-4.049,4.6-4.049a4.637,4.637,0,0,1,1.227.154v3.772a9.736,9.736,0,0,0-1.258-.092c-2.392,0-4.692,1.38-4.692,5.244v7.054h-4.478Z" transform="translate(-360.524 -55.444)" fill="#1e2931"></path>
    <path id="Path_93910" data-name="Path 93910" d="M517.528,68.133v-7.7h-1.689a1.01,1.01,0,0,1-1.01-1.01V56.969h2.7V54.879a2.02,2.02,0,0,1,2.02-2.02h2.458v4.11h2.148a1.01,1.01,0,0,1,1.01,1.01v2.456h-3.158v7.054c0,1.226.368,2.055,2.024,2.055a11.057,11.057,0,0,0,1.258-.061v3.343a9.92,9.92,0,0,1-2.454.307c-3.19,0-5.305-1.442-5.305-5" transform="translate(-403.447 -41.346)" fill="#1e2931"></path>
    <path id="Path_93911" data-name="Path 93911" d="M580.683,84.271a3.136,3.136,0,0,0,3.343-3.5V71.727H588.5V87.675h-2.457a2.02,2.02,0,0,1-2.02-2.02V84.333h-.185c-.276,1.5-1.809,3.65-5.09,3.65-3.1,0-5.49-1.993-5.49-6.134V71.727h4.478v9.048c0,2.423,1.073,3.5,2.944,3.5" transform="translate(-449.261 -56.104)" fill="#1e2931"></path>
    <path id="Path_93912" data-name="Path 93912" d="M654.7,87.5h2.5a2.032,2.032,0,0,1,1.725.847,3.661,3.661,0,0,0,3.041,1.176c2.116,0,3.834-1.042,3.834-3.527V84h-.062a5.443,5.443,0,0,1-4.631,2.178c-3.22,0-6.746-2.116-6.746-7.944,0-5.766,3.557-7.912,6.746-7.912A5.444,5.444,0,0,1,665.74,72.5h.062V70.627h4.477V85.993c0,5.92-4.968,6.993-8.189,6.993-2.79,0-7.36-.8-7.391-5.49m7.636-5.061c1.963,0,3.68-1.319,3.68-4.2,0-2.852-1.717-4.2-3.68-4.2-2.024,0-3.742,1.35-3.742,4.2,0,2.883,1.718,4.2,3.742,4.2" transform="translate(-512.995 -55.005)" fill="#1e2931"></path>
    <path id="Path_93913" data-name="Path 93913" d="M738.564,82.343c0-3.527,2.882-4.294,5.643-4.693l2.7-.4c1.472-.215,1.932-.46,1.932-1.349v-.215c0-1.687-1.1-2.147-2.484-2.147-1.441,0-2.729.46-2.729,2.116v.307h-4.2v-.736c0-3.128,2.086-4.907,7.054-4.907,4.814,0,6.747,1.717,6.747,5.183V86.576h-1.442a2.822,2.822,0,0,1-2.822-2.821h-.183a5.077,5.077,0,0,1-5.092,3.128c-2.607,0-5.121-1.258-5.121-4.539m6.655,1.349c2.116,0,3.619-1.411,3.619-2.668V79.246c-.245.368-1.012.491-1.717.614l-2.239.4c-1.38.215-1.841.89-1.841,1.718,0,.981.644,1.717,2.178,1.717" transform="translate(-578.857 -55.005)" fill="#1e2931"></path>
    <path id="Path_93914" data-name="Path 93914" d="M820.508,46.383h2.458a2.02,2.02,0,0,1,2.02,2.02V65.831a2.02,2.02,0,0,1-2.02,2.02h-2.458Z" transform="translate(-642.953 -36.281)" fill="#1e2931"></path>
    <path id="Path_93915" data-name="Path 93915" d="M306.209,180.111h-8.4v8.833h-4.6V167.475h4.6v8.833h8.4v-8.833h2.58a2.02,2.02,0,0,1,2.02,2.02v19.448h-4.6Z" transform="translate(-229.789 -130.998)" fill="#1e2931"></path>
    <path id="Path_93916" data-name="Path 93916" d="M385.149,199.693c0-5.8,3.987-8.28,8-8.28s8,2.484,8,8.28-3.987,8.281-8,8.281-8-2.484-8-8.281m8,4.57c2.147,0,3.8-1.41,3.8-4.57s-1.656-4.57-3.8-4.57-3.8,1.411-3.8,4.57,1.656,4.57,3.8,4.57" transform="translate(-301.841 -149.722)" fill="#1e2931"></path>
    <path id="Path_93917" data-name="Path 93917" d="M487.129,195.125c-1.6,0-2.883,1.074-2.883,3.5v9.047h-4.478v-9.047c0-2.423-1.012-3.5-2.637-3.5-1.594,0-2.882,1.074-2.882,3.5v9.047H469.77V191.721h2.458a2.02,2.02,0,0,1,2.02,2.02v1.323h.184a4.7,4.7,0,0,1,4.661-3.649,4.806,4.806,0,0,1,4.815,3.649,5.1,5.1,0,0,1,5.061-3.649c3.036,0,5.275,1.993,5.275,6.133v10.121h-4.478v-9.047c0-2.423-1.012-3.5-2.637-3.5" transform="translate(-368.197 -149.723)" fill="#1e2931"></path>
    <path id="Path_93918" data-name="Path 93918" d="M593.255,199.663c0-5.95,3.772-8.25,8-8.25,4.11,0,7.575,2.147,7.575,8.189a6.234,6.234,0,0,1-.092,1.226H597.518c.245,2.669,1.626,3.742,3.833,3.742a3.189,3.189,0,0,0,2.893-1.19,2.056,2.056,0,0,1,1.692-.927h2.684c-.8,3.649-3.62,5.521-7.331,5.521-4.048,0-8.035-2.239-8.035-8.311m11.347-1.472a3.163,3.163,0,0,0-3.465-3.374c-2.086,0-3.313,1.166-3.619,3.374Z" transform="translate(-464.932 -149.722)" fill="#1e2931"></path>
    <path id="Path_93919" data-name="Path 93919" d="M671.681,202.423h2.565a2.114,2.114,0,0,1,1.79,1.093,2.762,2.762,0,0,0,2.575,1.115c1.5,0,2.515-.521,2.515-1.656,0-.736-.491-1.2-1.534-1.41l-2.944-.614c-3.343-.767-4.539-2.546-4.539-4.662,0-3.1,2.669-4.876,6.533-4.876,4.263,0,6.5,2.085,6.563,5.52h-2.292a2.073,2.073,0,0,1-1.781-1.081,2.563,2.563,0,0,0-2.428-1.1c-1.534,0-2.239.552-2.239,1.411,0,.8.582,1.319,1.656,1.533l3.005.644c2.515.552,4.6,1.717,4.6,4.539,0,3.558-3.281,5.091-7.146,5.091-4.263,0-6.87-1.871-6.9-5.551" transform="translate(-526.541 -149.722)" fill="#1e2931"></path>
</svg>