<svg id="content" xmlns="http://www.w3.org/2000/svg" width="345" height="71.684" viewBox="0 0 345 71.684">
  <g id="IV-Logo-Color-Posit" transform="translate(0)">
    <path id="Path_94019" data-name="Path 94019" d="M50.307,30.573l22.068.713a.437.437,0,0,1,.367.659L69.6,37.393a12.617,12.617,0,0,1-11.337,6.3L49.4,43.412l4.679,7.533a12.609,12.609,0,0,1,.205,12.969L51.14,69.36a.44.44,0,0,1-.757.011l-11.65-18.75a7.214,7.214,0,0,1-.119-7.414l5.133-8.883h0l.076-.14a7.2,7.2,0,0,1,6.473-3.6Zm8.786-9.154a1.367,1.367,0,0,0,1.178,2.053l7.835.022A1.368,1.368,0,0,0,69.3,21.452l-3.9-6.808a1.359,1.359,0,0,0-2.356,0L59.1,21.42Zm3.426,33.772A3.644,3.644,0,1,0,61.2,50.21,3.641,3.641,0,0,0,62.519,55.192ZM34.054,50.653a7.214,7.214,0,0,0,.119-7.414L34.1,43.1h0l-5.133-8.883a7.2,7.2,0,0,0-6.473-3.6L.422,31.308a.437.437,0,0,0-.367.659L3.2,37.414a12.617,12.617,0,0,0,11.337,6.3l8.862-.281-4.679,7.533a12.609,12.609,0,0,0-.205,12.969l3.145,5.447a.44.44,0,0,0,.757.011l11.65-18.75Zm7.435,18.988-3.9-6.8a1.365,1.365,0,0,0-2.367,0l-3.934,6.776a1.359,1.359,0,0,0,1.178,2.043l7.846.022A1.368,1.368,0,0,0,41.5,69.641ZM11.607,50.275a3.643,3.643,0,1,0-1.351,4.971A3.655,3.655,0,0,0,11.607,50.275Zm2.777-43.2L24.8,26.542a7.2,7.2,0,0,0,6.355,3.8H41.586a7.2,7.2,0,0,0,6.355-3.8L58.359,7.079a.439.439,0,0,0-.389-.648H51.68A12.617,12.617,0,0,0,40.549,13.1l-4.182,7.814L32.184,13.1A12.617,12.617,0,0,0,21.053,6.43h-6.29a.442.442,0,0,0-.389.648Zm-.724,14.384-3.9-6.8a1.359,1.359,0,0,0-2.356,0L3.459,21.452a1.359,1.359,0,0,0,1.178,2.043l7.835.022a1.368,1.368,0,0,0,1.189-2.043ZM32.724,3.631A3.642,3.642,0,1,0,36.377,0,3.644,3.644,0,0,0,32.724,3.631Z" transform="translate(0.004)" fill="#fff"/>
    <g id="Group_66095" data-name="Group 66095" transform="translate(88.46 1.967)">
      <path id="Path_94020" data-name="Path 94020" d="M85.762,1.82A3.934,3.934,0,1,1,81.85,5.775,3.962,3.962,0,0,1,85.762,1.82ZM82.2,12.67H86.3a3.039,3.039,0,0,1,3.037,3.037V38.1H82.207V12.67ZM106.879,18.1c-2.983,0-5.328,1.708-5.328,5.576V38.089H94.419V12.67h4.107a3.039,3.039,0,0,1,3.037,3.037v2.3h.292c.443-2.4,2.886-5.814,8.116-5.814,4.939,0,8.754,3.177,8.754,9.78V38.11h-7.133V23.694c0-3.858-1.708-5.576-4.69-5.576ZM121.1,12.67h5.112a3.012,3.012,0,0,1,2.864,2.053l5.652,16.524h.249l5.652-16.524a3.037,3.037,0,0,1,2.864-2.053h5.069l-9.24,25.418h-8.992l-9.24-25.418Zm27.915,12.666c0-9.489,6.009-13.152,12.763-13.152s12.072,3.426,12.072,13.055A9.916,9.916,0,0,1,173.7,27.2H155.8c.389,4.258,2.594,5.966,6.106,5.966,2.453,0,3.869-.746,4.669-1.978a2.949,2.949,0,0,1,2.475-1.394h4.442c-1.275,5.814-5.771,8.8-11.683,8.8-6.452,0-12.806-3.566-12.806-13.25Zm18.091-2.345c-.1-2.929-1.61-5.382-5.522-5.382-3.329,0-5.285,1.859-5.771,5.382Zm9.143,6.744h4.161a3,3,0,0,1,2.68,1.556c.692,1.329,2.118,1.956,4.2,1.956,2.4,0,4.009-.832,4.009-2.637,0-1.178-.778-1.9-2.442-2.248l-4.69-.973c-5.328-1.221-7.23-4.053-7.23-7.435,0-4.939,4.258-7.77,10.418-7.77,6.8,0,10.364,3.329,10.461,8.8h-3.837a2.952,2.952,0,0,1-2.594-1.61c-.7-1.329-2.1-1.859-3.934-1.859-2.442,0-3.566.875-3.566,2.248,0,1.275.929,2.107,2.637,2.442l4.788,1.027c4.009.875,7.338,2.734,7.338,7.23,0,5.674-5.231,8.116-11.391,8.116-6.8,0-10.948-2.983-11-8.851Zm28.6.735V18.2h-2.788a1.517,1.517,0,0,1-1.513-1.513V12.681h4.3V9.158a3.039,3.039,0,0,1,3.037-3.037h4.107V12.67h3.523a1.517,1.517,0,0,1,1.513,1.513v4.009h-5.036V29.432c0,1.956.584,3.275,3.231,3.275h2v5.231a15.937,15.937,0,0,1-3.912.486c-5.079,0-8.462-2.3-8.462-7.965Zm45.79-12.385c-2.54,0-4.593,1.708-4.593,5.576V38.078H238.91V23.661c0-3.858-1.61-5.576-4.2-5.576s-4.593,1.708-4.593,5.576V38.078H222.98V12.649h4.107a3.039,3.039,0,0,1,3.037,3.037v2.3h.292a7.485,7.485,0,0,1,7.435-5.814,7.647,7.647,0,0,1,7.673,5.814,8.131,8.131,0,0,1,8.062-5.814c4.788,0,8.408,3.177,8.408,9.78V38.089h-7.133V23.672c0-3.858-1.61-5.576-4.2-5.576Zm15.206,7.23c0-9.489,6.009-13.152,12.763-13.152s12.072,3.426,12.072,13.055a9.916,9.916,0,0,1-.151,1.956h-17.9c.389,4.258,2.594,5.966,6.106,5.966,2.453,0,3.869-.746,4.669-1.978a2.949,2.949,0,0,1,2.475-1.394h4.442c-1.275,5.814-5.771,8.8-11.682,8.8-6.452,0-12.806-3.566-12.806-13.25Zm18.091-2.345c-.1-2.929-1.61-5.382-5.522-5.382-3.329,0-5.285,1.859-5.771,5.382h11.294Zm23.073-4.885c-2.983,0-5.328,1.708-5.328,5.576V38.078h-7.133V12.649h4.107a3.04,3.04,0,0,1,3.037,3.037v2.3h.292c.443-2.4,2.885-5.814,8.116-5.814,4.939,0,8.754,3.177,8.754,9.78V38.089h-7.133V23.672c0-3.858-1.707-5.576-4.69-5.576Zm19.021,12.363V18.182h-2.788a1.517,1.517,0,0,1-1.513-1.513V12.66h4.3V6.11h7.133V12.66h3.523a1.517,1.517,0,0,1,1.513,1.513v4.009h-5.036V29.421c0,1.956.584,3.275,3.231,3.275a17.567,17.567,0,0,0,2-.1v5.328a15.937,15.937,0,0,1-3.912.486c-5.079,0-8.462-2.3-8.462-7.965Z" transform="translate(-81.85 -1.82)" fill="#fff"/>
      <g id="Group_66094" data-name="Group 66094" transform="translate(0.584 41.326)">
        <path id="Path_94021" data-name="Path 94021" d="M82.4,40.53h5.112a3.012,3.012,0,0,1,2.864,2.053l5.652,16.524h.249l5.652-16.524a3.037,3.037,0,0,1,2.864-2.053h5.069l-9.24,25.418H91.63L82.39,40.53Z" transform="translate(-82.39 -40.022)" fill="#fff"/>
        <path id="Path_94022" data-name="Path 94022" d="M109.3,40.53h4.107a3.039,3.039,0,0,1,3.037,3.037V65.959h-7.133V40.541Z" transform="translate(-80.218 -40.022)" fill="#fff"/>
        <path id="Path_94023" data-name="Path 94023" d="M119.25,57.621h4.161a3,3,0,0,1,2.68,1.556c.692,1.329,2.118,1.956,4.2,1.956,2.4,0,4.009-.832,4.009-2.637,0-1.178-.778-1.9-2.442-2.248l-4.69-.973c-5.328-1.221-7.23-4.053-7.23-7.435,0-4.939,4.258-7.77,10.418-7.77,6.8,0,10.364,3.329,10.461,8.8h-3.837a2.952,2.952,0,0,1-2.594-1.61c-.7-1.329-2.1-1.859-3.934-1.859-2.442,0-3.566.875-3.566,2.248,0,1.275.929,2.107,2.637,2.442l4.788,1.027c4.009.875,7.338,2.734,7.338,7.23,0,5.674-5.231,8.116-11.391,8.116-6.8,0-10.948-2.983-11-8.851Z" transform="translate(-79.415 -40.059)" fill="#fff"/>
        <path id="Path_94024" data-name="Path 94024" d="M142.461,59.243c0-5.62,4.593-6.841,8.992-7.479l4.3-.638c2.345-.346,3.08-.735,3.08-2.151V48.63c0-2.691-1.762-3.426-3.955-3.426s-4.355.432-4.355,3.815l-6.7.043V47.884c0-4.982,3.329-7.824,11.239-7.824s10.753,2.734,10.753,8.257V65.965h-3.761a3.039,3.039,0,0,1-3.037-3.037v-1.47h-.292c-.486,1.373-2.54,4.982-8.116,4.982-4.15,0-8.159-2-8.159-7.23Zm10.613,2.151c3.372,0,5.771-2.248,5.771-4.258V54.3c-.389.584-1.61.778-2.734.973l-3.566.638c-2.2.346-2.929,1.416-2.929,2.734,0,1.567,1.027,2.734,3.469,2.734Z" transform="translate(-77.542 -40.06)" fill="#fff"/>
      </g>
    </g>
  </g>
</svg>
