<svg xmlns="http://www.w3.org/2000/svg" width="34.594" height="27.311" viewBox="0 0 34.594 27.311"><path d="M36.836,26.7q0,11.25-13.477,16.211V40.961a13.765,13.765,0,0,0,6.055-4.336,10.865,10.865,0,0,0,2.578-6.953,2.008,2.008,0,0,0-.234-1.094.352.352,0,0,0-.312-.234,1.335,1.335,0,0,0-.625.313,5.217,5.217,0,0,1-3.125.9,5.163,5.163,0,0,1-4-1.875A6.428,6.428,0,0,1,24,18.734a6.618,6.618,0,0,1,4.785-1.914,7.049,7.049,0,0,1,6.055,3.125A11.388,11.388,0,0,1,36.836,26.7Zm-18.789,0q0,11.25-13.477,16.211V40.961a13.765,13.765,0,0,0,6.055-4.336A10.865,10.865,0,0,0,13.2,29.672a2.008,2.008,0,0,0-.234-1.094.352.352,0,0,0-.312-.234,1.335,1.335,0,0,0-.625.313,5.217,5.217,0,0,1-3.125.9,5.163,5.163,0,0,1-4-1.875,6.428,6.428,0,0,1,.313-8.945A6.618,6.618,0,0,1,10,16.82a7.049,7.049,0,0,1,6.055,3.125A11.388,11.388,0,0,1,18.047,26.7Z" transform="translate(-2.742 -16.32)" fill="#6a257a" stroke="rgba(0,0,0,0)" stroke-width="1"/></svg>