<svg xmlns="http://www.w3.org/2000/svg" width="1383.302" height="1482.221" viewBox="0 0 1383.302 1482.221">
  <g id="Group_66836" data-name="Group 66836" transform="translate(-187.5 -1086.855)">
    <g id="Group_66740" data-name="Group 66740" transform="translate(70.867)">
      <g id="Group_66773" data-name="Group 66773" transform="translate(123.4 1046.694)">
        <path id="Union_4" data-name="Union 4" d="M-2135.9,2834.012l6.109-1.593,1.029-.171,1.837-3.014,4.246-3.086,2.454,1.024,3.068.573,1.557,3.885-6.453,2.346-5.753,2.012-4.263,2.328Zm21.839-6.29,3.74-2.391,4.621-2.743,6.164-5.988,4.584-7.5-6.791,3.281-5.415.293-2.048,2.336-3.42,1.34-1.8-.749-1.642-1.344-.438-4.083-1.177-4.878-4.829-7.323-4.963-3.212-5.374-.433-1.209,1.962-4.327-6.412-.88-5.144-3.655-5.7-2.432-1.571-2.184,3.063-2.577-.455-2.91-7.129-4.147-5.667-4.074-7.563-3.718-4.485-5.017-5.311,2.928-3.515,4.58-7.954-.28-2.279-6.25-1.309-2.969,1.186,4.959,1.782-2.084,6.548-1.264.79-2.532-5.8-1.764-6.913-.442-3.979,2.026-6.646.031-13.73-4.251-5.275-1.75-4.381-7.292-1.9-2.833-.9-2.207-3.673-4.85-2.351-1.611-4.842-3.808-1.318-3.379-5.288-5.857-2.044-4.1-2.053h-3.276l-5.748,1.165-.284,2.712,1.183,1.475-.772,1.7-4.273-.3-5.271,5.126-5.017,2.8h-5.437l-4.625,1.94-.447-4.038-2.179-2.757-4.1-1.615-2.12-1.977-11.294-5.613-10.779-2.532-6.132.88-8.284.726-8.464,2.942-3.435.627-9.935,3.925-4.011-.46,3.93-2.869v-1.272l-4.237-8.474-3.136-.852-2.034,6.254-1.792,4.02-.88-.293-4.016-.726-1.863,2.035h-7.386l-2.062-1.178-2.906-.433-9.557,2.788-2.463-1.159-3.646,5.979-1.692,1.236-.167-.365-3.1,2.775-2.49,2.78,1.281,2.427,4.16.862.871-3.623,2.82-3.113,2.148-.307.442,4.016,1.778,2.811-2.536,4.476h-5.7l3.691,1.954-.329.988-3.235-.437-1.571,3.862,4.49,3.19,8.225,1.173,4.838,3.962H-2346v2.148l-3.29,4.48-1.651-1.354h-4.124l-1.331-2.071-5.6-2.73-.2-.068c-.221-.041-.763-.14-1.431-.257-.816-.14-1.98-.334-2.905-.461a10.971,10.971,0,0,0-1.417-.14.407.407,0,0,1-.293-.1.8.8,0,0,1-.23-.258,2.8,2.8,0,0,1-.284-.84,12.111,12.111,0,0,1-.167-2.138c0-.338.008-.636.018-.844l.009-.274-.8-1.087-1.58,1.863-2.9.726.289,2.012-1.142,2.288,3.028.451-1.318.826-3.235,4.85-4.761,1.931-.987-.988,3.271-1.191-1.15-4.025-1.7-1.277-2.464,2.03-3.655.875-1.317,3.52-5.045,1.931-11.785-5.158-2.265-2.418,1.814-1.21,1.146-2.288-2.445-2.445-6.344-.442-.446-3.271-2.031-3.488-4.5-.867-2.513,1.331-2.162-1.782-.375-.266-.419.144c-.948.33-3,1.043-3.772,1.3l-.208.037-.253.248a2.481,2.481,0,0,0-.338.573,4.922,4.922,0,0,0-.181.5l-.167.577,3.781,2.333,3.664-.735,4.639,1.647-1.227,3.059-4.589-1.331-4.549-1.615-5.284,2.053-9.124-1.619-14.529-5.135-11.173.433-5.6,1.837.117,1.385-9.087,2.49-13.839,6.462-1.317,2.784-3.674,2.793-2.941,2.058-1.706,1.137-7.987,7.675-3.79,2.92-7.527,4.724-7.959,3.537-8.708,4.788-2.559,2.089-8.234,5.148-1.281.24-6.47,9.141-6.088,9.282-2.824,9.539-1.782,1.652-2.062,11.329,1.164,3.484,2.5,9.981,1.322,8.834,2.514,3.989-1.354,2.1-4.309,2.825-7.955-5.6-7.747-1.611-1.76.735-4.584-.888-5.874-4.4-7.337-1.615-10.743-4.855-2.951-5.609-1.76-9.231-4.548-2.788-.9-3.294.894-.889.433-4.774-1.737-.871-.912-1.363,1.765-6.313-2.175-3.185-4.549-1.909-4.859-6.186-4.986-9.535-5.893-3.682.3-2.811-7.485-17.466-1.174-6.007-2.495-2.793-.293-2.048-8.352-7.621-3.691-4.431v-1.457l-3.628-2.906-9.556-1.615-10.41-.876-4.245-3.221-6.286,2.486-4.963,2.044-3.213,4.67-1.317,5.284-6.181,8.826-3.411,3.56-3.718-1.34-2.4-1.557-2.879-.938-5.469-3.253v-.894l-2.469-2.761-7.341-2.933-10.441-11.181-3.682-7.657v-11.6l-3.962-9.827-.731-3.944-2.193-1.462-1.61-3.077-7.043-2.933-1.792-2.387-9.971-11.29-1.607-4.39-6.61-3.231-2.057-6.326-3.65-4.088-1.846-.483-19.84-2.585-23.138-3.664-1.764,14.389-21.721-2.812v-.018l-37.194-4.955-17.222-3.532-23.5-14.394-20.544-12.327-17.051-10.734-26.432-15.268-.753-1.359.451-2.1,3.659-3.077-20.471-1.81-27.624-3.966-14.141-2.062-.749-2.545,0-13.406-.433-4.643-3.664-6.01-1.174-3.227-5.428-6.015-4.1-6.732-3.785-.289-4.594-1.186-.474-1.413,2.063-.884-.867-4.63-2.031-2.9-6.736-1.173-5.46-2.951-1.634-3.258-3.609-6.791-4.134-4.467h-4.1l-5.4-2.92-6.25-2.478-5.983-.776-3.42-4.011.744-2.824,2.5-10.134,1.168-2.78v-3.469l-2.192-1.318-.74-4.128-2.054-3.669-4.841-8.365-1.755-4.381-2.063-6.781-2.2-7.63-4.553-6.317-.74-4.137,1.187-5.649h1.646l2.9-2.319,1.6-5.1-1.3-3.9-3.8-.731-2.807-3.7-2.946-5.3-.293-11.772.884-2.815.885-3.236.722-3.465-7.924-8.948v-2.978l.438-.744.437-4.521-1.741-5.663-2.929-6.746-3.835-6.506-2.5-5.6,1.309-5.248.9-8.433,2.495-4.4.438-9.223-1.62-5.144-2.162-5.916-3.857-6.118,1.173-4.553,2.075-6.078,2.491-1.174.438-1.605,4.264-3.673,7.269-16.569.059-.139.293-10.716,1.922-5.9-.582-.207-3.1-6.507,1.756-8.491,1.186-12.386,2.807-4.147,11.014-18.509,9.064-19.154,7.067-20.007,4.521-9.2,4.575-14.425,3.245-9.291,7.77-2.775-2.144-1.786-2.508,1.326-3.28-4.179.447-4.2,3.83-.442,2.165-5.622-3.654-1.611.3-5.387,6.092-.871-3.741-3.88-2.062-10.167.867-4.038.018-11.064-2.5-4.706,3.254-13.455,3.023.758,3.362,4.088,3.773,3.641,4.566,2.821,6.259,2.914,4.341.921,4.047,2.021,4.747,1.349,3.154-.289v-3.487l1.792-1.642,3.019-1.963.46,1.674.456,2.6-3.245.74-.428,2.852,2.477,2.04,1.625,3.542.861,2.739,1.949-.279.28-1.828-1.313-1.9-.74-4.738,1.169-2.486-.871-2.039v-3.262l2.486-5.121-1.611-3.659-3.378-6.615.46-1.228.347-.133c.7-2.3,2.735-4.564,2.276-7.423-.966-6.007.166-6.047-6.106-12.625s-4.088-8.921-4.338-16.087-6.767-9.959-15.276-15.7-5.478-5.475-3.347-9.325-8.043-14.068-12.986-15.028-11.175-6.407-9.771-9.478,9.568-7.132,6.03-11.161-.355-10.184,5.534-14.543,15.267-6.2,14.73-10.711c-.26-2.184-4.929-1.561-9.53-.941-4.909.662-9.74,1.321-9.056-1.431,1.325-5.332,2.35-8.39,2.231-11.785s-.347-20.756.328-23.045,11-9.447,6.8-10.811a12.5,12.5,0,0,0-5.114-.024c-3.435.423-6.977.85-8.6-3.274-2.488-6.331-.944-16.2-5.019-24.747s15.512-9.983,16.068-15.666c.285-2.91-1.752-1.483-4.49-.032-2.61,1.384-5.857,2.79-8.333.48-5.074-4.731-.316-9.051,5.586-13.034s3.08-9.17,4.469-12.618-2.983-9.714-9.718-7.969-9.066-.06-9.157-2.7,9.906-8.276,11.648-12.491-1.15-11.289-3.141-14.241-6.715-8.451-7.824-18.607c-.672-6.15,1.642-6.037,4.042-5.928,1.566.07,3.168.14,4.005-1.529,2.118-4.227,1.556-9.494,1.956-19.7s-6.548-14.5-5.316-22.471,7.2-21.021,3.814-20.524-5.354,8.871-6.2,17.208-1.074,12.5-7.267,8.185-1.136-10.912-2.868-17.271-8.693-11.024-7.013-6.174,7.083,19.012-5.251,11.89-9.788-20.806-7.921-32.2-22.07-26.418-15.134-26.66,12.677-.443,12.414-7.987-18.156-.875-21.6-12.839,177.145-225.964,177.145-225.964,1.621-5.035,3.312-5.11h.014a.854.854,0,0,1,.368.073c1.822.786,4.067,5.617,6.661,9.585s4.841,6.157,6.679,10.151-2.263,5.46,1.388,7.316.657,5.263,1.5,10.521,5.079,7.564,10.9,12.082,2.067,5.119,3.983,8.64,2.426-.841,5.316-1.885a3.165,3.165,0,0,1,2.938-.009,11.086,11.086,0,0,0,3.775.34c5.186-.181,6.123-.4,9.289-1.645s2.729-2.927,4.326-3.172c.763-.118,2.038.722,3.445,1.556,1.533.907,3.224,1.81,4.59,1.468,2.621-.658,1.494-5.906,4.108-6.752s10.75,2.362,16.753,3.946,3.738-3.812,6.995-5.153a26.928,26.928,0,0,0,8.932,4.315c5.145,1.33,7.4,3.612,7.418,4.272s-7.4,1.58-11.051,2.558c-1.972.527-6.608.6-10.91.655a61.447,61.447,0,0,0-8.406.4c-2.9.669-13.5,2.737-20.194,2.971s-3.992,1.933-3.87,5.422,3.26,4.134,4.173,3.253,2.66-4.908,7.457-5.453,8.3-2.934,14.9-3.164,1.49,2.12,3.786,2.984,5.951-2.568,9.215-3.721,12.331,1.647,15.645,1.908.619,4.227,3.508,3.181,2.149-3.379,1.4-5.808c-.5-1.619,2.093-1.332,5.045-1.057a26.569,26.569,0,0,0,4.364.163c3.954-.327-2.018-3.706-2.907-7.546s4.824-2.434,6.476-1.076,2.372,8.413,2.533,13.034-.093,13.6-.619,20.13,4.463,6.17,6.865,1.932,4.222-3.452,7.534-5.928,4.868-6.59,8.678-8.328,3.219.266,2.967,1.123-2.986,3.693-4.989,5.84-1.534,4.773-1.428,7.79-2.528,8.679-.19,10.769,3.217.171,8.551-1.148,2.7-3.776,6.161-4.747,3.579-.22,7.465,2.949,7.912,7.56,13.213,13.416,9.4,7.036,13.116,10.588,3.439,6.583,4.169,8.539,12.446,7.685,16.739,8.951,13.121,2.657,13.121,2.657,6.873,7.6,7.789,9.453,3.112,8.009,3.23,11.4-2.8,3.78-6.026,3.137-5.99-1.208-9.241.323-5.692,1.9-4.159,5.242,3.99,3.448,9.248,5.342,7.9,1.8,13.56,4.435,7.041,1.549,14.838,3.164a14.558,14.558,0,0,0,7.253.05,5.848,5.848,0,0,1,4.65.2c2.415,1.05,4-.316,5.539-1.677,1.148-1.018,2.266-2.035,3.678-2.044,3.3-.02,18.181,20.513,19.337,23.871s-1.653,6.761-2.07,11.024,1.943,4.273,3.869,5.341c1.011.56,1.577-1.241,1.926-3.035a17.617,17.617,0,0,1,.6-3.1c.293.273,1.644,3.814,5.067,4.544s-5.456-23.788-6.648-28.184,2.64-2.829,4.082-4.769,6.219-3.049,13.206-5.747,10.7-4.339,11.2-6.338.07-3.4-1.408-5.144-3.934.893-5.383,2.642-7.216,4.217-10.149,4.036-3.408-.258-5.865-.362a3.8,3.8,0,0,0-2.331,1.094c-1.368,1.044-2.784,2.09-5.206-.643-3.736-4.213-2.667-.662-.145-4.149s.367-5.677,2.907-5.955,14.1-1.625,18.106-3.275.526-3.888,4.482-4.122,7.078,8.061,9.7,12.879.022,6.041,2.219,6.815,3.516,3.37,6.646,6.469,3.782,2.889,4.6,1.917,2.57-2.072,5.271-.468,4.181,3.537,10.909,9.627c4.711,4.266,6.239,3.547,8.258,2.811a7.465,7.465,0,0,1,3.148-.566c4.445.223,5.726-.956,6.908-2.223s7.366-2.618,11.38-1.247,10.413,3.506,12.626,2.012.005-5.286,3.163-4.074,6.29,4.406,10.16,7.1,3.227.454,5.264-.656-3.839-4.491-5.124-6.146-7.771-.86-8.192-2.074-2.831-5.377-4.273-8.818c-1.093-2.609-.519-2.567,2.237-2.6.881-.011,1.987-.029,3.333-.144,5.552-.477,1.137.149,1.437-4.771s.448-.677,2.774,1.037,7.025,3.813,11.244,5.649,8.518.646,7.885,1.424-1.684.437-2.254,3.005.74,4.978,1.021,10.349-1.591,5.815-1.047,7.872,1.132,2.7.461,5.082.115,3.3,1.328,2.88,1.552-1.471,3.149-1.715,1.392,2.029,4.573,3.9,1.769-.723,2.28-4.99-2.649-8.31-3.731-12.236-1.253-3.45.47-5.492,2.948-2.086,6.774-3.352,3.117-2.658,4.814-5.455,3.146-9.928,4.651-10.075,2.624-.563,2.5-4.053-1.365-9.392-2.029-9.464-1.634,1.851-1.117,3.155-4.329,5.816-6.814,4.958-2.068-2.476-1.621-5.891,3.585-8.149,4.2-12.325c.127-.881.233-1.594.345-2.183-1.77-1.984-5.5-4.145-6.829-5.049-1.451-.987-4.929-.583-6.806-2.972s-10.308-8.609-12.644-10.6-.406-6.217-.266-10.376,3.183-3.415,5.024-4.8-6.179-3.938-6.223-5.164,2.379-2.16,3.476-8.618-4.407-4.568-1.523-8.444.733-3.33,4.617-.255,2.861-1.895,2.671-4.625-4.742-3.326-3.458-4.411,3.812-1.643,4.135-5.9c.231-3.05,1.294-3.081,2.459-3.115a3.526,3.526,0,0,0,1.39-.23c1.579-.716,1.4,2.218,2.515,4.444.637,1.272,1.589.931,2.646.586a3.131,3.131,0,0,1,2.469-.1c1.922.971,7.186,5.7,10.707,9.256s3.272,15.274,5.6,19.724,7.855,5.957,7.912,7.559,1.734,3.717,4.174,5.991.71,4.129-.8,4.181a14.148,14.148,0,0,1-3.832-1.062c1.174.657,2.168,1.561,1.716,2.647-.958,2.3-4.513,8.653-4.493,9.22s5.426,6.7,7.527,7.385c1.114.361,1.4-.869,2.062-2.111a3.659,3.659,0,0,1,3.451-2.236c4.245-.053,8.333.749,8.374,2.068s-4.582,6.484-3.121,10.494,2.073,2.57,5.652,7.733,6.023,18.388,9.323,18.273.582-2.287.129-4.442a25.74,25.74,0,0,1,.152-6.425s-.923-7.52-2.657-11.236-.213-3.391,1.449-7.132,6.138-2.668,9.072.249,12.732,13.151,14.441,16.113,2.438,7.655-1.8,8.086-4.656-6.257-4.656-6.257.528,9.706,1.258,14.4,10.5,14.076,12.441,15.613,2.445,7.845,3.372,7.34,3.253-1.436,4.063-2.6-1.94-4.181.218-4.539,5.28-.184,5.547-.666-1.76-4.469.509-12.479,2.648-5.286,2.5-9.435-2.879-12.172-2.648-19.072.736-3.235,4-1.65,3.476-.5,2.577-1.884-.573-2.906-.454-7.631-3-2.067-6.614-5.528-3.557-7.239-3.959-13.361c-.325-4.935.14-4.807,3.338-4.775.771.008,1.7.009,2.818-.066,5.746-.39,3.4-.025,11.234-.015,1.563,0,2.967-.032,4.215-.066,5.011-.135,7.518-.271,7.745,1.914.283,2.728,1.6,5.232,5.012,5.677s8.924,1.388,10.472,2.467-.066.852-.452,3.32,3.592,5.539,6.006,7.06-4.317,8.836-6.14,10.694c-.9.919-2.215.719-3.313.513-1.121-.211-2.019-.43-2.033.524-.028,1.888,11.446,16.876,12.851,19.283s8.246,3.581,8.65,7.06,2.09,13.9-.039,15.107-6.151,10.409-6.751,14.868-7.806,8.958-10.31,7.536-3.163-4.045-4.672-1.348,3.3,5.359,6.8,8.165-2.318,1.214-4.809.167-6.316-2.422-7.111-.885-2.158,3.1-5.026,2.065a29.464,29.464,0,0,1-7.867-3.6c-3.477-2.238-7.017-.887-10.125-.685s-4.439-.033-4.812,2.812,10,5.315,13.1,7.378-1.932,4.127-2.255,5.743.089,2.546.441,4.516-7.656,10.557-8.776,13.618c-.728,1.991-2.572,1.863-4.853,1.75a15.691,15.691,0,0,0-3.955.163c-3.937.8-11.274-3.855-14.081-5.833s-11.783-4.876-18.572-4.639-4.352,2.417-3.6,2.391,5.171,2.085,6.4,2.231,14.941,8.824,17.094,11.015c1.221,1.242,8.481.481,14.609-.24,4.673-.549,8.688-1.076,8.866-.674.411.931-2.453,10.848-2.109,15.273s-2.459,5.279-3.495,8.052.968,6.1-3.257,9.46-6.929,7.039-9.658,7.323-6.789.238-11.161,2.089-.351,6.149-1.347,10.054-6.183,4.087-7.5,4.133-3.353-1.393-8.7-3.1a13.535,13.535,0,0,0-7.446-.329,14.169,14.169,0,0,1-3.7.341c-3.594-.251-15.538-7.01-17.046-6.957s-6.651,4.2-4.766,4.131,4.683-1.107,12.741,2.577,9.593,4.385,12.706,4.465a24.285,24.285,0,0,1,11.943,3.926c4.631,2.859,5.8,3.952,5.967,8.666s-5.246,6.6-7.24,8.938c-1.017,1.189-3.646,1.112-6.12,1.031-2.383-.08-4.623-.164-5.143.874-1.06,2.113.059,1.7,4.931,6.058,3.428,3.068,1.6,2.768-1.689,2.519a26.136,26.136,0,0,0-4.643-.031c-5.455.567.84,2.425,1.088,4.117s-16.212,16.992-16.212,16.992,5.536,1.695,5.217,3.4-8.087,6.325-8,8.776-2.736,18.977-2.74,24.264-5.676,5.107-5.119,10.186-3.578,11.076-3.513,12.962,2.176,24.469,3.8,27.811,5.937,2.436,11.219,2.252,9.376-1.838,14.02,1.4,1.186,6.944,4.765,12.107,1.805,8.433,4.963,17.763,2.673,11.614,4.325,15.709,2.441,5.013,9.217,4.4,2.715-8.78,12.332-9.117,16.148,2.835,22.113,6.026c3.463,1.852,5.448,1.464,8.359,1.045a29.681,29.681,0,0,1,8.666-.13c9.481,1.18,9.365,3.261,17.373,10.911s2.117,6.534,6.365,9.219c1.94,1.225,3.515,1.006,5.637.768a22.234,22.234,0,0,1,11.434,1.468c10.329,3.794,3.65,1.761,11.759,1.478s11.7,5.257,15.78,8.512,12.335-3.641,26.478-4.135,4.857-1.49,12.232-1.182a11.944,11.944,0,0,0,6.273-1.131,8.4,8.4,0,0,1,6.5-.824c6.464,1.284,4,6.279,4.135,10.239s.323,9.241.858,13.755,7.156,21.085,8.505,27.269,1.857,9.942,4.435,13.439,5.365,2.269,11.839,9.216,8.015,7.84,14.727,10.816,3.272,1.773,8.366,7.07,13.679,7.83,20.137,8.926,5.72-3.786,5.2-7.734-2.135-7.1-.25-7.167,5.667,5.467,10.811,6.8,2.946-2.18,1.526-4.963-5.927-7.534-3.323-14.045.736-11.355-.454-13.012-5.243-4.159-7.71-9.927-3.386-10.455-7.028-12.028-5.943-13.387-6.882-18.64-4.736-5.877-8.464-9.9-11.923-6.191-14.07-8.194,2.723-3.116,11.541-4.745,3.38-5.971,7.82-8.581,6.778-11.377,12.218-17.8,4.449-13.182,6.312-19.291-2.23-15.215-2.584-19.923-8.144-22.374-13.751-26.143-10.344-9.645-15-13.26-13.879-2.723-13.879-2.723-13.987-11.219-13.507-13.69,2.38-2.161,6.566-6.649.157-11.712-.033-17.18,2.827-5.575,4.034-8.826-12.367-13.54-13.99-22.169c-1-5.334-2.431-4.233-3.661-3.138-.76.675-1.444,1.348-1.906.5-1.21-2.225.9-6.64,1.12-11.18s-8.675-15.935-14.557-22.149-2.434-4.824.594-10.029,4.061-8.072,7.631-8.573c1.894-.267,6.254.018,11.113.3,4.3.252,8.984.5,12.7.375,7.92-.277,2.15-3.285,6.014-.776s4.91.018,7.906-6.13,5.6-7.182,9-7.3,9.059-.127,13.515,3.117,9.373,3.448,13.991,5.931a9.654,9.654,0,0,0,5.732,1.182c1.012-.068,1.584-.121,1.7.635.248,1.691-1.851,6.484.49,8.669s12.884,1.249,19.7,1.766c3.58.272,4.19-.969,4.317-2.192.116-1.106-.16-2.2,1.007-2.148,2.458.1,5,2.658,8.351,1.22s-3.735-4.213-3.735-4.213,7.087-2.513,8.538,1.213-1.565,3.83-2.864,9.919,6.785,5.049,8.148,11.609,1.647,3.908,6.227,10.734,3.666,7.613,8.485,10.466,4.949,1.148,4.879,4.55-2.158,3.1-4.5,6.388-3.491,2.766.492,8.669,3.087-3.506,6.571-6.46,8.346-9.733,13.678-8.409,4.813,2.665,9.366,3.26,8.906,6.3,11.764,1.666,5.24-6.791,7.715-11.6-4.633-8.335-1.994-8.427,4.143-.334,4-4.482-2.1-11.444-2.271-16.348-3.848-12.894-4.959-23.051,3.535-6.921,5.877-4.736,7.079,8.059,10.539,9.826,11.876,4.873,16.416,5.092,4.288,3.815,10.973,6.036,4.027,1.747,5.712,6.787-2.951,1.991-.381,5.3c1.371,1.766,3.417-.311,5.206-2.38,1.563-1.806,2.93-3.606,3.486-2.833,1.192,1.659-1.59,3.077,7.937,5.576s.36,4.9,4.346,5.513a2.668,2.668,0,0,0,3.036-1.077c.642-.723,1.444-1.449,4.253-1.066,5.5.751,2.646.1,3.149,3.666s-2.807,6.141,1.719,5.983,5.789,3.574,8.066,3.873,5.111.387,5.151,1.518-2.331,8.956,3.29,13.1,4.309,9.857,8.244,8.965,4.3-1.1,7.46,2.759.9-1.165,3.718-1.641a6.466,6.466,0,0,1,3.175.565c1.778.568,4.177,1.114,8.915-.42,7.842-2.54,6.581-.8,9.574,3.821s2.284,5.961,5.256,4.536,2.691-4.058,4.92-5.081c1.141-.523,2.172,0,3.433.51a7.062,7.062,0,0,0,4.533.533c3.935-.892.792-4.37,7.816-3.293s7.48,3.326,11.381,1.491,2.142-8.949,4.5-6.388c1.381,1.5,5.368,1.159,8.507.845,2.21-.221,4-.428,4.175.034.416,1.117-1.026,3.056-2.337,8.766s-8.131,10.479-8.188,14.258-3.4,10.882-7.2,15.545-.146,22.852-.166,22.287,5.159-9.055,8.546-14.837.314-7.186,3.121-13.326,2.624-5.944,2.453-10.848,6.123-8.52,9.782-11.859,8.37,1.785,10.9,3.963,1.259,9.019,4.25,8.159,3.4-5.405,4.152-10.907,6.554-1.551,13.22.1,8.84,4.412,13.543,9.345,7.391,6.162,11.54,6.017,5.3,5.857,7.054,12.781-3.1,24.655-3.727,28.453-8.2,3.119-11.7,5.7-1.4,8.546-2.629,11.238-7.755,4.984-8.047,7.45-.578,5.117-1.675,6.1,3.2,5.175,2.449,10.677-4.621,19.043-5.009,24.155-12.5,9.688-17.955,15.732-8.861,5.784-10.936,5.857-16.292,9.254-21.695,11.332-28.281,17.413-38.5,22.113-14.331,5.975-17.319,12.311-2.849,26.534-3.237,31.644-5.271,5.849-9.036,6.17-13.428,48.049-14.81,57.161-1.976,13.664-2.49,15.192-.912,11.738-2.087,15.933-11.29,11.912-12.667,15.736-17.8,25.545-20.1,29.968-3.57,11.263-2.56,18.593-10.976,15.488-7.42,14.609,9.58-12.23,9.611-16.762a35.378,35.378,0,0,1,5.22-18.121c4.114-6.563,14.836-23.931,20.045-26.189s8.635-12.2,14.44-19.008.914-6.263,3.07-14.835,1.94-9.319,2.4-17.833,2.766-12.747,7.256-19.323,7.083-13.464,11.378-20.222,11.094-17.57,17.638-24.784,8.607-7.664,13.391-11.23,10.78-4.908,18.356-4.229,8.688.075,12.558,2.772,3.073,6.879,3.191,10.273-6.683,19.492-9.062,21.652c-1.293,1.174-3.694.993-6,.807-1.939-.155-3.812-.313-4.91.328-2.407,1.407-9.544,7.888-5.772,7.755s7.7-1.213,11.193,1.5,5.1.012,7.522-.829,7.74-10.843,11.644-7.2,3.092,7.445,3.074,12.353-1.179,9.482.329,9.43,4.759-4.321,7.639-2.911.763,5.639,4.737,5.878,7.936,5.576,9.31,7.038,9.1,1,15.3.221,5.482.185,6.14,2.806c.409,1.63,2.353,1.161,4.9.669a18.77,18.77,0,0,1,5.111-.452c4.733.4,6.345-2.11,6.345-2.11a8.413,8.413,0,0,1,.512-1.528c.352-.769,11.575-3.8,14.486-6.926s5.447-6.232,9.244-5.609a3.379,3.379,0,0,0,3.6-1.412c.6-.79.949-1.571,1.586-1.414,1.333.332,6.334,2.99,7.337,4.654.641,1.065,3.71.808,5.445.6.976-.118,1.531-.221.993-.066-1.495.429-11.191,14.74-13.531,18.031s-12.658,21.4-15.979,23.594-1.13,5.515-2.2,7.44-1.969,3.09-6.346,2.11-4.6,3.37-5.513,4.347,3.027,5.558,3.254,6.683-7.8,25.384-9.4,28.273-1.577,8.929-6.278,9.47-1.743-1.26-6.017-4.7c-2.533-2.038-3.563-.946-4.421.141-.589.748-1.1,1.491-1.951,1.214-2.1-.682-4.456-3.244-8.249-9.153s-1.193-7.133-2.592-9.349,2.116-9.7,7.205-15.358,3.123-7.851,6.268-15.135c.962-2.228,1.447-3.413,1.659-3.987,1.418-1.671,5.747-6.529,6.9-5,1.386,1.84,2.531,2.177,2.887,1.6s10.113-13.193,10.113-13.193l-3.986-.616-20.439,14.873,4.31-17.143-6.7,2.877-2.161,8.384-15.455,22.441-3.568,5.978-12.4,7.042s-.381,5.3-6.884,2.884-6.676-7.319-8.184-7.266-10.031-6.071-16.692-13.012-12.456-21.467-12.926-24.094-11.018-1.881-18.013,3.272c-4.233,3.118-7.406.944-10.069-1.23-1.736-1.418-3.256-2.837-4.71-2.786-3.686.129-3.369,25.042-3.026,34.848s-.6,4.551,3.035,11.222.6,6.4.422,12.07-1.894,10.639-4.7,16.779c-1.472,3.221-1.4,3.063-2.227,2.936-.749-.115-2.235-.205-6.277,2.27-8.5,5.207.276,7.921.421,12.07s-42.7,20.75-55.42,24.215-22.909,14.395-25.234,23.538-7.148,11.58-9.372,12.79-8.854,5.974-13.288,8.771,6.543,3.548,6.543,3.548-5.836,5.868-11.493,6.066-14.956,4.3-26.437,10.741-10.529,12.074-16.783,16.824,4.87,9.648,4.87,9.648l13-6.118s6.482,12.614.487,13.956-25.7,10.337-22.585,12.872,3.565,4.784-7.78,5.558-15.316,3.556-19.6,10.5-9.372,12.789-13.494,13.687,1.137,10.912-4.886,11.5c-.133.012-.267.021-.4.026-5.9.206-11.943-7.526-11.943-7.526s9.6-6.376,9.5-9.017-4.1-9.3-3.273-18.012,8.736-9.368,11.258-12.855-4.449-30.055-4.607-34.581,3.82-9.573,2.6-12.175-11.737-11.673-10.28-13.235,7.476-2.148,10.156-1.11,18.6,13.7,26.9,13.41,5.824-6.244,4.17-10.34-7.872-9.166-15.222-14.2-6.729-8.828-13.987-11.218-4.723-5.5-10.164.9c-3.429,4.034-4.5,2.685-6.038,1.351a4.18,4.18,0,0,0-3.777-1.238c-4.878.869-21.132.418-29.092-.437a24.53,24.53,0,0,0-8.741.945c-3.772.925-7.081,1.834-10.495-.273-3.218-1.986-6.235-1.649-8.878-1.323-2.115.26-3.99.513-5.532-.44-3.474-2.145.582-4.929-5.272-10.389s2.7-9.157-4.759-17.334-3.693-8.428-8.218-8.269-14.645,2.4-20.434-1.175-9.2-14.783-16.851-17.537-20.328,1.842-29.353,2.912-7.088,2.513-10.113,13.193c-1.714,6.043-4.284,4.859-6.364,3.658-1.595-.922-2.9-1.853-3.311.456-.387,2.175-2.09,4.648-4.515,6.656l2.991-.287-.916,3.358-5.889,2.946-12.931,5.875-6.642,2.888-4.269,3.631-3.465,5.221-3.227,5.576-2.5,1.178-6.323,7.2-1.764.292-4.625,4.336,1.029.732-1.078,1.038,4.643.834,4.016-.861,10.423-4.535,4.179-2.82,2.978-1.187,2.883,2.12-1.6,1.606-2.789,4.363-.916,2.821,1.24.83,2.473-1.309,1.642-.292,3.857,1.186.88,1.611,1.529.275.807-1.94-.283-.374,2.721-1.512,3.709-1.141,5.058-3.236v-1.313l.916-.916,8.37-1.321,3.37-2.785,6.141-3.068.289-1.891,2.811-4.137,2.5-1.174,1.755-2.486,3.24-3.245,6.186-3.532,6.651-.74,1.67,1.668-.464,1.4-5.289,1.322-2.053,4.4-3.222,1.173-.731,3.5-3.371,4.7-.437,3.605,1.083.69,1.291-1.58,5.049-4.156,1.786,1.932h3.208l4.576,1.331,2.075,1.629,2.057,4.413,3.79,3.93,5.379-.289,2.084-1.34,2.229,1.936,2.157.717,1.75-1.168h1.62l2.251-1.264,5.808-5.185,4.719-1.625,9.246-.437,6.321-2.8,3.665-1.9,2.138.3v8.1l.6.361,1.276.393-.456.121h.889l2.463.7,8.668-2.283h-.18l2.923-.789,1.638-1.638,2.138.767v10l4.436,4.291,1.845.966,1.882,1.407-1.922.482-1.105-.415-5.343-.762-2.933.88-3.226-.293-4.553,2.057h-2.518l-8.22-1.909-7.151.289-2.789,3.668-9.76.876-3.434,1.168-1.61,4.39-1.805,1.656-.789-.316-2.031-2.319-6.281,3.506h-.934l-1.61-2.337-1.093.266-2.743,6.213-1.354,5.794-5.347,11.736.24.135-1.647,3.3-2.495,2.351-2.924,6.723-1.765,3.529.289,2.423,1.958.424,1.6-2.766,2.048-1.169,1.174-3.226,2.721-2.433,3.885-5.784,5.884-8.97,1.264-.789.469,1.57-.3,3.253-4.106,9.683-3.772,7.982-.777,4.76-.879,3.677,1.168,1.9-.3,4.007-2.793,3.529-.726,2.468.88,5.13.884,4.86-2.017,3.6-1.219,4.179-1.313,4.39,1.606,3.505.871,8.727,2.215,6.551-.1,4.219.4-.054.293,7.842,2,3.578,2.247,2.572,1.769,5.3,1.165,3.649.942.627,4.9,1.552,2.035,1.313,1.571-.428,2.929-2.784,3.988-2.36.709-.031.708-.812,4.408-4.4.438-3.952,3.33-7.242,1.367-8.591,1.174-6.755-2.035-6.831-4.107-9.25-5.017-8.573.443-3.993.447-1.2,1.16-3.479-.726-1.6-.885-6.781,2.179-5.667,1.638-8.853-1.173-3.519v-1.678l3.239-.741.867-3.6-.88-1.174.3-1.367,2.518-2.816,3.8-1.606,1.322-6.024,2.866-1.205,1.231,1.237-.893,3.564-1.756,3.52v6.7l5.731-3.375-.434-7.828-.442-2.406.446-2.969,2.08-2.531,3.619-.434,5.248-1.664-5.148-1.286-1.394-.465-.448-5.22,4.142-3.253,4.156-2.522,4.246,3.221,1.317.735.862-.861h3.574l7.711,4.8,6.254,2.062,3.821.036,1.773,3.7,3.4,3.244-.307,2.454-2.388-.446-1.119,1.119,1.156,3.019,1.75,1.174,2.22,3.258.442,14.443-3.389,2.355-2.053,8.524-4.838,1.908-.036.492c-.127,1.688-.37,4.72-.582,6.1-.027.167-.05.3-.076.433l-.086.352.325.437a6.109,6.109,0,0,0,.753.691,19.856,19.856,0,0,0,1.786,1.213c.194.118.347.2.474.275l2.066.894,1.575-.858,3.745-5.184,2.851-7.292,5.392-2.478,2.446-1.664,3.718,2.526,3.393,4.72,3.222,12.883,4.557,11.781,1.038,13.283-2.856,1.354-1.232-.307-.3-.894-1.381-.831-2.166,4.323-.293,5.176-1.5.446-2.171,2.319.294,7.2-2.8,2.508-2.923,5.266-.289,2,2,1.7-1.259.126,3.465,1.958,3.37,2.048,7.346-.879,4.846,4.4,2.892-.289,7.783-3.668,4.147-.744,4.5-1.16,5.729-5.585,4.685-5.271,5.441-3.236,10.138-6.114-.049-.321,5.911-4.282,1.76-.735,7.878-8.176.035.487,3.051-2.111,1.8-1.638,1.322-2.355,2.454-1.589,2.825-2.514.731-2.342,2.951-3.979,1.589-1.3-.272-1.214-1.759-4.422-2.5-.293-2.82-8.9,4.164-2.526,11.9-3.971,4.561-.735,8.835-.293,2.793,1.913,2.161.289,2.919-1.9,3.687-1.625,7.328-.731,2.91-2.473,2.495-4.693,2.225-2.82h2.951l2.743-1.589.288-3.172-2.047-2.928-.452-2.094,1.62-2.942v-1.967h-2.441l-2.527-1.187-1.2-1.647-.3-3.722,8.194-7.9.88-1.156,2.094-4.164,4.1-6.448,3.817-5.284,2.956-3.552,3.393-2.653,4.417-1.769,7.8-1.909,4.549.293,6.29-2.048,10.661-2.965.077.731,36.711-10.4,1.263-7.44,2.112-2.869,2.143,2.143.9-2.4h1.078l-.094-.289,3.469-.452,1.985.569V2139l1.178-7.945,3.645-6.709,2.067-5.736-2.78-3.515v-8.564l1.183-1.331,1.164-3.934-.289-2-.3-6.958,2.508-6.927,4.106-12.76,2.956-6.064h1.814l1.823.3v1.656l1.737,3.19,3.75.867,1.128-1.129v-1.326l5.694-4.093,2.572-2.553,2.1.3,8.352,3.52,2.694,1.344,13.356,42.41h8.361l1.2,2.842.289,6.882,4.07,3.2h1.67l-1.069-2.356,3.493.154,2.838,2.96,3.249,5.311v2.82l-2.956,6.795-2.8.889-4.652,4.359-6.809,7.982h-1.8a.523.523,0,0,1-.3-.113l-1.358-1.015.632-.234-.361-1.566-2.382.28-1.313,2.039-3.375,2.057-1.286,1.99,2.211,2.062-.768.916-.74,4.007-2.915-.3v-2.315l-.419-1.927-2.044.438-2.481-4.675-2.812,1.823,1.724,2.008.452,1.656-1.178,1.918.437,4.368.149,2.387-2.229,3.713-4.092.731-.437,4.1-7.522,4.422-1.8.753-2.328-2.035-4.192,5.053,1.327,4.558-2.066,1.917-.293,6.29-2.035,10.035.14.051-1.471,4.714-.415,2.036,4.233,6.5-3.357,7.287-.47,2.093,2.73,3.6,1.579-1.151h2.554l3.253,3.7,5.42,8.491,4.94.726,3.2-1.3,2.459-2.459-1.155-3.9-2.884-2.31-2.071,1.183-1.39-2.008.794-.79,2.978-.3,2.532,1.186,2.657,3.552,1.328,4.124.446,3.587-5.871,2.053-5.464,2.8-3.975,4.724h.9l-5.257,3.872v-1.643l3.384-2.062.726-2.451-1.15-4.3-4.016,2.009-1.15,2.011.74,3.259-3.921,2.111-.1-.172-4.128,2.211-1.741-.293-1.6,2.468-3.393,2.807-3.384,1.2.054.24-11.655,5.311-7.232,1.593-3.953,2.094-1.159-.871-2.735,2.884-5.013,4.715-5.956,4.179-.338,2.558-2.776,2.337.41,1.805,1.679-.42,2.008-1.867,3.266-3.7,1.656-.9,2.117.848,3.307.33,11.022-5.51,4.233-4.034,1.769-2.066,6.01,2.409-4.769,5.215-15.427,11.755-3.673,1.322-8.212,2.788-5.766,1.625-2.255-.8-.967-.279-.238,2.652-2.933,2.794-2.622,2.143,5.464-.627,1.665-1.213,2.391,4.931.293,13.361.885,1.625-1.62,7.959-4.264,9.259-3.812,5.721-1.173,6.9-2.969,3.56h-1.268l-.451-4.052,1.173-1.322-.28-1.972-5.685-.876-6.773-3.239-7.621-6.881,3.448,6.037,3.235,1.318,2.8,5.167,2.49,6.741,4.937,3.483,1.358-.753,3.281,10.725-.113.023,1.124,7.707-2.942,10.008-4.255,6.89-.293,10.116-1.177,5.157-2.812,6.074-2.143-.307-2.075-4.9.735-10.013,3.231-6.9V2393.2l-2.473-.726-4.534-7.31-2.31,1.156-5.483-.744-3.7-4.887.443-4.9,2.174-1.881-2.093-2.373-1.58,2.725-.844.338-.451-5.279,2.938-1.322-.726-7.829-2.487-.437-.46-1.674,1.773-5.319,1.1-1.259-1.105-1.12-1.358,1.147-2.558,1.746-.24.212-.085.252c-.068.2-.163.492-.248.795a8.311,8.311,0,0,0-.365,1.755,2.081,2.081,0,0,1-.334.939,10.031,10.031,0,0,1-.708,1.074c-.2.271-.392.518-.56.722l-.424.532,1.728,1.873.293,2.969-1.756,7.626,2.92,7.9,3.388,2.941v2.653l2.067,2.951-1.358,3.163-2.991-.447-4.255-1.318-5.6.136,1.963,1.633,7.341.438,3.673,3.236,4.558.879,1.8,1.949-.731,6.457,1.313,1.318.293,3.24,1.769,3.091-.307,2.6-6.985-2.481,5.234,4.408v1.615l2.035,1.6,1.778,2.369.3,3.295-4.842,3.081,10.185-2.011,1.669-.3,5.789,10.094-.491.176,2.346,6.751,4.954,9.2,3.434,3.624.5,1.836,1.967-.563,3.849,7.99.586,6.331-.292,4.892-4.621,2.165-4.065,3.574-1.783,1.629-1.633-.325,3.744-3.6,4.441-3.7,2.17-.87.289-2.888-.875-8.785-2.053-3.37-.362-1.083-3.109.27-.509,6.989-3.682,1.914-.871,2.915-1.773,4.137-5.329,2.369-3.389-.442-1.85-.266.2.32-2.243-1.823v2.657h2.757l1.214,1.973-2.775,8.893h5.829l.862,2.292,3.163-3.163,1.954-.812-2.875,5.293-4.291,6.953h-1.813l-1.607-.732-3.7.853-7.323,3.492-9.1,7.6-4.7,6.7-2.861,9.372-.74,3.533-6.555.731-7.093,2.477-7.639,7.78-3.61,8.672-.786,9.1-2.21,1.182-1.62,3.971-3.384.885-2.928,5.121-3.767,3.912-3.285,4.9-2.247,1.124-5.112,4.909-4.056.289,1.309,4.656-7.079,7.964-2.929,1.123,1.047,2.789-5.726,9.989.731,3.659-2.048,5.992-3.239,14.416,1.628,8.88-.361-.018,2.834,11.339,5.274,13.929,7.509,13.419,5.243,8.879,6.75,7.946,5.762,5.329,2.229,4.16-1.6,1.9-1.2,1.922,4.1,10.527,4.111,4.107,3.691,7.674,4.963,8.32,6.33,11.773,1.76,10.878.731,16.907.889,2.616-.447,4.9-3.366,1.9.433,2.757-.879,2.793.825,6.61,2.424-7.54,1.164-.83-.307,5-1.3,2.46-3.551,9.6-5.3,5.591-11.353,9.141Zm-280.128-745.382c2.485,2.655,1.275.487,2.718-1.452s-.485.521,2.308,1.179,4.3-3.171,4.454-5.819.6-4.553-.268-7.67-2.875-3.047-3.579-5.162,1.229-8.1.37-7.439-1.829,1.7-6.6,1.993-6.127,4.746-4.531,7.207,1.835,2.075-1.173,6.082-1.525,3.2.171,4.9,1.05,1.221,1.156,4.239c0,0,.4-3.035,2.409-3.1l.083,0C-2394.8,2077.3-2396.636,2079.723-2394.186,2082.34Zm-165.274-50.467c2.528.29,3.972,2,3.085,5.432s-3.671,3.023-1.411,6.468-2.474,12.046-.678,16.639,2.616,9.1,3.582,10.2,1.042-3.937,3.37-5.782,4.868-1.176,3.982-4.921-1.578-9.134-.808-12.308,3.122-.739-.493-6.9-5.172-11.149-6.826-15.245-2.992-2.79-4.581-8.652-1.988-6.475-4.265-10.425-.141-4.022-4.308-15.206-8.04-13.942-8.617-16.061-.243-3.391-.726-6.4-.986-2.986-2.127-6.848-1.362-2.974.211-4.791-.516-7.535-.516-7.535l-9.132,5.227,4.116,2.5.185,5.28,3.755,3.016-1.712,3.207s-6.142-1.045-9.6-2.686-.8-1.232-1.338,1.3-3.561,6.167-4.228,8.708-4.406,7.2-4.353,8.712,3.05,4.424,4.235,5.893c.7.868,1.272.6,2.508.3a11.421,11.421,0,0,1,3.786-.272c4.292.353,4.6,1.979,2.229,2.566a8.741,8.741,0,0,1-2.375.1c-1.881-.086-3.568-.18-2.951,2.349.881,3.619,4.47,1.859,4.117,6.15s1,3.363,2.374,6.715,3.7,5.032,6.038,7.089,2.773,7.331,4.053,7.915,2.959,5.436,4.032.11,2.551-6.256,3.682-6.3-2.843,1.484.154,4.4,6.73,5.3,6.446,7.958.006,2.264.255,6.536,1.82,9.629,2.394,4.449c.551-4.956-.015-8.836,2.146-8.912h.062A2.38,2.38,0,0,1-2559.46,2031.873Zm334.3-126.724c2.684,1.165,2.807,4.684,4.225,5.643s7.261-1.134,10.927-4.284,8.01-4.937,10.715-6.794,2.162-2.971-.131-3.771c-1.194-.417-2.889.479-4.648,1.378-1.621.827-3.3,1.658-4.693,1.465-2.91-.4-5.329-1.2-2.049-4.586s6.621-5.014,5.287-7.232.089-4.661-4.312-4.507a13.519,13.519,0,0,0-6.857,1.876c3.16.393,5.311.7,3.235,2.531a27,27,0,0,0-4.913,7.095c.014.377.3,1.5-2.5,3.99s-7.247,5.162-8.217,6.2c-.458.491-.205.481.473.455l.122,0c.147-.005.311-.01.489-.01A7.037,7.037,0,0,1-2225.156,1905.15Zm-440.117-22.433c-.221.008-.6.037-1.227.084-3.138.235-4.521.283-3.19,2.376s1.362,2.974,5.611,2.07c3.888-.827,10.732-7.121,11.866-8.182-.389.927.178-.169.178-.169s-.073.07-.178.169c.141-.337.4-.933.872-1.955,1.754-3.837.565-5.432,2.982-8.286s3.931-2.78,4.78-3.691-3.525-3.654-1.893-7.361,8.072-10.352,8.266-12c.111-.932-1.346-.433-2.748.063-1.073.379-2.112.757-2.394.495-.65-.607,1.537-6.473,1.52-6.977s-2.892.1-2.892.1c-3.056,2.623-7.849,5.939-8.134,8.591s-.717,4.684-3.383,4.02-3.815,2.525-5.209,5.847-.849,4.56,2.167,7.98,4.693,4.619,2.683,8.339-5.8,10.4-8.355,9.481c-1.944-.7-.581-1-1.216-1Zm564.361-38.675c2.393.042,4.193,1.112,5.992,2.182s1.994-.573.922-2.425-.977-2.734,3.492-4.527,9.911-.976,8.071-3.176c-.854-1.024-3.4-.031-6.129.967-3.141,1.151-6.516,2.308-7.795.4-2.39-3.567.929-5.822-2.448-5.2s-2.335,5.242-3.97,1.649-2.457-5.451-3.228-5.929-7.969-1.105-2.75-3.05,8.272-1.045,10.834.251,3.045,4.3,5.357,5.6,2.839-1.609.983-4.314c-1.34-1.95-.124-1.961,1.547-1.987a11.85,11.85,0,0,0,2.028-.151c2.376-.461,3.056-2.624.241-3.911-1.265-.578-2.7-.133-4.025.308-1.626.541-3.095,1.075-3.905-.282-1.47-2.467,2.709-1.732,2.838-5.26s-4.82-1.09-7.269.883c-1.375,1.108-1.606.906-2.271.721a5.339,5.339,0,0,0-3.109.223c-4.115,1.15-6.653,4.134-8.128,5.192s-3.445,2.26-3.445,2.26c1.072,1.851,1.9,3.836,3.549,4.283a4.423,4.423,0,0,0,1.511.069c1-.074,1.76-.139,1.819,1.576.088,2.515-3.267,3.765-5.213,5.72s-4.576,2.3-.9,3.178,6.972,1.393,8.43,3.482,2.388-.083,4.23-1.407a1.186,1.186,0,0,1,.592-.27h.014C-2102.155,1841.1-2102.962,1844-2100.911,1844.042Zm84.5-23.9a15.7,15.7,0,0,0,6.035-.41c2.86-.982,5.353-1.7,2.189-2.217a17.291,17.291,0,0,0-3.955.144c-3.338.338-7.265.7-8.825-2.089-2.283-4.074-3.143-7.065-3.793-7.673-.284-.265.805-.1,2.237.052,1.859.2,4.3.375,5.051-.433,1.334-1.43-1.857-2.7-3.141-3.415s1.181-2.254,2.392-3.581-.561-1.643-1.246-3.256,1-.16,5.688.683,8.756-1.565,9.834-3.114-3.153-3.791.7-5.185a5.314,5.314,0,0,1,3.692.094c1.475.515,2.012,1.062.907-1.765-1.8-4.595-3.683-4.529-3.779-7.295s-1.554-4.855-3.778-3.645-6.119,5-6.119,5,5.3,3.968,5.348,5.351.11,3.144-4.622,1.043-7.723-4.891-11.314-6.781-.979.789-1.511,3.578-3.961,1.9-3.982,4.923,1.06,5.124.319,5.526-2.442-1.424-6.544-3.548-7.573-.616-6.064,2.981,7.7,7.914,5.87,9.488-7.66.519-10.631-1.643-9.468-.8-10.094-4.3-2.179-4.707-2.179-4.707c.027.754-.553,2.159-.933,5.7s-5.728,5.361-.7,5.186,11.45-.148,15.53,1.346,6.907,3.157,10.3,3.038,5.147,3.219,7.017,6.3,2.932,4.682,6.578,4.554q.439-.015.867-.015C-2018.144,1820.052-2017.261,1820.1-2016.41,1820.144Zm-738.319-35.215a14.034,14.034,0,0,0-3.208.868c-5.6,1.895-7.58,4.607-12.755,7.809a143.4,143.4,0,0,0-12.878,9.7c-1.7.059-6.7,2.689-6.7,2.689,3.271,1.773,7.265,2.578,9.75,3.435s5.148-3.956,9.022-6.546.635-3.421,10.82-3.777,17.733-.43,22.818-.8,4.45-2.61,8.884-2.576,9.031,1.95,11.3,2.06,6.36-1.733-7.559-5.59-19.347-2.534-21.422-2.462c-1.026.036-.89-1.031-1.084-2.1-.2-1.09-.74-2.18-3.217-2.093a6.215,6.215,0,0,1-2.8-.307,1.824,1.824,0,0,0-.907-.318Zm-112.746-81.029c2.55,2.743,4.322,10.234,8.868,10.641s4.885,4.739,9.855,6.454,1.822,3.523,10.986,6.413,18.979,8.212,25.167,1.575,7.826-8.392,12.28-10.624a9.927,9.927,0,0,1,7.167-.712,14.4,14.4,0,0,0,3.206.349c3.394-.118,20.146-12.41,24.365-15.956s6.347-2.111,9.143-3.152-4.2-1.174-.146-4.148,10.208-5.077,4.343-5.439c-2.615-.161-4.539,1.192-6.159,2.532-2.016,1.669-3.564,3.322-5.389,2.026-3.289-2.34,1.326-5.333,4.5-6.2s10.965.373,15.953,2.653,14.035,1.775,9.428-.329-15.336-6.64-21.208-7.189-10.611,4.335-14.3,6.918-4.255,7.889-10.446,9.05-9.721,2.794-15.04,1.848-9.383,1.648-12.859-5.972-7.3-9-10.671-13.6-10.786-11.519-5.929-13.01,7-5.154,3.5-2.577-6.084,4.177-6.775.614-3.46-1.767-1.565,3.831-.6,4.551,3.209,10.838,3.2,5.175,5.214,8.693,2.309,1.241,2.9,7.451,2.918,7.827-2.572,7.454-12.29-.516-12.932,2.717-3.022,5.392-5.193,8.111-6.5-2.228-9.339-2.506a1.847,1.847,0,0,0-1.829.766c-.644.748-1.164,1.491-4.583-.542-5.4-3.209-13.526-14.254-13.526-14.254C-2868.7,1701.3-2870.026,1701.157-2867.475,1703.9Zm-242.811,835.131-.117-.239a21.176,21.176,0,0,1-.948-2.175l-.031-.1a3.445,3.445,0,0,1-.221-1.079v-4.394l3.064-.763,3.095,5.64,3.082,4.874-5.387.771Zm5.627-12.967-1.457-1.819-2.843-3.853v-3.357l3.524-.7,4.693,3.609,1.827,3.457-1.556,4.345Zm-37.5-30.223-1.674-3.948,4.8-.148.036,0,1.805,2.252-.312,2Zm1122.291-207.383,1.336-.943-1.426,1.625Zm-252.256-110.628-.154-.609-.735-2.933-1.336-.749.465-1.71,2.234-.3,3.136-.3.541.708c.3.393.69.884,1.015,1.268a6.966,6.966,0,0,0,.564.614l.072.058a.5.5,0,0,1,.172.194l.149.343a5.338,5.338,0,0,1,.181.8c.081.491.121.938.13,1.069l0,.031-1.809,1.809Zm-121.471-49.233,2.712-3.01,2.987-1.141,7.738-5.618,3.281-.894.663.663-7.247,7.4-4.711,2.8-2.969,1.335Zm511.052-100.5c-.286.337-.455.547-.455.547S-1882.06,2026.795-1882.539,2028.1Z" transform="translate(3194.267 -1318.306)" fill="#e7d7b6" stroke="rgba(0,0,0,0)" stroke-miterlimit="10" stroke-width="1"/>
      </g>
    </g>
    <g id="San_Francisco" data-name="San Francisco" transform="translate(192 2002.098)">
      <g id="Group_66709" data-name="Group 66709" transform="translate(-5513 -3412)">
        <circle id="Ellipse_74" data-name="Ellipse 74" cx="26.188" cy="26.188" r="26.188" transform="translate(5513 3412)" fill="#fff" opacity="0.45"/>
        <path id="Path_94040" data-name="Path 94040" d="M16.367,0A16.367,16.367,0,1,1,0,16.367,16.367,16.367,0,0,1,16.367,0Z" transform="translate(5522.82 3421.821)" fill="#c3922e"/>
      </g>
      <text id="San_Francisco-2" data-name="San Francisco" transform="translate(120.879 30)" fill="#1e3b6b" font-size="20" font-family="Inter Tight" font-weight="600" letter-spacing="0.03em"><tspan x="-66.862" y="0">San Francisco</tspan></text>
    </g>
    <g id="Boston" transform="translate(1389.194 1927.446)">
      <g id="Group_66709-2" data-name="Group 66709" transform="translate(-5513 -3412)">
        <circle id="Ellipse_74-2" data-name="Ellipse 74" cx="26.188" cy="26.188" r="26.188" transform="translate(5513 3412)" fill="#fff" opacity="0.45"/>
        <path id="Path_94040-2" data-name="Path 94040" d="M16.367,0A16.367,16.367,0,1,1,0,16.367,16.367,16.367,0,0,1,16.367,0Z" transform="translate(5522.82 3421.821)" fill="#c3922e"/>
      </g>
      <text id="Boston-2" data-name="Boston" transform="translate(83.188 32.376)" fill="#1e3b6b" font-size="20" font-family="Inter Tight" font-weight="600" letter-spacing="0.03em"><tspan x="-33.331" y="0">Boston</tspan></text>
    </g>
    <g id="Atherton" transform="translate(193.503 2034.098)">
      <g id="Group_66709-3" data-name="Group 66709" transform="translate(-5513 -3412)">
        <circle id="Ellipse_74-3" data-name="Ellipse 74" cx="26.188" cy="26.188" r="26.188" transform="translate(5513 3412)" fill="#fff" opacity="0.45"/>
        <path id="Path_94040-3" data-name="Path 94040" d="M16.367,0A16.367,16.367,0,1,1,0,16.367,16.367,16.367,0,0,1,16.367,0Z" transform="translate(5522.82 3421.821)" fill="#c3922e"/>
      </g>
      <text id="Atherton-2" data-name="Atherton" transform="translate(94.376 36)" fill="#1e3b6b" font-size="20" font-family="Inter Tight" font-weight="600" letter-spacing="0.03em"><tspan x="-42.168" y="0">Atherton</tspan></text>
    </g>
    <g id="Calgary" transform="translate(497 1704.134)">
      <g id="Group_66709-4" data-name="Group 66709" transform="translate(-5497 -3412)">
        <circle id="Ellipse_74-4" data-name="Ellipse 74" cx="26.188" cy="26.188" r="26.188" transform="translate(5513 3412)" fill="#fff" opacity="0.45"/>
        <path id="Path_94040-4" data-name="Path 94040" d="M16.367,0A16.367,16.367,0,1,1,0,16.367,16.367,16.367,0,0,1,16.367,0Z" transform="translate(5522.82 3421.821)" fill="#c3922e"/>
      </g>
      <text id="Calgary-2" data-name="Calgary" transform="translate(37 66.376)" fill="#1e3b6b" font-size="20" font-family="Inter Tight" font-weight="600" letter-spacing="0.03em"><tspan x="-36.912" y="0">Calgary</tspan></text>
    </g>
    <g id="Toronto" transform="translate(1164 1907.634)">
      <g id="Group_66709-5" data-name="Group 66709" transform="translate(-5481.879 -3412)">
        <circle id="Ellipse_74-5" data-name="Ellipse 74" cx="26.188" cy="26.188" r="26.188" transform="translate(5513 3412)" fill="#fff" opacity="0.45"/>
        <path id="Path_94040-5" data-name="Path 94040" d="M16.367,0A16.367,16.367,0,1,1,0,16.367,16.367,16.367,0,0,1,16.367,0Z" transform="translate(5522.82 3421.821)" fill="#c3922e"/>
      </g>
      <text id="Toronto-2" data-name="Toronto" transform="translate(37 65)" fill="#1e3b6b" font-size="20" font-family="Inter Tight" font-weight="600" letter-spacing="0.03em"><tspan x="-36.829" y="0">Toronto</tspan></text>
    </g>
    <g id="Vancouver" transform="translate(296.121 1693.722)">
      <g id="Group_66709-6" data-name="Group 66709" transform="translate(-5513 -3412)">
        <circle id="Ellipse_74-6" data-name="Ellipse 74" cx="26.188" cy="26.188" r="26.188" transform="translate(5513 3412)" fill="#fff" opacity="0.45"/>
        <path id="Path_94040-6" data-name="Path 94040" d="M16.367,0A16.367,16.367,0,1,1,0,16.367,16.367,16.367,0,0,1,16.367,0Z" transform="translate(5522.82 3421.821)" fill="#c3922e"/>
      </g>
      <text id="Vancouver-2" data-name="Vancouver" transform="translate(103.376 32.188)" fill="#1e3b6b" font-size="20" font-family="Inter Tight" font-weight="600" letter-spacing="0.03em"><tspan x="-50.974" y="0">Vancouver</tspan></text>
    </g>
    <g id="Manhattan" transform="translate(1352.812 1979.793)">
      <g id="Group_66709-7" data-name="Group 66709" transform="translate(-5513 -3412)">
        <circle id="Ellipse_74-7" data-name="Ellipse 74" cx="26.188" cy="26.188" r="26.188" transform="translate(5513 3412)" fill="#fff" opacity="0.45"/>
        <path id="Path_94040-7" data-name="Path 94040" d="M16.367,0A16.367,16.367,0,1,1,0,16.367,16.367,16.367,0,0,1,16.367,0Z" transform="translate(5522.82 3421.821)" fill="#c3922e"/>
      </g>
      <text id="Manhattan-2" data-name="Manhattan" transform="translate(102.188 33.188)" fill="#1e3b6b" font-size="20" font-family="Inter Tight" font-weight="600" letter-spacing="0.03em"><tspan x="-51.414" y="0">Manhattan</tspan></text>
    </g>
    <g id="Philadelphia" transform="translate(1311.188 2049.424)">
      <g id="Group_66709-8" data-name="Group 66709" transform="translate(-5513 -3412)">
        <circle id="Ellipse_74-8" data-name="Ellipse 74" cx="26.188" cy="26.188" r="26.188" transform="translate(5513 3412)" fill="#fff" opacity="0.45"/>
        <path id="Path_94040-8" data-name="Path 94040" d="M16.367,0A16.367,16.367,0,1,1,0,16.367,16.367,16.367,0,0,1,16.367,0Z" transform="translate(5522.82 3421.821)" fill="#c3922e"/>
      </g>
      <text id="Philadelphia-2" data-name="Philadelphia" transform="translate(106.376 26.188)" fill="#1e3b6b" font-size="20" font-family="Inter Tight" font-weight="600" letter-spacing="0.03em"><tspan x="-57.88" y="0">Philadelphia</tspan></text>
    </g>
    <g id="Dover" transform="translate(1311.188 2078.424)">
      <g id="Group_66709-9" data-name="Group 66709" transform="translate(-5513 -3412)">
        <circle id="Ellipse_74-9" data-name="Ellipse 74" cx="26.188" cy="26.188" r="26.188" transform="translate(5513 3412)" fill="#fff" opacity="0.45"/>
        <path id="Path_94040-9" data-name="Path 94040" d="M16.367,0A16.367,16.367,0,1,1,0,16.367,16.367,16.367,0,0,1,16.367,0Z" transform="translate(5522.82 3421.821)" fill="#c3922e"/>
      </g>
      <text id="Dover-2" data-name="Dover" transform="translate(78.812 33.188)" fill="#1e3b6b" font-size="20" font-family="Inter Tight" font-weight="600" letter-spacing="0.03em"><tspan x="-27.909" y="0">Dover</tspan></text>
    </g>
    <g id="Pittsburgh" transform="translate(1192 2052.446)">
      <g id="Group_66709-10" data-name="Group 66709" transform="translate(-5493.879 -3396)">
        <circle id="Ellipse_74-10" data-name="Ellipse 74" cx="26.188" cy="26.188" r="26.188" transform="translate(5513 3412)" fill="#fff" opacity="0.45"/>
        <path id="Path_94040-10" data-name="Path 94040" d="M16.367,0A16.367,16.367,0,1,1,0,16.367,16.367,16.367,0,0,1,16.367,0Z" transform="translate(5522.82 3421.821)" fill="#c3922e"/>
      </g>
      <text id="Pittsburgh-2" data-name="Pittsburgh" transform="translate(49 19)" fill="#1e3b6b" font-size="20" font-family="Inter Tight" font-weight="600" letter-spacing="0.03em"><tspan x="-49.458" y="0">Pittsburgh</tspan></text>
    </g>
    <g id="Los_Angeles" data-name="Los Angeles" transform="translate(213.879 2171.186)">
      <g id="Group_66709-11" data-name="Group 66709" transform="translate(-5460.879 -3412)">
        <circle id="Ellipse_74-11" data-name="Ellipse 74" cx="26.188" cy="26.188" r="26.188" transform="translate(5513 3412)" fill="#fff" opacity="0.45"/>
        <path id="Path_94040-11" data-name="Path 94040" d="M16.367,0A16.367,16.367,0,1,1,0,16.367,16.367,16.367,0,0,1,16.367,0Z" transform="translate(5522.82 3421.821)" fill="#c3922e"/>
      </g>
      <text id="Los_Angeles-2" data-name="Los Angeles" transform="translate(58 65)" fill="#1e3b6b" font-size="20" font-family="Inter Tight" font-weight="600" letter-spacing="0.03em"><tspan x="-58.083" y="0">Los Angeles</tspan></text>
    </g>
    <g id="San_Diego" data-name="San Diego" transform="translate(250.879 2233.098)">
      <g id="Group_66709-12" data-name="Group 66709" transform="translate(-5470.879 -3412)">
        <circle id="Ellipse_74-12" data-name="Ellipse 74" cx="26.188" cy="26.188" r="26.188" transform="translate(5513 3412)" fill="#fff" opacity="0.45"/>
        <path id="Path_94040-12" data-name="Path 94040" d="M16.367,0A16.367,16.367,0,1,1,0,16.367,16.367,16.367,0,0,1,16.367,0Z" transform="translate(5522.82 3421.821)" fill="#c3922e"/>
      </g>
      <text id="San_Diego-2" data-name="San Diego" transform="translate(48 65)" fill="#1e3b6b" font-size="20" font-family="Inter Tight" font-weight="600" letter-spacing="0.03em"><tspan x="-47.962" y="0">San Diego</tspan></text>
    </g>
    <g id="Washington_DC" data-name="Washington DC" transform="translate(1212.594 2106.612)">
      <g id="Group_66709-13" data-name="Group 66709" transform="translate(-5467.188 -3412)">
        <circle id="Ellipse_74-13" data-name="Ellipse 74" cx="26.188" cy="26.188" r="26.188" transform="translate(5513 3412)" fill="#fff" opacity="0.45"/>
        <path id="Path_94040-13" data-name="Path 94040" d="M16.367,0A16.367,16.367,0,1,1,0,16.367,16.367,16.367,0,0,1,16.367,0Z" transform="translate(5522.82 3421.821)" fill="#c3922e"/>
      </g>
      <text id="Washington_D.C." data-name="Washington, D.C." transform="translate(83 68.376)" fill="#1e3b6b" font-size="20" font-family="Inter Tight" font-weight="600" letter-spacing="0.03em"><tspan x="-82.576" y="0">Washington, D.C.</tspan></text>
    </g>
    <g id="Detroit" transform="translate(1071.497 1989.098)">
      <g id="Group_66709-14" data-name="Group 66709" transform="translate(-5486.188 -3397)">
        <circle id="Ellipse_74-14" data-name="Ellipse 74" cx="26.188" cy="26.188" r="26.188" transform="translate(5513 3412)" fill="#fff" opacity="0.45"/>
        <path id="Path_94040-14" data-name="Path 94040" d="M16.367,0A16.367,16.367,0,1,1,0,16.367,16.367,16.367,0,0,1,16.367,0Z" transform="translate(5522.82 3421.821)" fill="#c3922e"/>
      </g>
      <text id="Detroit-2" data-name="Detroit" transform="translate(32 19)" fill="#1e3b6b" font-size="20" font-family="Inter Tight" font-weight="600" letter-spacing="0.03em"><tspan x="-32.357" y="0">Detroit</tspan></text>
    </g>
    <g id="Columbus" transform="translate(1118.309 2093.446)">
      <g id="Group_66709-15" data-name="Group 66709" transform="translate(-5498.188 -3412)">
        <circle id="Ellipse_74-15" data-name="Ellipse 74" cx="26.188" cy="26.188" r="26.188" transform="translate(5513 3412)" fill="#fff" opacity="0.45"/>
        <path id="Path_94040-15" data-name="Path 94040" d="M16.367,0A16.367,16.367,0,1,1,0,16.367,16.367,16.367,0,0,1,16.367,0Z" transform="translate(5522.82 3421.821)" fill="#c3922e"/>
      </g>
      <text id="Columbus-2" data-name="Columbus" transform="translate(48 61.652)" fill="#1e3b6b" font-size="20" font-family="Inter Tight" font-weight="600" letter-spacing="0.03em"><tspan x="-48.106" y="0">Columbus</tspan></text>
    </g>
    <g id="Chicago" transform="translate(960 2032.612)">
      <g id="Group_66709-16" data-name="Group 66709" transform="translate(-5477.188 -3412)">
        <circle id="Ellipse_74-16" data-name="Ellipse 74" cx="26.188" cy="26.188" r="26.188" transform="translate(5513 3412)" fill="#fff" opacity="0.45"/>
        <path id="Path_94040-16" data-name="Path 94040" d="M16.367,0A16.367,16.367,0,1,1,0,16.367,16.367,16.367,0,0,1,16.367,0Z" transform="translate(5522.82 3421.821)" fill="#c3922e"/>
      </g>
      <text id="Chicago-2" data-name="Chicago" transform="translate(39 66.376)" fill="#1e3b6b" font-size="20" font-family="Inter Tight" font-weight="600" letter-spacing="0.03em"><tspan x="-39.251" y="0">Chicago</tspan></text>
    </g>
    <g id="Indianapolis" transform="translate(993 2107.722)">
      <g id="Group_66709-17" data-name="Group 66709" transform="translate(-5461.879 -3412)">
        <circle id="Ellipse_74-17" data-name="Ellipse 74" cx="26.188" cy="26.188" r="26.188" transform="translate(5513 3412)" fill="#fff" opacity="0.45"/>
        <path id="Path_94040-17" data-name="Path 94040" d="M16.367,0A16.367,16.367,0,1,1,0,16.367,16.367,16.367,0,0,1,16.367,0Z" transform="translate(5522.82 3421.821)" fill="#c3922e"/>
      </g>
      <text id="Indianapolis-2" data-name="Indianapolis" transform="translate(57 65)" fill="#1e3b6b" font-size="20" font-family="Inter Tight" font-weight="600" letter-spacing="0.03em"><tspan x="-57.177" y="0">Indianapolis</tspan></text>
    </g>
    <g id="Dallas" transform="translate(802 2290.446)">
      <g id="Group_66709-18" data-name="Group 66709" transform="translate(-5507.376 -3412)">
        <circle id="Ellipse_74-18" data-name="Ellipse 74" cx="26.188" cy="26.188" r="26.188" transform="translate(5513 3412)" fill="#fff" opacity="0.45"/>
        <path id="Path_94040-18" data-name="Path 94040" d="M16.367,0A16.367,16.367,0,1,1,0,16.367,16.367,16.367,0,0,1,16.367,0Z" transform="translate(5522.82 3421.821)" fill="#c3922e"/>
      </g>
      <text id="Dallas-2" data-name="Dallas" transform="translate(29 65)" fill="#1e3b6b" font-size="20" font-family="Inter Tight" font-weight="600" letter-spacing="0.03em"><tspan x="-28.741" y="0">Dallas</tspan></text>
    </g>
    <g id="Charlotte" transform="translate(1222.309 2193.446)">
      <g id="Group_66709-19" data-name="Group 66709" transform="translate(-5513 -3412)">
        <circle id="Ellipse_74-19" data-name="Ellipse 74" cx="26.188" cy="26.188" r="26.188" transform="translate(5513 3412)" fill="#fff" opacity="0.45"/>
        <path id="Path_94040-19" data-name="Path 94040" d="M16.367,0A16.367,16.367,0,1,1,0,16.367,16.367,16.367,0,0,1,16.367,0Z" transform="translate(5522.82 3421.821)" fill="#c3922e"/>
      </g>
      <text id="Charlotte-2" data-name="Charlotte" transform="translate(44 66.376)" fill="#1e3b6b" font-size="20" font-family="Inter Tight" font-weight="600" letter-spacing="0.03em"><tspan x="-44.5" y="0">Charlotte</tspan></text>
    </g>
    <g id="Atlanta" transform="translate(1112.497 2272.722)">
      <g id="Group_66709-20" data-name="Group 66709" transform="translate(-5504.376 -3412)">
        <circle id="Ellipse_74-20" data-name="Ellipse 74" cx="26.188" cy="26.188" r="26.188" transform="translate(5513 3412)" fill="#fff" opacity="0.45"/>
        <path id="Path_94040-20" data-name="Path 94040" d="M16.367,0A16.367,16.367,0,1,1,0,16.367,16.367,16.367,0,0,1,16.367,0Z" transform="translate(5522.82 3421.821)" fill="#c3922e"/>
      </g>
      <text id="Atlanta-2" data-name="Atlanta" transform="translate(34 65)" fill="#1e3b6b" font-size="20" font-family="Inter Tight" font-weight="600" letter-spacing="0.03em"><tspan x="-34.061" y="0">Atlanta</tspan></text>
    </g>
    <g id="Jacksonville" transform="translate(1205.406 2359.446)">
      <g id="Group_66709-21" data-name="Group 66709" transform="translate(-5513 -3412)">
        <circle id="Ellipse_74-21" data-name="Ellipse 74" cx="26.188" cy="26.188" r="26.188" transform="translate(5513 3412)" fill="#fff" opacity="0.45"/>
        <path id="Path_94040-21" data-name="Path 94040" d="M16.367,0A16.367,16.367,0,1,1,0,16.367,16.367,16.367,0,0,1,16.367,0Z" transform="translate(5522.82 3421.821)" fill="#c3922e"/>
      </g>
      <text id="Jacksonville-2" data-name="Jacksonville" transform="translate(106.594 33.188)" fill="#1e3b6b" font-size="20" font-family="Inter Tight" font-weight="600" letter-spacing="0.03em"><tspan x="-58.622" y="0">Jacksonville</tspan></text>
    </g>
    <g id="Miami" transform="translate(1275.812 2498.424)">
      <g id="Group_66709-22" data-name="Group 66709" transform="translate(-5513 -3412)">
        <circle id="Ellipse_74-22" data-name="Ellipse 74" cx="26.188" cy="26.188" r="26.188" transform="translate(5513 3412)" fill="#fff" opacity="0.45"/>
        <path id="Path_94040-22" data-name="Path 94040" d="M16.367,0A16.367,16.367,0,1,1,0,16.367,16.367,16.367,0,0,1,16.367,0Z" transform="translate(5522.82 3421.821)" fill="#c3922e"/>
      </g>
      <text id="Miami-2" data-name="Miami" transform="translate(28.188 65.652)" fill="#1e3b6b" font-size="20" font-family="Inter Tight" font-weight="600" letter-spacing="0.03em"><tspan x="-28.392" y="0">Miami</tspan></text>
    </g>
    <g id="Austin" transform="translate(753.503 2377.916)">
      <g id="Group_66709-23" data-name="Group 66709" transform="translate(-5487.879 -3412)">
        <circle id="Ellipse_74-23" data-name="Ellipse 74" cx="26.188" cy="26.188" r="26.188" transform="translate(5513 3412)" fill="#fff" opacity="0.45"/>
        <path id="Path_94040-23" data-name="Path 94040" d="M16.367,0A16.367,16.367,0,1,1,0,16.367,16.367,16.367,0,0,1,16.367,0Z" transform="translate(5522.82 3421.821)" fill="#c3922e"/>
      </g>
      <text id="Austin-2" data-name="Austin" transform="translate(31 65)" fill="#1e3b6b" font-size="20" font-family="Inter Tight" font-weight="600" letter-spacing="0.03em"><tspan x="-30.577" y="0">Austin</tspan></text>
    </g>
    <g id="Houston" transform="translate(845 2412.822)">
      <g id="Group_66709-24" data-name="Group 66709" transform="translate(-5513 -3412)">
        <circle id="Ellipse_74-24" data-name="Ellipse 74" cx="26.188" cy="26.188" r="26.188" transform="translate(5513 3412)" fill="#fff" opacity="0.45"/>
        <path id="Path_94040-24" data-name="Path 94040" d="M16.367,0A16.367,16.367,0,1,1,0,16.367,16.367,16.367,0,0,1,16.367,0Z" transform="translate(5522.82 3421.821)" fill="#c3922e"/>
      </g>
      <text id="Houston-2" data-name="Houston" transform="translate(40 65.188)" fill="#1e3b6b" font-size="20" font-family="Inter Tight" font-weight="600" letter-spacing="0.03em"><tspan x="-40.198" y="0">Houston</tspan></text>
    </g>
  </g>
</svg>
