<svg xmlns="http://www.w3.org/2000/svg" xmlns:xlink="http://www.w3.org/1999/xlink" width="206" height="203.69" viewBox="0 0 206 203.69">
  <defs>
    <filter id="Rectangle_5210" x="47" y="44" width="111" height="114.892" filterUnits="userSpaceOnUse">
      <feOffset dy="6" input="SourceAlpha"/>
      <feGaussianBlur stdDeviation="6" result="blur"/>
      <feFlood flood-color="#e7d7b6"/>
      <feComposite operator="in" in2="blur"/>
      <feComposite in="SourceGraphic"/>
    </filter>
    <filter id="Subtraction_5" x="0" y="0" width="206" height="203.69" filterUnits="userSpaceOnUse">
      <feOffset dy="6" input="SourceAlpha"/>
      <feGaussianBlur stdDeviation="6" result="blur-2"/>
      <feFlood flood-color="#e7d7b6"/>
      <feComposite operator="in" in2="blur-2"/>
      <feComposite in="SourceGraphic"/>
    </filter>
  </defs>
  <g id="Group_66808" data-name="Group 66808" transform="translate(-305.5 -1102.504)">
    <g transform="matrix(1, 0, 0, 1, 305.5, 1102.5)" filter="url(#Subtraction_5)">
      <path id="Subtraction_5-2" data-name="Subtraction 5" d="M-3958,2618.193a85.472,85.472,0,0,1-33.086-6.589,85.4,85.4,0,0,1-14.439-7.73,85.385,85.385,0,0,1-12.58-10.238,84.71,84.71,0,0,1-10.379-12.409,83.493,83.493,0,0,1-7.837-14.242,82.341,82.341,0,0,1-6.68-32.636,82.343,82.343,0,0,1,6.68-32.637,83.452,83.452,0,0,1,7.837-14.242,84.679,84.679,0,0,1,10.379-12.409,85.376,85.376,0,0,1,12.58-10.238,85.4,85.4,0,0,1,14.439-7.73A85.472,85.472,0,0,1-3958,2450.5a85.475,85.475,0,0,1,33.086,6.589,85.4,85.4,0,0,1,14.438,7.73,85.376,85.376,0,0,1,12.58,10.238,84.679,84.679,0,0,1,10.379,12.409,83.469,83.469,0,0,1,7.837,14.242,82.343,82.343,0,0,1,6.68,32.637,82.341,82.341,0,0,1-6.68,32.636,83.474,83.474,0,0,1-7.837,14.242,84.71,84.71,0,0,1-10.379,12.409,85.385,85.385,0,0,1-12.58,10.238,85.4,85.4,0,0,1-14.438,7.73A85.475,85.475,0,0,1-3958,2618.193Zm30.45-109.492-35.792.341a2.25,2.25,0,0,0-2.224,2.269l.572,59.858a2.253,2.253,0,0,0,2.247,2.225h.021l35.793-.344a6.017,6.017,0,0,0,5.933-5.932V2567l-.5-52.367a6.011,6.011,0,0,0-5.99-5.934Zm-30.7-14.2a6.02,6.02,0,0,0-1.527.207l-34.563,9.3a2.258,2.258,0,0,0-1.664,2.134v.068a2.241,2.241,0,0,0,.077.551l15.553,57.805a2.25,2.25,0,0,0,2.167,1.664,2.232,2.232,0,0,0,.587-.079l8.6-2.313-.265-27.6a11.128,11.128,0,0,1-10.125-8.036,11.052,11.052,0,0,1,.963-8.461,11.054,11.054,0,0,1,6.664-5.3,11.246,11.246,0,0,1,2.285-.4l-.028-2.906a6.084,6.084,0,0,1,1.75-4.345,6.083,6.083,0,0,1,4.31-1.832l12.614-.122-1.585-5.889a6.007,6.007,0,0,0-5.758-4.437Zm27.136,67.72h-24.348v-2.851h24.348v2.85Zm-13.128-15.552h0l-.043-.069a11.125,11.125,0,0,1-10.071-9.947h-.057V2534.4h.057a11.122,11.122,0,0,1,10.075-9.947l0-.008.013.008c.375-.034.685-.05.976-.05s.6.016.975.05l.015-.008,0,.008a11.122,11.122,0,0,1,10.076,9.947h.057v2.259h-.057a11.125,11.125,0,0,1-10.07,9.947l-.044.068-.1-.062h-.008c-.276.022-.562.044-.848.044s-.564-.022-.837-.043l-.019,0-.1.063Zm5.761-10.017a16.33,16.33,0,0,1-2.2,7.346,8.885,8.885,0,0,0,6.183-7.346Zm-13.594,0h0a8.882,8.882,0,0,0,6.183,7.346,16.314,16.314,0,0,1-2.2-7.346Zm6.241,0a13.976,13.976,0,0,0,2.087,6.574l.459.726.461-.726a14,14,0,0,0,2.086-6.574Zm.15-9.658h0a8.844,8.844,0,0,0-6.391,7.4h4a16.123,16.123,0,0,1,1.933-6.575l.455-.825Zm2.4.328h0l-.872,1.584a13.921,13.921,0,0,0-1.661,5.487h5.065a13.92,13.92,0,0,0-1.661-5.487l-.872-1.584Zm2.4-.329h0l.455.825a16.146,16.146,0,0,1,1.932,6.575h4a8.844,8.844,0,0,0-6.391-7.4Z" transform="translate(4061 -2438.5)" fill="#c3922e"/>
    </g>
  </g>
</svg>
