<svg xmlns="http://www.w3.org/2000/svg" xmlns:xlink="http://www.w3.org/1999/xlink" width="206" height="203.691" viewBox="0 0 206 203.691">
  <defs>
    <filter id="Subtraction_8" x="0" y="0" width="206" height="203.691" filterUnits="userSpaceOnUse">
      <feOffset dy="6" input="SourceAlpha"/>
      <feGaussianBlur stdDeviation="6" result="blur"/>
      <feFlood flood-color="#e7d7b6"/>
      <feComposite operator="in" in2="blur"/>
      <feComposite in="SourceGraphic"/>
    </filter>
  </defs>
  <g transform="matrix(1, 0, 0, 1, 0, 0)" filter="url(#Subtraction_8)">
    <path id="Subtraction_8-2" data-name="Subtraction 8" d="M-2839,2797.691a85.474,85.474,0,0,1-33.086-6.589,85.351,85.351,0,0,1-14.438-7.73,85.366,85.366,0,0,1-12.58-10.238,84.7,84.7,0,0,1-10.379-12.409,83.5,83.5,0,0,1-7.837-14.242,82.351,82.351,0,0,1-6.68-32.637,82.349,82.349,0,0,1,6.68-32.636,83.528,83.528,0,0,1,7.837-14.242,84.692,84.692,0,0,1,10.379-12.409,85.338,85.338,0,0,1,12.58-10.238,85.383,85.383,0,0,1,14.438-7.731A85.482,85.482,0,0,1-2839,2630a85.486,85.486,0,0,1,33.086,6.589,85.417,85.417,0,0,1,14.438,7.731,85.338,85.338,0,0,1,12.58,10.238,84.7,84.7,0,0,1,10.379,12.409,83.513,83.513,0,0,1,7.837,14.242,82.348,82.348,0,0,1,6.679,32.636,82.351,82.351,0,0,1-6.679,32.637,83.5,83.5,0,0,1-7.837,14.242,84.716,84.716,0,0,1-10.379,12.409,85.366,85.366,0,0,1-12.58,10.238,85.348,85.348,0,0,1-14.438,7.73A85.477,85.477,0,0,1-2839,2797.691Zm-4-48.521h0v5.914a1.984,1.984,0,0,0,1.982,1.981,6.781,6.781,0,0,0,6.773-6.773v-11.082c.634.041,1.311.062,2.012.062h.011c3.949,0,11.261-.688,15.87-5.3a16.2,16.2,0,0,0,3.6-5.731,25.833,25.833,0,0,0,1.464-6.157,32.8,32.8,0,0,0,.1-6.917l0-.005h0a28.183,28.183,0,0,0-2.91-.136c-3.958,0-11.286.688-15.9,5.3a17.272,17.272,0,0,0-4.243,7.726v-17.565a20.375,20.375,0,0,0,6.42-2.6,20.576,20.576,0,0,0,5.121-4.494,20.425,20.425,0,0,0,3.389-5.962,20.441,20.441,0,0,0,1.226-7,20.4,20.4,0,0,0-6.015-14.52,20.4,20.4,0,0,0-14.52-6.014,20.4,20.4,0,0,0-14.519,6.014,20.4,20.4,0,0,0-6.014,14.52,20.439,20.439,0,0,0,1.226,7,20.4,20.4,0,0,0,3.389,5.962,20.582,20.582,0,0,0,5.12,4.494,20.372,20.372,0,0,0,6.42,2.6v24.127a17.654,17.654,0,0,0-3.886-6.152c-5.045-5.044-13.066-5.8-17.4-5.8a30.441,30.441,0,0,0-3.181.148l-.01,0a35.751,35.751,0,0,0,.107,7.576,28.276,28.276,0,0,0,1.6,6.739,17.737,17.737,0,0,0,3.939,6.273c5.044,5.044,13.049,5.8,17.373,5.8.487,0,.977-.01,1.454-.029Zm6.76-45.966a11.235,11.235,0,0,1-6.056-1.587,10.6,10.6,0,0,1-3.916-4.386,13.291,13.291,0,0,1-.79-2.09h-3.267v-3.122h2.69l-.016-.184,0-.043c-.027-.316-.054-.644-.06-.981s.035-.648.061-.956l.009-.108.009-.109h-2.69v-3.123h3.249a12.653,12.653,0,0,1,.833-2.221,10.427,10.427,0,0,1,3.915-4.331,11.411,11.411,0,0,1,6.032-1.543,12.722,12.722,0,0,1,3.278.421,10.824,10.824,0,0,1,2.933,1.265l-2.113,3.288a6.5,6.5,0,0,0-1.926-.926,7.667,7.667,0,0,0-2.172-.312,6.891,6.891,0,0,0-3.991,1.089,6.708,6.708,0,0,0-2.379,3.049.817.817,0,0,0-.033.116l0,.015a.83.83,0,0,1-.026.091h8.036v3.123h-8.687c-.012.139-.028.274-.043.4v.006a6.879,6.879,0,0,0-.061.766,7.2,7.2,0,0,0,.063.794l0,.018c.016.126.032.26.043.4h8.685v3.122h-8.031a1.04,1.04,0,0,1,.032.112v.006a.89.89,0,0,0,.034.113,6.6,6.6,0,0,0,2.4,3.024,6.847,6.847,0,0,0,3.893,1.058h.237a6.772,6.772,0,0,0,3.959-1.225l2.081,3.255a10.688,10.688,0,0,1-2.949,1.289A12.578,12.578,0,0,1-2836.238,2703.2Z" transform="translate(2942 -2618)" fill="#c3922e"/>
  </g>
</svg>
