<svg xmlns="http://www.w3.org/2000/svg" xmlns:xlink="http://www.w3.org/1999/xlink" width="206" height="203.458" viewBox="0 0 206 203.458">
  <defs>
    <filter id="Subtraction_2" x="0" y="0" width="206" height="203.458" filterUnits="userSpaceOnUse">
      <feOffset dy="6" input="SourceAlpha"/>
      <feGaussianBlur stdDeviation="6" result="blur"/>
      <feFlood flood-color="#e7d7b6"/>
      <feComposite operator="in" in2="blur"/>
      <feComposite in="SourceGraphic"/>
    </filter>
  </defs>
  <g transform="matrix(1, 0, 0, 1, 0, 0)" filter="url(#Subtraction_2)">
    <path id="Subtraction_2-2" data-name="Subtraction 2" d="M-2839,2797.457a85.58,85.58,0,0,1-33.086-6.58,85.438,85.438,0,0,1-14.438-7.72,85.392,85.392,0,0,1-12.58-10.224,84.611,84.611,0,0,1-10.379-12.392,83.337,83.337,0,0,1-7.837-14.222,82.137,82.137,0,0,1-6.68-32.591,82.136,82.136,0,0,1,6.68-32.591,83.357,83.357,0,0,1,7.837-14.222,84.6,84.6,0,0,1,10.379-12.392,85.345,85.345,0,0,1,12.58-10.224,85.452,85.452,0,0,1,14.438-7.72A85.58,85.58,0,0,1-2839,2630a85.578,85.578,0,0,1,33.086,6.58,85.424,85.424,0,0,1,14.438,7.72,85.319,85.319,0,0,1,12.58,10.224,84.618,84.618,0,0,1,10.379,12.392,83.357,83.357,0,0,1,7.837,14.222,82.132,82.132,0,0,1,6.679,32.591,82.133,82.133,0,0,1-6.679,32.591,83.354,83.354,0,0,1-7.837,14.222,84.618,84.618,0,0,1-10.379,12.392,85.366,85.366,0,0,1-12.58,10.224,85.42,85.42,0,0,1-14.438,7.72A85.578,85.578,0,0,1-2839,2797.457Zm-6.466-72.382h6.36a3.264,3.264,0,0,1,3.262,3.259c0,.035,0,.816,0,2.076,0,4.625-.009,15.711-.012,20.191a3.227,3.227,0,0,0,.955,2.3,3.245,3.245,0,0,0,2.307.953h22.227a3.262,3.262,0,0,0,3.261-3.256v-32.685a3.251,3.251,0,0,0-1.161-2.492l-23.161-19.472a3.266,3.266,0,0,0-2.1-.766,3.266,3.266,0,0,0-2.1.766l-23.162,19.472a3.252,3.252,0,0,0-1.161,2.492v32.614c0,2.177,1,3.327,2.88,3.327l4.89-.1a3.247,3.247,0,0,0,3.19-3.2l.265-22.223A3.263,3.263,0,0,1-2845.466,2725.075Zm-30.9-50.9a2.4,2.4,0,0,0-2.478,2.305v2.6a.74.74,0,0,1-.025.1.518.518,0,0,0-.03.153v72.282a2.035,2.035,0,0,0,2.1,1.964h1.361a2.035,2.035,0,0,0,2.094-1.964v-58.169a19.619,19.619,0,0,0,5.113.656,40.675,40.675,0,0,0,6.822-.752,40.717,40.717,0,0,1,6.82-.751,19.649,19.649,0,0,1,7.933,1.631,1.95,1.95,0,0,0,.767.157,1.867,1.867,0,0,0,1.915-1.812v-14.135a2.176,2.176,0,0,0-1.2-1.949,20.131,20.131,0,0,0-9.406-2.319,40.584,40.584,0,0,0-6.822.754,40.69,40.69,0,0,1-6.827.754,19.739,19.739,0,0,1-7.171-1.324A2.677,2.677,0,0,0-2876.365,2674.177Zm60.615,26.273h0l.975.035.116-.008c1.776-.129,3.433-1.625,4.545-4.106,2.388-5.319,10.912-20.052,11-20.2a.553.553,0,0,0-.052-.493.273.273,0,0,0-.222-.128h-.019a8.528,8.528,0,0,0-5.982,3.485l-9.407,13.256-1.817-5.337c-.683-2.941-2.671-4.917-4.947-4.917-.094,0-.19,0-.284.01l-4.867.351a.31.31,0,0,0-.235.163.564.564,0,0,0-.034.5l6.506,13.953c.914,2.163,2.535,3.455,4.336,3.455.091,0,.183,0,.275-.01Zm-3.805,35.179h-3.241a3.337,3.337,0,0,1-3.335-3.332v-3.237a3.337,3.337,0,0,1,3.335-3.332h3.241a3.338,3.338,0,0,1,3.336,3.332v3.237A3.338,3.338,0,0,1-2819.555,2735.63Z" transform="translate(2942 -2618)" fill="#c3922e"/>
  </g>
</svg>
