<svg xmlns="http://www.w3.org/2000/svg" xmlns:xlink="http://www.w3.org/1999/xlink" width="206" height="203.691" viewBox="0 0 206 203.691">
  <defs>
    <filter id="Subtraction_4" x="0" y="0" width="206" height="203.691" filterUnits="userSpaceOnUse">
      <feOffset dy="6" input="SourceAlpha"/>
      <feGaussianBlur stdDeviation="6" result="blur"/>
      <feFlood flood-color="#e7d7b6"/>
      <feComposite operator="in" in2="blur"/>
      <feComposite in="SourceGraphic"/>
    </filter>
  </defs>
  <g transform="matrix(1, 0, 0, 1, 0, 0)" filter="url(#Subtraction_4)">
    <path id="Subtraction_4-2" data-name="Subtraction 4" d="M-2839,2797.691a85.474,85.474,0,0,1-33.086-6.589,85.369,85.369,0,0,1-14.438-7.73,85.368,85.368,0,0,1-12.58-10.238,84.7,84.7,0,0,1-10.379-12.409,83.5,83.5,0,0,1-7.837-14.242,82.35,82.35,0,0,1-6.68-32.637,82.35,82.35,0,0,1,6.68-32.637,83.526,83.526,0,0,1,7.837-14.242,84.694,84.694,0,0,1,10.379-12.409,85.337,85.337,0,0,1,12.58-10.238,85.364,85.364,0,0,1,14.438-7.731A85.474,85.474,0,0,1-2839,2630a85.477,85.477,0,0,1,33.086,6.589,85.4,85.4,0,0,1,14.438,7.731,85.337,85.337,0,0,1,12.58,10.238,84.712,84.712,0,0,1,10.379,12.409,83.511,83.511,0,0,1,7.837,14.242,82.349,82.349,0,0,1,6.679,32.637,82.349,82.349,0,0,1-6.679,32.637,83.5,83.5,0,0,1-7.837,14.242,84.7,84.7,0,0,1-10.379,12.409,85.368,85.368,0,0,1-12.58,10.238,85.366,85.366,0,0,1-14.438,7.73A85.477,85.477,0,0,1-2839,2797.691Zm-2.537-36.941h.006a.508.508,0,0,1,.477.328l1.355,3.54a.5.5,0,0,0,.477.328.5.5,0,0,0,.488-.358l1.132-3.617a.514.514,0,0,1,.461-.359l3.786-.194a.5.5,0,0,0,.464-.368.5.5,0,0,0-.2-.559l-3.091-2.2a.513.513,0,0,1-.2-.549l.983-3.661a.494.494,0,0,0-.083-.44.521.521,0,0,0-.411-.206.506.506,0,0,0-.3.1l-3.042,2.262a.514.514,0,0,1-.3.1.512.512,0,0,1-.279-.083l-3.178-2.067a.5.5,0,0,0-.278-.085.519.519,0,0,0-.419.218.5.5,0,0,0-.066.458l1.21,3.592a.513.513,0,0,1-.163.561l-2.949,2.383a.5.5,0,0,0-.16.568.5.5,0,0,0,.481.34h.006Zm-21.049-14.652a.508.508,0,0,0-.5.409l-.748,3.717a.509.509,0,0,1-.42.4l-3.746.591a.5.5,0,0,0-.423.414.505.505,0,0,0,.252.536l3.3,1.86a.51.51,0,0,1,.254.525l-.6,3.745a.5.5,0,0,0,.112.408.529.529,0,0,0,.4.185.5.5,0,0,0,.342-.136l2.789-2.569a.514.514,0,0,1,.346-.134.512.512,0,0,1,.232.056l3.377,1.723a.5.5,0,0,0,.234.058.519.519,0,0,0,.431-.24.5.5,0,0,0,.031-.485l-1.58-3.446a.508.508,0,0,1,.1-.574l2.683-2.678a.5.5,0,0,0,.111-.556.5.5,0,0,0-.466-.316.555.555,0,0,0-.064,0l-3.767.436a.484.484,0,0,1-.06,0,.506.506,0,0,1-.453-.278l-1.719-3.38A.5.5,0,0,0-2862.586,2746.1Zm44.879,8.734a.512.512,0,0,1,.322.114l2.944,2.388a.5.5,0,0,0,.319.116.524.524,0,0,0,.4-.2.5.5,0,0,0,.1-.428l-.828-3.7a.513.513,0,0,1,.22-.54l3.182-2.063a.5.5,0,0,0,.219-.549.505.505,0,0,0-.448-.388l-3.774-.355a.507.507,0,0,1-.445-.377l-.979-3.663a.507.507,0,0,0-.5-.379.5.5,0,0,0-.468.309l-1.5,3.479a.512.512,0,0,1-.47.309h-.026l-3.787-.2h-.031a.5.5,0,0,0-.474.331.5.5,0,0,0,.14.563l2.845,2.507a.512.512,0,0,1,.139.567l-1.36,3.539a.5.5,0,0,0,.052.469.524.524,0,0,0,.424.227.5.5,0,0,0,.26-.073l3.263-1.931A.511.511,0,0,1-2817.707,2754.832Zm-62.124-14.785a.51.51,0,0,1,.429.232l2.062,3.182a.5.5,0,0,0,.424.233.505.505,0,0,0,.513-.464l.356-3.774a.512.512,0,0,1,.376-.446l3.664-.979a.5.5,0,0,0,.377-.456.5.5,0,0,0-.307-.507l-3.48-1.5a.518.518,0,0,1-.308-.5l.2-3.786a.5.5,0,0,0-.135-.376.527.527,0,0,0-.38-.163.5.5,0,0,0-.378.174l-2.507,2.844a.507.507,0,0,1-.383.174.506.506,0,0,1-.182-.033l-3.539-1.363a.529.529,0,0,0-.187-.035.513.513,0,0,0-.442.262.5.5,0,0,0,.006.511l1.931,3.263a.509.509,0,0,1-.044.582l-2.387,2.945a.5.5,0,0,0-.065.54.5.5,0,0,0,.454.293.548.548,0,0,0,.118-.013l3.7-.827A.514.514,0,0,1-2879.831,2740.047Zm75.43-11.3a.531.531,0,0,0-.39.175.5.5,0,0,0-.122.4l.438,3.767a.514.514,0,0,1-.276.513l-3.38,1.718a.5.5,0,0,0-.275.525.5.5,0,0,0,.405.431l3.717.749a.509.509,0,0,1,.4.421l.591,3.746a.505.505,0,0,0,.508.431.5.5,0,0,0,.441-.261l1.861-3.3a.506.506,0,0,1,.441-.26.516.516,0,0,1,.083.007l3.744.595a.575.575,0,0,0,.085.007.5.5,0,0,0,.463-.308.5.5,0,0,0-.092-.548l-2.568-2.791a.513.513,0,0,1-.079-.578l1.724-3.377a.5.5,0,0,0-.016-.494.517.517,0,0,0-.436-.25.512.512,0,0,0-.215.049l-3.447,1.579a.5.5,0,0,1-.212.046.512.512,0,0,1-.363-.15l-2.678-2.683A.5.5,0,0,0-2804.4,2728.747Zm-36.179-40a3.212,3.212,0,0,0-1.534.427c-5.18,2.783-10.454,5.6-15.554,8.327l-.113.06-6.271,3.352-.229.123c-.519.276-1.053.561-1.545.891a.866.866,0,0,0-.369.67,1,1,0,0,0,.578.583,3.172,3.172,0,0,0,1.07.129c1.1,0,2.225,0,3.311,0,1.561,0,3.174,0,4.761.012a2.451,2.451,0,0,1,1.16.255,1,1,0,0,1,.412.806c-.43,3.115-.9,6.248-1.355,9.278l-.127.849q-.483,3.219-.969,6.437l-.018.121c-.526,3.491-1.07,7.1-1.6,10.653a3.17,3.17,0,0,0,1.114,2.988,4.762,4.762,0,0,0,3.375,1.065h.021c1.826,0,3.781-.006,6.152-.006h11.4l3.973,0h.313l1.593,0h.074l1.556,0c.922,0,2.14,0,3.383-.031a3.686,3.686,0,0,0,3.8-3.336,5.426,5.426,0,0,0-.115-1.329c-.023-.137-.043-.26-.062-.381-.894-6.027-1.807-12.159-2.689-18.089l-.1-.706q-.543-3.647-1.085-7.295c-.114-.76.083-1.058.813-1.228a3.753,3.753,0,0,1,.825-.065l3.055,0h.436c1.439,0,2.927,0,4.391,0,.063,0,.13,0,.194,0h.031c.066,0,.134,0,.2,0a1.476,1.476,0,0,0,.523-.075c.265-.1.726-.345.777-.609.034-.176-.156-.4-.34-.614-.065-.077-.127-.15-.18-.221a.452.452,0,0,0-.185-.117c-.031-.013-.062-.026-.089-.041l-1.28-.685-.521-.278-.282-.151-1.918-1.026-3.6-1.929-.8-.426-.142-.076c-4.849-2.6-9.862-5.283-14.787-7.934A3,3,0,0,0-2840.58,2688.749Zm-46.513,19.914a.527.527,0,0,0-.372.155.5.5,0,0,0-.144.363l.041,3.791a.51.51,0,0,1-.327.482l-3.541,1.356a.506.506,0,0,0-.328.494.507.507,0,0,0,.358.472l3.618,1.131a.515.515,0,0,1,.357.461l.2,3.787a.507.507,0,0,0,.514.485.5.5,0,0,0,.412-.215l2.2-3.092a.51.51,0,0,1,.417-.215.507.507,0,0,1,.132.017l3.661.984a.538.538,0,0,0,.139.019.507.507,0,0,0,.452-.284.5.5,0,0,0-.046-.532l-2.262-3.042a.51.51,0,0,1-.019-.585l2.067-3.177a.5.5,0,0,0,.023-.52.51.51,0,0,0-.446-.272.529.529,0,0,0-.167.028l-3.593,1.211a.507.507,0,0,1-.163.027.511.511,0,0,1-.4-.19l-2.384-2.948A.5.5,0,0,0-2887.092,2708.664Zm89.685,7.036a.511.511,0,0,1,.4.19l2.383,2.948a.5.5,0,0,0,.392.191.529.529,0,0,0,.373-.155.5.5,0,0,0,.143-.362l-.041-3.792a.514.514,0,0,1,.328-.482l3.54-1.356a.505.505,0,0,0,.328-.494.5.5,0,0,0-.357-.47l-3.62-1.133a.513.513,0,0,1-.357-.462l-.194-3.785a.509.509,0,0,0-.516-.486.5.5,0,0,0-.411.216l-2.2,3.091a.513.513,0,0,1-.417.215.5.5,0,0,1-.133-.018l-3.661-.984a.536.536,0,0,0-.139-.019.506.506,0,0,0-.452.285.5.5,0,0,0,.048.532l2.261,3.044a.51.51,0,0,1,.019.582l-2.067,3.178a.5.5,0,0,0-.023.52.508.508,0,0,0,.445.271.525.525,0,0,0,.169-.029l3.592-1.211A.508.508,0,0,1-2797.407,2715.7Zm-82.916-19.74a.513.513,0,0,1,.363.15l2.679,2.682a.494.494,0,0,0,.357.151.53.53,0,0,0,.39-.176.5.5,0,0,0,.121-.395l-.437-3.768a.511.511,0,0,1,.276-.514l3.379-1.718a.5.5,0,0,0,.274-.525.5.5,0,0,0-.405-.432l-3.717-.749a.513.513,0,0,1-.4-.42l-.589-3.746a.506.506,0,0,0-.508-.431.5.5,0,0,0-.442.26l-1.86,3.3a.512.512,0,0,1-.444.261.528.528,0,0,1-.081-.006l-3.743-.6a.537.537,0,0,0-.086-.007.5.5,0,0,0-.463.307.5.5,0,0,0,.092.55l2.567,2.789a.513.513,0,0,1,.08.578l-1.725,3.377a.5.5,0,0,0,.017.5.515.515,0,0,0,.435.249.521.521,0,0,0,.217-.049l3.446-1.579A.5.5,0,0,1-2880.323,2695.959Zm75.914-11.962a.506.506,0,0,0-.512.464l-.355,3.774a.517.517,0,0,1-.377.447l-3.663.978a.5.5,0,0,0-.378.456.5.5,0,0,0,.306.506l3.48,1.5a.517.517,0,0,1,.308.5l-.2,3.787a.5.5,0,0,0,.135.375.526.526,0,0,0,.38.163.5.5,0,0,0,.378-.174l2.506-2.845a.513.513,0,0,1,.383-.172.508.508,0,0,1,.184.034l3.539,1.36a.522.522,0,0,0,.188.036.512.512,0,0,0,.441-.262.5.5,0,0,0-.006-.51l-1.932-3.263a.515.515,0,0,1,.043-.582l2.388-2.944a.5.5,0,0,0,.066-.539.5.5,0,0,0-.456-.294.544.544,0,0,0-.118.013l-3.7.828a.508.508,0,0,1-.11.012.508.508,0,0,1-.429-.233l-2.063-3.181A.5.5,0,0,0-2804.409,2684Zm-62.794-13.757a.525.525,0,0,0-.405.2.5.5,0,0,0-.095.427l.828,3.7a.514.514,0,0,1-.221.541l-3.181,2.062a.5.5,0,0,0-.218.551.5.5,0,0,0,.448.386l3.774.356a.513.513,0,0,1,.446.378l.979,3.662a.507.507,0,0,0,.495.379.5.5,0,0,0,.466-.308l1.5-3.48a.511.511,0,0,1,.468-.308h.028l3.785.2h.029a.5.5,0,0,0,.476-.331.5.5,0,0,0-.141-.564l-2.844-2.506a.516.516,0,0,1-.139-.567l1.362-3.539a.5.5,0,0,0-.052-.469.523.523,0,0,0-.424-.227.5.5,0,0,0-.261.074l-3.263,1.93a.51.51,0,0,1-.259.071.516.516,0,0,1-.322-.114l-2.944-2.389A.505.505,0,0,0-2867.2,2670.24Zm45.839,7.415a.507.507,0,0,1,.454.279l1.718,3.379a.5.5,0,0,0,.453.28.508.508,0,0,0,.5-.41l.749-3.717a.509.509,0,0,1,.42-.4l3.746-.591a.506.506,0,0,0,.423-.414.5.5,0,0,0-.252-.535l-3.3-1.86a.51.51,0,0,1-.254-.524l.6-3.744a.5.5,0,0,0-.112-.41.528.528,0,0,0-.4-.184.5.5,0,0,0-.342.136l-2.789,2.567a.51.51,0,0,1-.346.136.509.509,0,0,1-.231-.056l-3.378-1.724a.509.509,0,0,0-.234-.058.52.52,0,0,0-.43.24.5.5,0,0,0-.031.486l1.579,3.447a.51.51,0,0,1-.1.574l-2.683,2.679a.5.5,0,0,0-.111.555.5.5,0,0,0,.467.316.57.57,0,0,0,.064,0l3.767-.437A.494.494,0,0,1-2821.364,2677.655Zm-20.739-14.911a.5.5,0,0,0-.487.358l-1.133,3.618a.51.51,0,0,1-.462.358l-3.786.2a.505.505,0,0,0-.464.368.5.5,0,0,0,.195.559l3.092,2.2a.512.512,0,0,1,.2.548l-.983,3.662a.5.5,0,0,0,.083.439.524.524,0,0,0,.413.206.5.5,0,0,0,.3-.1l3.043-2.262a.5.5,0,0,1,.3-.1.512.512,0,0,1,.279.082l3.178,2.069a.5.5,0,0,0,.277.084.519.519,0,0,0,.419-.218.5.5,0,0,0,.066-.458l-1.211-3.593a.514.514,0,0,1,.163-.56l2.949-2.385a.5.5,0,0,0,.16-.567.5.5,0,0,0-.481-.341H-2836l-3.791.042a.517.517,0,0,1-.482-.329l-1.355-3.541A.5.5,0,0,0-2842.1,2662.744Z" transform="translate(2942 -2618)" fill="#c3922e"/>
  </g>
</svg>
