<svg xmlns="http://www.w3.org/2000/svg" xmlns:xlink="http://www.w3.org/1999/xlink" width="206" height="203.69" viewBox="0 0 206 203.69">
  <defs>
    <filter id="Subtraction_5" x="0" y="0" width="206" height="203.69" filterUnits="userSpaceOnUse">
      <feOffset dy="6" input="SourceAlpha"/>
      <feGaussianBlur stdDeviation="6" result="blur"/>
      <feFlood flood-color="#e7d7b6"/>
      <feComposite operator="in" in2="blur"/>
      <feComposite in="SourceGraphic"/>
    </filter>
  </defs>
  <g id="Group_66808" data-name="Group 66808" transform="translate(-305.5 -1102.504)">
    <g transform="matrix(1, 0, 0, 1, 305.5, 1102.5)" filter="url(#Subtraction_5)">
      <path id="Subtraction_5-2" data-name="Subtraction 5" d="M-3958,2618.193a85.472,85.472,0,0,1-33.086-6.589,85.4,85.4,0,0,1-14.439-7.73,85.385,85.385,0,0,1-12.58-10.238,84.71,84.71,0,0,1-10.379-12.409,83.493,83.493,0,0,1-7.837-14.242,82.341,82.341,0,0,1-6.68-32.636,82.343,82.343,0,0,1,6.68-32.637,83.452,83.452,0,0,1,7.837-14.242,84.679,84.679,0,0,1,10.379-12.409,85.376,85.376,0,0,1,12.58-10.238,85.4,85.4,0,0,1,14.439-7.73A85.472,85.472,0,0,1-3958,2450.5a85.475,85.475,0,0,1,33.086,6.589,85.4,85.4,0,0,1,14.438,7.73,85.376,85.376,0,0,1,12.58,10.238,84.679,84.679,0,0,1,10.379,12.409,83.469,83.469,0,0,1,7.837,14.242,82.343,82.343,0,0,1,6.68,32.637,82.341,82.341,0,0,1-6.68,32.636,83.474,83.474,0,0,1-7.837,14.242,84.71,84.71,0,0,1-10.379,12.409,85.385,85.385,0,0,1-12.58,10.238,85.4,85.4,0,0,1-14.438,7.73A85.475,85.475,0,0,1-3958,2618.193Zm-43.738-60.156A4.267,4.267,0,0,0-4006,2562.3a4.267,4.267,0,0,0,4.262,4.262h88.475A4.267,4.267,0,0,0-3909,2562.3a4.268,4.268,0,0,0-4.263-4.263h-3.708V2528.71a1.916,1.916,0,0,0-.7-1.466l-13.581-11.446a1.913,1.913,0,0,0-1.231-.45,1.916,1.916,0,0,0-1.232.45l-13.593,11.446a1.913,1.913,0,0,0-.7,1.466v4.379l-5.391-4.541a1.913,1.913,0,0,0-1.231-.45,1.916,1.916,0,0,0-1.232.45L-3969.451,2540a1.908,1.908,0,0,0-.7,1.465v16.577h-17.105c.042-1.746.13-6.387.022-11.768a5.692,5.692,0,0,0,3.953-3.146c1.025-2,1.523-5.031,1.523-9.258a88.009,88.009,0,0,0-2.836-20.852,37.1,37.1,0,0,0-3.078-8.206c-1.233-2.193-2.5-3.305-3.769-3.305s-2.536,1.112-3.768,3.305a37.119,37.119,0,0,0-3.077,8.206,88.052,88.052,0,0,0-2.835,20.852c0,10.043,2.885,11.95,6,12.515-.109,4.78-.24,8.92-.368,11.656Zm76.042,0h-13.421v-9.578h13.5l-.083,9.577Zm-22.309,0h-13.53l.186-11.621c.06-.125.114-.24.169-.357l.014-.029.125-.266,6.024-5.07a.842.842,0,0,1,.543-.2.849.849,0,0,1,.545.2l5.924,4.99v12.353Zm22.466-18.1h-13.721l.055-6.268.117-.247c.063-.133.124-.263.195-.406l6.022-5.07a.849.849,0,0,1,.544-.2.849.849,0,0,1,.545.2l6.006,5.061.293.645-.055,6.284Z" transform="translate(4061 -2438.5)" fill="#c3922e"/>
    </g>
  </g>
</svg>
