<svg xmlns="http://www.w3.org/2000/svg" xmlns:xlink="http://www.w3.org/1999/xlink" width="206" height="203.691" viewBox="0 0 206 203.691">
  <defs>
    <filter id="Subtraction_5" x="0" y="0" width="206" height="203.691" filterUnits="userSpaceOnUse">
      <feOffset dy="6" input="SourceAlpha"/>
      <feGaussianBlur stdDeviation="6" result="blur"/>
      <feFlood flood-color="#e7d7b6"/>
      <feComposite operator="in" in2="blur"/>
      <feComposite in="SourceGraphic"/>
    </filter>
  </defs>
  <g id="Group_66808" data-name="Group 66808" transform="translate(-305 -1102.503)">
    <g transform="matrix(1, 0, 0, 1, 305, 1102.5)" filter="url(#Subtraction_5)">
      <path id="Subtraction_5-2" data-name="Subtraction 5" d="M-3958.5,2618.194a85.475,85.475,0,0,1-33.086-6.589,85.356,85.356,0,0,1-14.438-7.731,85.339,85.339,0,0,1-12.58-10.238,84.673,84.673,0,0,1-10.379-12.409,83.5,83.5,0,0,1-7.837-14.242,82.348,82.348,0,0,1-6.679-32.636,82.348,82.348,0,0,1,6.679-32.636,83.489,83.489,0,0,1,7.837-14.242,84.645,84.645,0,0,1,10.379-12.409,85.345,85.345,0,0,1,12.58-10.239,85.38,85.38,0,0,1,14.438-7.731,85.475,85.475,0,0,1,33.086-6.589,85.478,85.478,0,0,1,33.086,6.589,85.417,85.417,0,0,1,14.438,7.731,85.369,85.369,0,0,1,12.58,10.239,84.675,84.675,0,0,1,10.379,12.409,83.488,83.488,0,0,1,7.837,14.242,82.344,82.344,0,0,1,6.68,32.636,82.344,82.344,0,0,1-6.68,32.636,83.5,83.5,0,0,1-7.837,14.242,84.7,84.7,0,0,1-10.379,12.409,85.36,85.36,0,0,1-12.58,10.238,85.375,85.375,0,0,1-14.438,7.731A85.476,85.476,0,0,1-3958.5,2618.194Zm-36.124-66.676a4.43,4.43,0,0,0-4.425,4.426,4.43,4.43,0,0,0,4.425,4.426h75.75a4.431,4.431,0,0,0,4.426-4.426,4.431,4.431,0,0,0-4.426-4.426h-9.781a2.9,2.9,0,0,0-.059-1.261l-1.858-6.561h1.768a2.952,2.952,0,0,0,2.6-1.545l9.115-16.836a2.928,2.928,0,0,0,.234-2.246,2.935,2.935,0,0,0-1.425-1.754,2.951,2.951,0,0,0-1.4-.356,2.952,2.952,0,0,0-2.6,1.545l-8.28,15.29h-30.759a2.952,2.952,0,0,0-2.948,2.949,2.953,2.953,0,0,0,2.948,2.951h4.693l-1.856,6.561a2.879,2.879,0,0,0-.058,1.261Zm16.037-27.313h-.031a2.246,2.246,0,0,0-2.222,2.259l.05,5.8a2.247,2.247,0,0,0,2.24,2.221h.019a2.243,2.243,0,0,0,2.221-2.258l-.05-5.806A2.24,2.24,0,0,0-3978.587,2524.2Zm-7.347-2.967a2.224,2.224,0,0,0-1.6.669l-4.07,4.138a2.22,2.22,0,0,0-.644,1.587,2.221,2.221,0,0,0,.67,1.579,2.22,2.22,0,0,0,1.568.645,2.218,2.218,0,0,0,1.6-.672l4.07-4.136a2.245,2.245,0,0,0-.027-3.168,2.227,2.227,0,0,0-1.569-.642Zm14.623-.123a2.219,2.219,0,0,0-1.6.67,2.244,2.244,0,0,0,.027,3.168l4.138,4.068a2.225,2.225,0,0,0,1.569.644,2.222,2.222,0,0,0,1.6-.671,2.221,2.221,0,0,0,.643-1.588,2.226,2.226,0,0,0-.669-1.578l-4.138-4.07A2.227,2.227,0,0,0-3971.312,2521.116Zm-7.448-10.379a5.379,5.379,0,0,0-5.35,5.256,5.317,5.317,0,0,0,1.5,3.815,5.32,5.32,0,0,0,3.758,1.638h.1a5.382,5.382,0,0,0,5.351-5.255,5.365,5.365,0,0,0-5.255-5.454ZM-3989,2513.95h-.039l-5.8.05a2.224,2.224,0,0,0-1.579.668,2.221,2.221,0,0,0-.643,1.588,2.246,2.246,0,0,0,2.24,2.221h.018l5.806-.049a2.242,2.242,0,0,0,2.22-2.258A2.293,2.293,0,0,0-3989,2513.95Zm26.449-.219-5.805.048a2.245,2.245,0,0,0-2.221,2.259,2.246,2.246,0,0,0,2.24,2.221h.02l5.8-.048a2.227,2.227,0,0,0,1.578-.668,2.223,2.223,0,0,0,.643-1.589,2.246,2.246,0,0,0-2.24-2.222Zm-27.638-11.187a2.219,2.219,0,0,0-1.6.67,2.219,2.219,0,0,0-.644,1.586,2.227,2.227,0,0,0,.67,1.581l4.139,4.07a2.227,2.227,0,0,0,1.568.642,2.217,2.217,0,0,0,1.6-.671,2.223,2.223,0,0,0,.643-1.588,2.225,2.225,0,0,0-.669-1.577l-4.138-4.07A2.227,2.227,0,0,0-3990.194,2502.543Zm22.832-.19a2.221,2.221,0,0,0-1.6.67l-4.07,4.139a2.219,2.219,0,0,0-.644,1.584,2.228,2.228,0,0,0,.67,1.581,2.221,2.221,0,0,0,1.569.643,2.223,2.223,0,0,0,1.6-.669l4.07-4.139a2.241,2.241,0,0,0-.026-3.166,2.227,2.227,0,0,0-1.569-.644Zm-11.476-4.635a2.243,2.243,0,0,0-2.221,2.258l.05,5.806a2.246,2.246,0,0,0,2.239,2.221h.019a2.245,2.245,0,0,0,2.221-2.26l-.05-5.8A2.324,2.324,0,0,0-3978.837,2497.719Zm44.348,53.8h-18.22l2.214-7.822h13.79l2.215,7.821Z" transform="translate(4061.5 -2438.5)" fill="#c3922e"/>
    </g>
  </g>
</svg>
